%FSLAX35Y35*%
%MOIN*%
G04 2=Kupferunten/CopperbottomL2(X.Bot)*
%ADD10C,0.00591*%
%ADD11C,0.00038*%
%ADD12C,0.00048*%
%ADD13C,0.00240*%
%ADD14C,0.00394*%
%ADD15C,0.00413*%
%ADD16C,0.00500*%
%ADD17C,0.00787*%
%ADD18C,0.00800*%
%ADD19C,0.01181*%
%ADD20C,0.01575*%
%ADD21C,0.01600*%
%ADD22C,0.01969*%
%ADD23C,0.02362*%
%ADD24C,0.03150*%
%ADD25C,0.03543*%
%ADD26C,0.03937*%
%ADD27C,0.05937*%
%ADD28C,0.07000*%
%AMR_29*21,1,0.01181,0.01181,0,0,0.000*%
%ADD29R_29*%
%AMR_30*21,1,0.02100,0.02100,0,0,0.000*%
%ADD30R_30*%
%AMR_31*21,1,0.02362,0.02362,0,0,0.000*%
%ADD31R_31*%
%AMR_32*21,1,0.02756,0.07480,0,0,90.000*%
%ADD32R_32*%
%AMR_33*21,1,0.04724,0.08661,0,0,180.000*%
%ADD33R_33*%
%AMR_34*21,1,0.05000,0.05000,0,0,0.000*%
%ADD34R_34*%
%AMR_35*21,1,0.05000,0.05000,0,0,90.000*%
%ADD35R_35*%
%AMR_36*21,1,0.05000,0.05000,0,0,180.000*%
%ADD36R_36*%
%AMR_37*21,1,0.05000,0.05000,0,0,270.000*%
%ADD37R_37*%
%AMR_38*21,1,0.05512,0.10236,0,0,90.000*%
%ADD38R_38*%
%AMR_39*21,1,0.06693,0.07087,0,0,90.000*%
%ADD39R_39*%
%AMR_40*21,1,0.07000,0.07000,0,0,90.000*%
%ADD40R_40*%
%AMR_41*21,1,0.07087,0.07087,0,0,0.000*%
%ADD41R_41*%
%AMOCT_42*4,1,8,0.023622,0.011811,0.011811,0.023622,-0.011811,0.023622,-0.023622,0.011811,-0.023622,-0.011811,-0.011811,-0.023622,0.011811,-0.023622,0.023622,-0.011811,0.023622,0.011811,0.000*%
%ADD42OCT_42*%
%AMOCT_43*4,1,8,0.031496,0.015748,0.015748,0.031496,-0.015748,0.031496,-0.031496,0.015748,-0.031496,-0.015748,-0.015748,-0.031496,0.015748,-0.031496,0.031496,-0.015748,0.031496,0.015748,90.000*%
%ADD43OCT_43*%
%AMOCT_44*4,1,8,0.035433,0.017717,0.017717,0.035433,-0.017717,0.035433,-0.035433,0.017717,-0.035433,-0.017717,-0.017717,-0.035433,0.017717,-0.035433,0.035433,-0.017717,0.035433,0.017717,0.000*%
%ADD44OCT_44*%
%AMOCT_45*4,1,8,0.039370,0.019685,0.019685,0.039370,-0.019685,0.039370,-0.039370,0.019685,-0.039370,-0.019685,-0.019685,-0.039370,0.019685,-0.039370,0.039370,-0.019685,0.039370,0.019685,180.000*%
%ADD45OCT_45*%
%AMOCT_46*4,1,8,0.045276,0.022638,0.022638,0.045276,-0.022638,0.045276,-0.045276,0.022638,-0.045276,-0.022638,-0.022638,-0.045276,0.022638,-0.045276,0.045276,-0.022638,0.045276,0.022638,270.000*%
%ADD46OCT_46*%
%AMOCT_47*4,1,8,0.047244,0.023622,0.023622,0.047244,-0.023622,0.047244,-0.047244,0.023622,-0.047244,-0.023622,-0.023622,-0.047244,0.023622,-0.047244,0.047244,-0.023622,0.047244,0.023622,270.000*%
%ADD47OCT_47*%
%AMOCT_48*4,1,8,0.078740,0.039370,0.039370,0.078740,-0.039370,0.078740,-0.078740,0.039370,-0.078740,-0.039370,-0.039370,-0.078740,0.039370,-0.078740,0.078740,-0.039370,0.078740,0.039370,0.000*%
%ADD48OCT_48*%
%ADD49O,0.04724X0.06299*%
%ADD50O,0.06299X0.04724*%
%ADD51O,0.04724X0.08661*%
%ADD52O,0.14173X0.08661*%
%AMRR_53*21,1,0.03543,0.05591,0,0,0.000*21,1,0.02835,0.06299,0,0,0.000*1,1,0.00709,0.01417,0.02795*1,1,0.00709,-0.01417,-0.02795*1,1,0.00709,0.01417,-0.02795*1,1,0.00709,-0.01417,0.02795*%
%ADD53RR_53*%
%AMRR_54*21,1,0.03543,0.05591,0,0,270.000*21,1,0.02835,0.06299,0,0,270.000*1,1,0.00709,0.02795,-0.01417*1,1,0.00709,-0.02795,0.01417*1,1,0.00709,-0.02795,-0.01417*1,1,0.00709,0.02795,0.01417*%
%ADD54RR_54*%
%AMRR_55*21,1,0.06299,0.05039,0,0,90.000*21,1,0.05039,0.06299,0,0,90.000*1,1,0.01260,-0.02520,0.02520*1,1,0.01260,0.02520,-0.02520*1,1,0.01260,0.02520,0.02520*1,1,0.01260,-0.02520,-0.02520*%
%ADD55RR_55*%
G54D10*
X224931Y133226D02*
X224931Y124952D01*
G54D17*
X110625Y50000D02*
X150625Y50000D01*
X170625Y70000D01*
X183720Y173828D02*
X196515Y173828D01*
X206358Y183671D01*
X223720Y173828D02*
X236515Y173828D01*
X246358Y183671D01*
X170625Y70000D02*
X170625Y70000D01*
X110625Y50000D02*
X110625Y50000D01*
X183720Y173828D02*
X182236Y175312D01*
X145000Y175312D01*
X110625Y170000D02*
X115173Y170000D01*
X112979Y145479D02*
X51892Y145479D01*
X25162Y118750D01*
X6637Y118750D02*
X25162Y118750D01*
X2291Y114404D02*
X6637Y118750D01*
X2291Y114404D02*
X2291Y87083D01*
X10625Y83750D02*
X10625Y83750D01*
X10625Y83750D01*
X5625Y83750D02*
X2291Y87083D01*
X112979Y145479D02*
X117187Y149687D01*
X117187Y167986D01*
X115173Y170000D01*
X110625Y170000D02*
X110625Y170000D01*
X10625Y83750D02*
X5625Y83750D01*
X35625Y32563D02*
X35625Y32564D01*
X15625Y32563D02*
X15625Y32564D01*
X15625Y40438D02*
X22128Y40438D01*
X15625Y40438D02*
X15625Y40437D01*
X35624Y40438D02*
X35625Y40438D01*
X35624Y40438D02*
X35625Y40437D01*
X204187Y10625D02*
X204188Y10625D01*
X170625Y100000D02*
X170625Y100000D01*
X178554Y92070D01*
X178554Y71192D01*
X170625Y110000D02*
X170625Y110000D01*
X196314Y40801D02*
X196314Y10625D01*
X196314Y40801D02*
X197200Y41688D01*
X205580Y41688D01*
X208180Y44288D02*
X205580Y41688D01*
X208180Y44288D02*
X208180Y71707D01*
X170625Y109262D02*
X170625Y110000D01*
X196313Y10625D02*
X196314Y10625D01*
X170625Y110000D02*
X193437Y110000D01*
X208180Y95257D01*
X208180Y71707D01*
X170625Y140000D02*
X170625Y140000D01*
X145625Y115000D01*
X91250Y115000D01*
X62500Y86250D01*
X170625Y130000D02*
X170625Y130000D01*
X62500Y76250D02*
X67500Y81250D01*
X67500Y88279D01*
X84411Y105190D01*
X145815Y105190D01*
X170625Y130000D01*
X72500Y76250D02*
X77500Y81250D01*
X77500Y88533D01*
X81492Y92524D01*
X98621Y92524D01*
X82500Y76250D02*
X99103Y76250D01*
X107853Y85000D01*
X135943Y85000D01*
X165709Y114765D01*
X214744Y114765D01*
X220559Y81624D02*
X214744Y87438D01*
X214744Y114765D01*
X224931Y124952D01*
X200288Y83636D02*
X180681Y103243D01*
X72500Y86250D02*
X81924Y95674D01*
X102113Y95674D02*
X81924Y95674D01*
X102113Y95674D02*
X102739Y95048D01*
X137901Y95048D01*
X167640Y124787D01*
X181359Y124787D01*
X20625Y113750D02*
X20625Y113750D01*
X15625Y108750D01*
X7925Y108750D02*
X15625Y108750D01*
X5662Y106487D02*
X7925Y108750D01*
X5662Y90587D02*
X5662Y106487D01*
X19014Y88706D02*
X24603Y88706D01*
X78149Y35161D01*
X165786Y35161D01*
X170625Y40000D01*
X18971Y88750D02*
X7500Y88750D01*
X18971Y88750D02*
X19014Y88706D01*
X7500Y88750D02*
X5662Y90587D01*
X170625Y40000D02*
X170625Y40000D01*
X20625Y123750D02*
X20625Y123750D01*
X33015Y85453D02*
X33015Y84475D01*
X72256Y45234D02*
X33015Y84475D01*
X72256Y45234D02*
X165859Y45234D01*
X170625Y50000D01*
X170625Y50000D01*
X17234Y153750D02*
X20984Y150000D01*
X110625Y150000D01*
X110625Y150000D01*
X170625Y150000D02*
X170625Y150000D01*
X170625Y120000D02*
X170625Y120000D01*
X228641Y183671D02*
X227404Y183671D01*
X218240Y170931D02*
X218240Y180427D01*
X218240Y170931D02*
X221536Y167635D01*
X230889Y167635D02*
X221536Y167635D01*
X238265Y160259D02*
X230889Y167635D01*
X238265Y160259D02*
X238265Y150767D01*
X207498Y120000D01*
X170625Y120000D01*
X228641Y183671D02*
X221483Y183671D01*
X218240Y180427D01*
X110625Y140000D02*
X110625Y140000D01*
X230198Y161250D02*
X226718Y164730D01*
X135355Y164730D01*
X110625Y140000D01*
X110625Y130000D02*
X110625Y130000D01*
X233160Y154511D02*
X229957Y154511D01*
X225960Y158508D01*
X208279Y158508D01*
X204770Y155000D01*
X135625Y155000D01*
X110625Y130000D01*
X212734Y155321D02*
X202186Y144772D01*
X135398Y144772D01*
X110625Y120000D01*
X110625Y120000D01*
X10625Y93750D02*
X10625Y93750D01*
X47344Y81287D02*
X27667Y100964D01*
X47344Y81287D02*
X56220Y81287D01*
X57537Y79970D02*
X56220Y81287D01*
X57537Y71108D02*
X57537Y79970D01*
X57537Y71108D02*
X59215Y69429D01*
X75679Y69429D01*
X80440Y81212D02*
X95899Y81212D01*
X75679Y69429D02*
X77500Y71250D01*
X77500Y78272D01*
X80440Y81212D02*
X77500Y78272D01*
X110625Y90000D02*
X110625Y90000D01*
X104687Y90000D02*
X95899Y81212D01*
X110625Y90000D02*
X104687Y90000D01*
X10625Y103750D02*
X10625Y103750D01*
X16182Y98192D01*
X24800Y98192D01*
X40516Y82476D01*
X40516Y79203D01*
X61966Y57752D02*
X40516Y79203D01*
X61966Y57752D02*
X88377Y57752D01*
X110625Y80000D01*
X110625Y80000D01*
G54D19*
X201875Y45625D02*
X199375Y45625D01*
X175000Y70000D01*
X170625Y70000D01*
X5903Y120521D02*
X6623Y120521D01*
X5703Y121441D01*
X5703Y126058D01*
X8316Y128671D01*
X12933Y128671D01*
X15546Y126058D01*
X15546Y121441D01*
X14626Y120521D01*
X16623Y120521D01*
X15703Y121441D01*
X15703Y126058D01*
X18316Y128671D01*
X22933Y128671D01*
X25546Y126058D01*
X25546Y121638D01*
X51159Y147251D01*
X106108Y147251D01*
X105655Y148115D01*
X105627Y148228D01*
X21009Y148228D01*
X20231Y147450D01*
X14236Y147450D01*
X10935Y150752D01*
X10935Y156747D01*
X14236Y160049D01*
X20231Y160049D01*
X23533Y156747D01*
X23533Y151771D01*
X105627Y151771D01*
X105655Y151884D01*
X106250Y153019D01*
X107100Y153978D01*
X108154Y154706D01*
X108928Y155000D01*
X108154Y155293D01*
X107100Y156021D01*
X106250Y156980D01*
X105655Y158115D01*
X105348Y159359D01*
X105348Y160640D01*
X105655Y161884D01*
X106250Y163019D01*
X107100Y163978D01*
X108154Y164706D01*
X108928Y165000D01*
X108154Y165293D01*
X107100Y166021D01*
X106250Y166980D01*
X105655Y168115D01*
X105348Y169359D01*
X105348Y170640D01*
X105655Y171884D01*
X106250Y173019D01*
X107100Y173978D01*
X108154Y174706D01*
X108928Y175000D01*
X108154Y175293D01*
X107100Y176021D01*
X106250Y176980D01*
X105655Y178115D01*
X105348Y179359D01*
X105348Y180640D01*
X105655Y181884D01*
X106250Y183019D01*
X107100Y183978D01*
X108154Y184706D01*
X109352Y185160D01*
X110625Y185315D01*
X111897Y185160D01*
X113095Y184706D01*
X114149Y183978D01*
X114999Y183019D01*
X115594Y181884D01*
X115901Y180640D01*
X115901Y179359D01*
X115594Y178115D01*
X114999Y176980D01*
X114149Y176021D01*
X113095Y175293D01*
X112321Y175000D01*
X113095Y174706D01*
X114149Y173978D01*
X114930Y173097D01*
X135445Y193612D01*
X246915Y193612D01*
X255354Y185173D01*
X255354Y190920D01*
X259118Y194685D01*
X17131Y194685D01*
X20895Y190920D01*
X20895Y181579D01*
X15920Y176604D01*
X6579Y176604D01*
X2165Y181018D01*
X2165Y167662D01*
X4394Y169891D01*
X10389Y169891D01*
X13690Y166590D01*
X13690Y160594D01*
X10389Y157293D01*
X4394Y157293D01*
X2165Y159522D01*
X2165Y147977D01*
X4394Y150206D01*
X10389Y150206D01*
X13690Y146905D01*
X13690Y140909D01*
X10389Y137608D01*
X4394Y137608D01*
X2165Y139837D01*
X2165Y116783D01*
X5903Y120521D01*
X47922Y161791D02*
X44916Y164797D01*
X44916Y170202D01*
X47922Y173208D01*
X53327Y173208D01*
X56333Y170202D01*
X56333Y164797D01*
X53327Y161791D01*
X47922Y161791D01*
X77922Y161791D02*
X74916Y164797D01*
X74916Y170202D01*
X77922Y173208D01*
X83327Y173208D01*
X86333Y170202D01*
X86333Y164797D01*
X83327Y161791D01*
X77922Y161791D01*
X255354Y6579D02*
X255354Y15920D01*
X260329Y20895D01*
X269670Y20895D01*
X273425Y17141D01*
X273425Y180358D01*
X269670Y176604D01*
X260329Y176604D01*
X260174Y176758D01*
X260174Y158396D01*
X237571Y135793D01*
X237571Y133085D01*
X235799Y131313D01*
X235799Y112771D01*
X230487Y107459D01*
X230487Y100561D01*
X232258Y98789D01*
X232258Y94960D01*
X230039Y92741D01*
X226210Y92741D01*
X223991Y94960D01*
X223991Y98789D01*
X225762Y100561D01*
X225762Y109415D01*
X231075Y114728D01*
X231075Y131313D01*
X229303Y133085D01*
X229303Y136914D01*
X231522Y139133D01*
X234230Y139133D01*
X255450Y160353D01*
X255450Y171502D01*
X255423Y171436D01*
X254662Y170445D01*
X253671Y169685D01*
X252517Y169207D01*
X251279Y169044D01*
X250041Y169207D01*
X248887Y169685D01*
X247896Y170445D01*
X247135Y171436D01*
X246657Y172590D01*
X246494Y173828D01*
X246657Y175067D01*
X247135Y176221D01*
X247896Y177211D01*
X248887Y177972D01*
X250041Y178450D01*
X251279Y178613D01*
X252517Y178450D01*
X253671Y177972D01*
X254662Y177211D01*
X255423Y176221D01*
X255450Y176155D01*
X255450Y178396D01*
X251030Y182816D01*
X250979Y182432D01*
X250501Y181278D01*
X249741Y180288D01*
X248750Y179527D01*
X247596Y179049D01*
X246358Y178886D01*
X245119Y179049D01*
X243965Y179527D01*
X242975Y180288D01*
X242214Y181278D01*
X241736Y182432D01*
X241573Y183671D01*
X241736Y184909D01*
X242214Y186063D01*
X242975Y187054D01*
X243965Y187814D01*
X245119Y188292D01*
X245503Y188343D01*
X244959Y188887D01*
X137402Y188887D01*
X118096Y169582D01*
X118959Y168719D01*
X118959Y150839D01*
X134621Y166501D01*
X166674Y166501D01*
X166250Y166980D01*
X165655Y168115D01*
X165348Y169359D01*
X165348Y170640D01*
X165655Y171884D01*
X166250Y173019D01*
X167100Y173978D01*
X168154Y174706D01*
X168928Y175000D01*
X168154Y175293D01*
X167100Y176021D01*
X166250Y176980D01*
X165655Y178115D01*
X165348Y179359D01*
X165348Y180640D01*
X165655Y181884D01*
X166250Y183019D01*
X167100Y183978D01*
X168154Y184706D01*
X169352Y185160D01*
X170625Y185315D01*
X171897Y185160D01*
X173095Y184706D01*
X174149Y183978D01*
X174999Y183019D01*
X175594Y181884D01*
X175901Y180640D01*
X175901Y179359D01*
X175594Y178115D01*
X174999Y176980D01*
X174149Y176021D01*
X173095Y175293D01*
X172321Y175000D01*
X173095Y174706D01*
X174149Y173978D01*
X174999Y173019D01*
X175594Y171884D01*
X175901Y170640D01*
X175901Y169359D01*
X175594Y168115D01*
X174999Y166980D01*
X174575Y166501D01*
X220164Y166501D01*
X216468Y170197D01*
X216468Y181161D01*
X220749Y185442D01*
X224241Y185442D01*
X224498Y186063D01*
X225258Y187054D01*
X226249Y187814D01*
X227403Y188292D01*
X228641Y188455D01*
X229880Y188292D01*
X231034Y187814D01*
X232024Y187054D01*
X232785Y186063D01*
X233263Y184909D01*
X233426Y183671D01*
X233263Y182432D01*
X232785Y181278D01*
X232024Y180288D01*
X231034Y179527D01*
X229880Y179049D01*
X228641Y178886D01*
X227403Y179049D01*
X226249Y179527D01*
X225258Y180288D01*
X224498Y181278D01*
X224241Y181899D01*
X222217Y181899D01*
X220012Y179694D01*
X220012Y176788D01*
X220337Y177211D01*
X221328Y177972D01*
X222482Y178450D01*
X223720Y178613D01*
X224958Y178450D01*
X226112Y177972D01*
X227103Y177211D01*
X227864Y176221D01*
X228342Y175067D01*
X228505Y173828D01*
X228342Y172590D01*
X227864Y171436D01*
X227103Y170445D01*
X226112Y169685D01*
X225441Y169407D01*
X231623Y169407D01*
X240037Y160993D01*
X240037Y150033D01*
X226151Y136148D01*
X226810Y135812D01*
X227517Y135105D01*
X227971Y134214D01*
X228128Y133226D01*
X227971Y132239D01*
X227517Y131348D01*
X226810Y130640D01*
X226408Y130435D01*
X226408Y125981D01*
X226703Y125686D01*
X226703Y124218D01*
X216516Y114031D01*
X216516Y88172D01*
X219793Y84895D01*
X220559Y85017D01*
X221608Y84851D01*
X222553Y84369D01*
X223304Y83618D01*
X223786Y82672D01*
X223952Y81624D01*
X223786Y80575D01*
X223304Y79629D01*
X222553Y78878D01*
X221608Y78396D01*
X220559Y78230D01*
X219510Y78396D01*
X218564Y78878D01*
X217814Y79629D01*
X217332Y80575D01*
X217166Y81624D01*
X217287Y82390D01*
X212973Y86704D01*
X212973Y112994D01*
X175012Y112994D01*
X175594Y111884D01*
X175622Y111771D01*
X194171Y111771D01*
X209951Y95991D01*
X209951Y70973D01*
X209754Y70776D01*
X209754Y43635D01*
X206232Y40113D01*
X206061Y40113D01*
X206464Y39487D01*
X206799Y38345D01*
X206799Y37156D01*
X206701Y36822D01*
X214817Y28705D01*
X214817Y14861D01*
X215577Y13984D01*
X216070Y12905D01*
X216420Y13671D01*
X217199Y14570D01*
X218199Y15214D01*
X219341Y15549D01*
X220530Y15549D01*
X221672Y15214D01*
X222672Y14570D01*
X223451Y13671D01*
X223946Y12589D01*
X224109Y11454D01*
X224109Y9795D01*
X223946Y8660D01*
X223451Y7578D01*
X222672Y6679D01*
X221672Y6035D01*
X220530Y5700D01*
X219341Y5700D01*
X218199Y6035D01*
X217199Y6679D01*
X216420Y7578D01*
X215927Y8656D01*
X215577Y7890D01*
X214798Y6991D01*
X213798Y6348D01*
X212656Y6013D01*
X211467Y6013D01*
X210325Y6348D01*
X210304Y6362D01*
X206198Y2255D01*
X79176Y2255D01*
X40549Y40882D01*
X40549Y39843D01*
X40214Y38701D01*
X39570Y37701D01*
X38671Y36922D01*
X37749Y36500D01*
X38671Y36079D01*
X39570Y35300D01*
X40214Y34300D01*
X40549Y33158D01*
X40549Y31969D01*
X40214Y30827D01*
X39570Y29827D01*
X38671Y29048D01*
X37589Y28553D01*
X36454Y28390D01*
X34795Y28390D01*
X33660Y28553D01*
X32578Y29048D01*
X31679Y29827D01*
X31438Y30201D01*
X19811Y30201D01*
X19570Y29827D01*
X18671Y29048D01*
X17589Y28553D01*
X16454Y28390D01*
X14795Y28390D01*
X13660Y28553D01*
X12578Y29048D01*
X11679Y29827D01*
X11035Y30827D01*
X10700Y31969D01*
X10700Y33158D01*
X11035Y34300D01*
X11679Y35300D01*
X12578Y36079D01*
X13500Y36500D01*
X12578Y36922D01*
X11679Y37701D01*
X11035Y38701D01*
X10700Y39843D01*
X10700Y41032D01*
X11035Y42174D01*
X11679Y43174D01*
X12578Y43953D01*
X13500Y44375D01*
X12578Y44796D01*
X11679Y45575D01*
X11035Y46575D01*
X10700Y47717D01*
X10700Y48906D01*
X11035Y50048D01*
X11679Y51048D01*
X12578Y51827D01*
X13500Y52249D01*
X12578Y52670D01*
X11679Y53449D01*
X11035Y54449D01*
X10700Y55591D01*
X10700Y56780D01*
X11035Y57922D01*
X11679Y58922D01*
X12578Y59701D01*
X13660Y60196D01*
X14795Y60359D01*
X16454Y60359D01*
X17589Y60196D01*
X18671Y59701D01*
X19570Y58922D01*
X20214Y57922D01*
X20549Y56780D01*
X20549Y55591D01*
X20214Y54449D01*
X19570Y53449D01*
X18671Y52670D01*
X17749Y52249D01*
X18671Y51827D01*
X19570Y51048D01*
X20214Y50048D01*
X20549Y48906D01*
X20549Y47717D01*
X20214Y46575D01*
X19570Y45575D01*
X18671Y44796D01*
X17749Y44375D01*
X18671Y43953D01*
X19570Y43174D01*
X19811Y42800D01*
X26514Y42800D01*
X26514Y62909D01*
X26290Y63133D01*
X25836Y64024D01*
X25680Y65011D01*
X25836Y65999D01*
X26290Y66890D01*
X26998Y67597D01*
X27889Y68051D01*
X28876Y68208D01*
X29864Y68051D01*
X30755Y67597D01*
X31462Y66890D01*
X31916Y65999D01*
X32073Y65011D01*
X31916Y64024D01*
X31462Y63133D01*
X31238Y62909D01*
X31238Y58238D01*
X31679Y58922D01*
X32578Y59701D01*
X33660Y60196D01*
X34795Y60359D01*
X36454Y60359D01*
X37589Y60196D01*
X38671Y59701D01*
X39570Y58922D01*
X40214Y57922D01*
X40549Y56780D01*
X40549Y55591D01*
X40214Y54449D01*
X39570Y53449D01*
X38671Y52670D01*
X37749Y52249D01*
X38671Y51827D01*
X39570Y51048D01*
X40214Y50048D01*
X40549Y48906D01*
X40549Y47717D01*
X40214Y46575D01*
X40078Y46364D01*
X80644Y5798D01*
X195385Y5798D01*
X194577Y6035D01*
X193577Y6679D01*
X192798Y7578D01*
X192303Y8660D01*
X192140Y9795D01*
X192140Y11454D01*
X192303Y12589D01*
X192798Y13671D01*
X193577Y14570D01*
X194577Y15214D01*
X194739Y15261D01*
X194739Y41453D01*
X196548Y43262D01*
X197688Y43262D01*
X197285Y43888D01*
X196950Y45030D01*
X196950Y46219D01*
X197285Y47361D01*
X197929Y48361D01*
X198828Y49140D01*
X199750Y49562D01*
X198828Y49983D01*
X197929Y50762D01*
X197285Y51762D01*
X196950Y52904D01*
X196950Y54093D01*
X197285Y55235D01*
X197929Y56235D01*
X198828Y57014D01*
X199910Y57509D01*
X201045Y57672D01*
X202704Y57672D01*
X203839Y57509D01*
X204921Y57014D01*
X205820Y56235D01*
X206464Y55235D01*
X206605Y54754D01*
X206605Y70776D01*
X206408Y70973D01*
X206408Y94523D01*
X192703Y108228D01*
X175622Y108228D01*
X175594Y108115D01*
X174999Y106980D01*
X174149Y106021D01*
X173095Y105293D01*
X172321Y105000D01*
X173095Y104706D01*
X174149Y103978D01*
X174999Y103019D01*
X175594Y101884D01*
X175901Y100640D01*
X175901Y99359D01*
X175594Y98115D01*
X175395Y97735D01*
X180325Y92804D01*
X180325Y73832D01*
X180433Y73777D01*
X181140Y73070D01*
X181594Y72179D01*
X181750Y71192D01*
X181594Y70204D01*
X181140Y69313D01*
X180433Y68606D01*
X179542Y68152D01*
X178554Y67995D01*
X177566Y68152D01*
X176675Y68606D01*
X175968Y69313D01*
X175901Y69444D01*
X175901Y69359D01*
X175594Y68115D01*
X174999Y66980D01*
X174149Y66021D01*
X173095Y65293D01*
X172321Y65000D01*
X173095Y64706D01*
X174149Y63978D01*
X174999Y63019D01*
X175594Y61884D01*
X175901Y60640D01*
X175901Y59359D01*
X175594Y58115D01*
X174999Y56980D01*
X174149Y56021D01*
X173095Y55293D01*
X172321Y55000D01*
X173095Y54706D01*
X174149Y53978D01*
X174999Y53019D01*
X175594Y51884D01*
X175901Y50640D01*
X175901Y49359D01*
X175594Y48115D01*
X174999Y46980D01*
X174149Y46021D01*
X173095Y45293D01*
X173037Y45271D01*
X174858Y45271D01*
X175896Y44233D01*
X175896Y35766D01*
X174858Y34728D01*
X167859Y34728D01*
X166520Y33389D01*
X77415Y33389D01*
X25546Y85258D01*
X25546Y79866D01*
X24508Y78828D01*
X16741Y78828D01*
X15703Y79866D01*
X15703Y86978D01*
X14626Y86978D01*
X15546Y86058D01*
X15546Y81441D01*
X12933Y78828D01*
X8316Y78828D01*
X5703Y81441D01*
X5703Y81978D01*
X4891Y81978D01*
X2165Y84704D01*
X2165Y16481D01*
X6579Y20895D01*
X15920Y20895D01*
X20895Y15920D01*
X20895Y6579D01*
X16481Y2165D01*
X259768Y2165D01*
X255354Y6579D01*
X250028Y26003D02*
X246628Y29403D01*
X246628Y35596D01*
X250028Y38996D01*
X256221Y38996D01*
X259621Y35596D01*
X259621Y29403D01*
X256221Y26003D01*
X250028Y26003D01*
X250028Y46003D02*
X246628Y49403D01*
X246628Y55596D01*
X250028Y58996D01*
X256221Y58996D01*
X259621Y55596D01*
X259621Y49403D01*
X256221Y46003D01*
X250028Y46003D01*
X257500Y75671D02*
X256390Y75847D01*
X255389Y76357D01*
X254595Y77151D01*
X254085Y78152D01*
X253909Y79261D01*
X254085Y80371D01*
X254595Y81371D01*
X255389Y82166D01*
X256390Y82676D01*
X257500Y82851D01*
X258609Y82676D01*
X259610Y82166D01*
X260404Y81371D01*
X260914Y80371D01*
X261090Y79261D01*
X260914Y78152D01*
X260404Y77151D01*
X259610Y76357D01*
X258609Y75847D01*
X257500Y75671D01*
X200288Y80243D02*
X199240Y80409D01*
X198294Y80891D01*
X197543Y81642D01*
X197061Y82588D01*
X196895Y83636D01*
X197016Y84402D01*
X181448Y99971D01*
X180681Y99850D01*
X179633Y100016D01*
X178687Y100498D01*
X177936Y101248D01*
X177454Y102194D01*
X177288Y103243D01*
X177454Y104291D01*
X177936Y105237D01*
X178687Y105988D01*
X179633Y106470D01*
X180681Y106636D01*
X181730Y106470D01*
X182676Y105988D01*
X183427Y105237D01*
X183909Y104291D01*
X184075Y103243D01*
X183953Y102476D01*
X199522Y86908D01*
X200288Y87029D01*
X201337Y86863D01*
X202283Y86381D01*
X203033Y85631D01*
X203515Y84685D01*
X203681Y83636D01*
X203515Y82588D01*
X203033Y81642D01*
X202283Y80891D01*
X201337Y80409D01*
X200288Y80243D01*
X257500Y106972D02*
X256433Y107125D01*
X255453Y107573D01*
X254639Y108278D01*
X254056Y109185D01*
X253752Y110219D01*
X253752Y111296D01*
X254056Y112330D01*
X254639Y113236D01*
X255453Y113942D01*
X256433Y114390D01*
X257500Y114543D01*
X258566Y114390D01*
X259546Y113942D01*
X260360Y113236D01*
X260943Y112330D01*
X261247Y111296D01*
X261247Y110219D01*
X260943Y109185D01*
X260360Y108278D01*
X259546Y107573D01*
X258566Y107125D01*
X257500Y106972D01*
X183720Y169044D02*
X182482Y169207D01*
X181328Y169685D01*
X180337Y170445D01*
X179576Y171436D01*
X179098Y172590D01*
X178935Y173828D01*
X179098Y175067D01*
X179576Y176221D01*
X180337Y177211D01*
X181328Y177972D01*
X182482Y178450D01*
X183720Y178613D01*
X184958Y178450D01*
X186112Y177972D01*
X187103Y177211D01*
X187864Y176221D01*
X188342Y175067D01*
X188505Y173828D01*
X188342Y172590D01*
X187864Y171436D01*
X187103Y170445D01*
X186112Y169685D01*
X184958Y169207D01*
X183720Y169044D01*
X211279Y169044D02*
X210041Y169207D01*
X208887Y169685D01*
X207896Y170445D01*
X207135Y171436D01*
X206657Y172590D01*
X206494Y173828D01*
X206657Y175067D01*
X207135Y176221D01*
X207896Y177211D01*
X208887Y177972D01*
X210041Y178450D01*
X211279Y178613D01*
X212517Y178450D01*
X213671Y177972D01*
X214662Y177211D01*
X215423Y176221D01*
X215901Y175067D01*
X216064Y173828D01*
X215901Y172590D01*
X215423Y171436D01*
X214662Y170445D01*
X213671Y169685D01*
X212517Y169207D01*
X211279Y169044D01*
X188641Y178886D02*
X187403Y179049D01*
X186249Y179527D01*
X185258Y180288D01*
X184498Y181278D01*
X184020Y182432D01*
X183857Y183671D01*
X184020Y184909D01*
X184498Y186063D01*
X185258Y187054D01*
X186249Y187814D01*
X187403Y188292D01*
X188641Y188455D01*
X189880Y188292D01*
X191034Y187814D01*
X192024Y187054D01*
X192785Y186063D01*
X193263Y184909D01*
X193426Y183671D01*
X193263Y182432D01*
X192785Y181278D01*
X192024Y180288D01*
X191034Y179527D01*
X189880Y179049D01*
X188641Y178886D01*
X206358Y178886D02*
X205119Y179049D01*
X203965Y179527D01*
X202975Y180288D01*
X202214Y181278D01*
X201736Y182432D01*
X201573Y183671D01*
X201736Y184909D01*
X202214Y186063D01*
X202975Y187054D01*
X203965Y187814D01*
X205119Y188292D01*
X206358Y188455D01*
X207596Y188292D01*
X208750Y187814D01*
X209741Y187054D01*
X210501Y186063D01*
X210979Y184909D01*
X211142Y183671D01*
X210979Y182432D01*
X210501Y181278D01*
X209741Y180288D01*
X208750Y179527D01*
X207596Y179049D01*
X206358Y178886D01*
X165126Y47006D02*
X165854Y47734D01*
X165655Y48115D01*
X165348Y49359D01*
X165348Y50640D01*
X165655Y51884D01*
X166250Y53019D01*
X167100Y53978D01*
X168154Y54706D01*
X168928Y55000D01*
X168154Y55293D01*
X167100Y56021D01*
X166250Y56980D01*
X165655Y58115D01*
X165348Y59359D01*
X165348Y60640D01*
X165655Y61884D01*
X166250Y63019D01*
X167100Y63978D01*
X168154Y64706D01*
X168928Y65000D01*
X168154Y65293D01*
X167100Y66021D01*
X166250Y66980D01*
X165655Y68115D01*
X165348Y69359D01*
X165348Y70640D01*
X165655Y71884D01*
X166250Y73019D01*
X167100Y73978D01*
X168154Y74706D01*
X168928Y75000D01*
X168154Y75293D01*
X167100Y76021D01*
X166250Y76980D01*
X165655Y78115D01*
X165348Y79359D01*
X165348Y80640D01*
X165655Y81884D01*
X166250Y83019D01*
X167100Y83978D01*
X168154Y84706D01*
X168928Y85000D01*
X168154Y85293D01*
X167100Y86021D01*
X166250Y86980D01*
X165655Y88115D01*
X165348Y89359D01*
X165348Y90640D01*
X165655Y91884D01*
X166250Y93019D01*
X167100Y93978D01*
X168154Y94706D01*
X168928Y95000D01*
X168154Y95293D01*
X167100Y96021D01*
X166250Y96980D01*
X165655Y98115D01*
X165348Y99359D01*
X165348Y100640D01*
X165655Y101884D01*
X166250Y103019D01*
X167100Y103978D01*
X168154Y104706D01*
X168928Y105000D01*
X168154Y105293D01*
X167100Y106021D01*
X166250Y106980D01*
X165655Y108115D01*
X165348Y109359D01*
X165348Y110640D01*
X165655Y111884D01*
X166010Y112561D01*
X136677Y83228D01*
X114814Y83228D01*
X114999Y83019D01*
X115594Y81884D01*
X115901Y80640D01*
X115901Y79359D01*
X115594Y78115D01*
X114999Y76980D01*
X114149Y76021D01*
X113095Y75293D01*
X112321Y75000D01*
X113095Y74706D01*
X114149Y73978D01*
X114999Y73019D01*
X115594Y71884D01*
X115901Y70640D01*
X115901Y69359D01*
X115594Y68115D01*
X114999Y66980D01*
X114149Y66021D01*
X113095Y65293D01*
X112321Y65000D01*
X113095Y64706D01*
X114149Y63978D01*
X114999Y63019D01*
X115594Y61884D01*
X115901Y60640D01*
X115901Y59359D01*
X115594Y58115D01*
X114999Y56980D01*
X114149Y56021D01*
X113095Y55293D01*
X112321Y55000D01*
X113095Y54706D01*
X114149Y53978D01*
X114999Y53019D01*
X115594Y51884D01*
X115901Y50640D01*
X115901Y49359D01*
X115594Y48115D01*
X115012Y47006D01*
X165126Y47006D01*
X47185Y75039D02*
X47185Y79515D01*
X46610Y79515D01*
X28433Y97692D01*
X27891Y97606D01*
X42287Y83210D01*
X42287Y79936D01*
X47185Y75039D01*
X87643Y59524D02*
X105854Y77734D01*
X105655Y78115D01*
X105348Y79359D01*
X105348Y79989D01*
X99836Y74478D01*
X87814Y74478D01*
X87814Y73744D01*
X85005Y70935D01*
X79994Y70935D01*
X79271Y71657D01*
X79271Y70516D01*
X76413Y67658D01*
X58482Y67658D01*
X55765Y70374D01*
X55765Y70935D01*
X51289Y70935D01*
X62700Y59524D01*
X87643Y59524D01*
X228125Y96875D02*
X228125Y108437D01*
X233437Y113750D01*
X233437Y135000D01*
X257812Y159375D01*
X257812Y179375D01*
X245937Y191250D01*
X136423Y191250D01*
X115173Y170000D01*
X205464Y4027D02*
X212062Y10625D01*
X205464Y4027D02*
X79910Y4027D01*
X35625Y48312D01*
X35625Y48312D01*
X35625Y32564D02*
X15625Y32564D01*
X15625Y40438D02*
X28876Y40438D01*
X28876Y65011D02*
X28876Y40438D01*
X35624Y40438D01*
G54D22*
X212062Y10937D02*
X212062Y27563D01*
X201875Y37750D01*
X75000Y50625D02*
X91250Y50625D01*
X110625Y70000D01*
G54D26*
X28876Y65011D03*
X178554Y71192D03*
X98621Y92524D03*
X220559Y81624D03*
X224931Y133226D03*
X180681Y103243D03*
X200288Y83636D03*
X181359Y124787D03*
X33015Y85453D03*
X230198Y161250D03*
X233160Y154511D03*
X212734Y155321D03*
X27667Y100964D03*
G54D27*
X246358Y183671D03*
X228641Y183671D03*
X251279Y173828D03*
X223720Y173828D03*
X206358Y183671D03*
X188641Y183671D03*
X211279Y173828D03*
X183720Y173828D03*
G54D28*
X110625Y40000D03*
X110625Y50000D03*
X110625Y60000D03*
X110625Y70000D03*
X110625Y80000D03*
X110625Y90000D03*
X110625Y100000D03*
X110625Y110000D03*
X110625Y120000D03*
X110625Y130000D03*
X110625Y140000D03*
X110625Y150000D03*
X110625Y160000D03*
X110625Y170000D03*
X110625Y180000D03*
X170625Y50000D03*
X170625Y60000D03*
X170625Y70000D03*
X170625Y80000D03*
X170625Y90000D03*
X170625Y100000D03*
X170625Y110000D03*
X170625Y120000D03*
X170625Y130000D03*
X170625Y140000D03*
X170625Y150000D03*
X170625Y160000D03*
X170625Y170000D03*
X170625Y180000D03*
G54D40*
X170625Y40000D03*
G54D41*
X52500Y76250D03*
G54D42*
X145000Y175312D03*
X228125Y96875D03*
X233437Y135000D03*
X75000Y50625D03*
G54D43*
X10625Y83750D03*
X20625Y93750D03*
X10625Y93750D03*
X20625Y103750D03*
X10625Y103750D03*
X20625Y113750D03*
X10625Y113750D03*
X20625Y123750D03*
X10625Y123750D03*
G54D44*
X52500Y86250D03*
X62500Y76250D03*
X62500Y86250D03*
X72500Y76250D03*
X72500Y86250D03*
X82500Y76250D03*
X82500Y86250D03*
G54D45*
X80625Y167500D03*
X50625Y167500D03*
G54D46*
X7391Y163592D03*
X7391Y143907D03*
X17234Y153750D03*
G54D47*
X253125Y52500D03*
X253125Y32500D03*
G54D48*
X265000Y186250D03*
X11250Y11250D03*
X11250Y186250D03*
X265000Y11250D03*
G54D49*
X219936Y10625D03*
X212062Y10937D03*
X204187Y10625D03*
X196313Y10625D03*
G54D50*
X201875Y53499D03*
X201875Y45625D03*
X201875Y37750D03*
X35625Y56186D03*
X35625Y48312D03*
X35625Y40437D03*
X35625Y32563D03*
X15625Y56186D03*
X15625Y48312D03*
X15625Y40437D03*
X15625Y32563D03*
G54D55*
X20625Y83750D03*
G36*
X47137Y75200D02*
X52500Y75200D01*
X52500Y77299D01*
X47137Y77299D01*
X47137Y75200D01*
G37*
G36*
X51450Y70887D02*
X53549Y70887D01*
X53549Y76250D01*
X51450Y76250D01*
X51450Y70887D01*
G37*
G36*
X44869Y166318D02*
X50625Y166318D01*
X50625Y168681D01*
X44869Y168681D01*
X44869Y166318D01*
G37*
G36*
X50625Y166318D02*
X56380Y166318D01*
X56380Y168681D01*
X50625Y168681D01*
X50625Y166318D01*
G37*
G36*
X49443Y161744D02*
X51806Y161744D01*
X51806Y167500D01*
X49443Y167500D01*
X49443Y161744D01*
G37*
G36*
X49443Y167500D02*
X51806Y167500D01*
X51806Y173255D01*
X49443Y173255D01*
X49443Y167500D01*
G37*
G36*
X219936Y10034D02*
X224117Y10034D01*
X224117Y11215D01*
X219936Y11215D01*
X219936Y10034D01*
G37*
G36*
X219345Y10625D02*
X220526Y10625D01*
X220526Y15593D01*
X219345Y15593D01*
X219345Y10625D01*
G37*
G36*
X219345Y5656D02*
X220526Y5656D01*
X220526Y10625D01*
X219345Y10625D01*
X219345Y5656D01*
G37*
G36*
X35034Y56186D02*
X36215Y56186D01*
X36215Y60367D01*
X35034Y60367D01*
X35034Y56186D01*
G37*
G36*
X35625Y55595D02*
X40593Y55595D01*
X40593Y56776D01*
X35625Y56776D01*
X35625Y55595D01*
G37*
G36*
X15034Y56186D02*
X16215Y56186D01*
X16215Y60367D01*
X15034Y60367D01*
X15034Y56186D01*
G37*
G36*
X10656Y55595D02*
X15625Y55595D01*
X15625Y56776D01*
X10656Y56776D01*
X10656Y55595D01*
G37*
G36*
X15625Y55595D02*
X20593Y55595D01*
X20593Y56776D01*
X15625Y56776D01*
X15625Y55595D01*
G37*
G36*
X6210Y137561D02*
X8572Y137561D01*
X8572Y143907D01*
X6210Y143907D01*
X6210Y137561D01*
G37*
G36*
X6210Y143907D02*
X8572Y143907D01*
X8572Y150253D01*
X6210Y150253D01*
X6210Y143907D01*
G37*
G36*
X7391Y142726D02*
X13738Y142726D01*
X13738Y145088D01*
X7391Y145088D01*
X7391Y142726D01*
G37*
G36*
X19443Y78781D02*
X21806Y78781D01*
X21806Y83750D01*
X19443Y83750D01*
X19443Y78781D01*
G37*
G36*
X15656Y82568D02*
X20625Y82568D01*
X20625Y84931D01*
X15656Y84931D01*
X15656Y82568D01*
G37*
G36*
X20625Y82568D02*
X25593Y82568D01*
X25593Y84931D01*
X20625Y84931D01*
X20625Y82568D01*
G37*
G36*
X9443Y123750D02*
X11806Y123750D01*
X11806Y128718D01*
X9443Y128718D01*
X9443Y123750D01*
G37*
G36*
X5656Y122568D02*
X10625Y122568D01*
X10625Y124931D01*
X5656Y124931D01*
X5656Y122568D01*
G37*
G36*
X10625Y122568D02*
X15593Y122568D01*
X15593Y124931D01*
X10625Y124931D01*
X10625Y122568D01*
G37*
G36*
X251943Y45956D02*
X254306Y45956D01*
X254306Y52500D01*
X251943Y52500D01*
X251943Y45956D01*
G37*
G36*
X251943Y52500D02*
X254306Y52500D01*
X254306Y59043D01*
X251943Y59043D01*
X251943Y52500D01*
G37*
G36*
X253125Y51318D02*
X259668Y51318D01*
X259668Y53681D01*
X253125Y53681D01*
X253125Y51318D01*
G37*
G36*
X246581Y51318D02*
X253125Y51318D01*
X253125Y53681D01*
X246581Y53681D01*
X246581Y51318D01*
G37*
G36*
X246492Y172647D02*
X251279Y172647D01*
X251279Y175009D01*
X246492Y175009D01*
X246492Y172647D01*
G37*
G36*
X250098Y169041D02*
X252460Y169041D01*
X252460Y173828D01*
X250098Y173828D01*
X250098Y169041D01*
G37*
G36*
X250098Y173828D02*
X252460Y173828D01*
X252460Y178616D01*
X250098Y178616D01*
X250098Y173828D01*
G37*
G36*
X206492Y172647D02*
X211279Y172647D01*
X211279Y175009D01*
X206492Y175009D01*
X206492Y172647D01*
G37*
G36*
X211279Y172647D02*
X216066Y172647D01*
X216066Y175009D01*
X211279Y175009D01*
X211279Y172647D01*
G37*
G36*
X210098Y169041D02*
X212460Y169041D01*
X212460Y173828D01*
X210098Y173828D01*
X210098Y169041D01*
G37*
G36*
X210098Y173828D02*
X212460Y173828D01*
X212460Y178616D01*
X210098Y178616D01*
X210098Y173828D01*
G37*
G36*
X135445Y193464D02*
X259266Y194538D01*
X259265Y194832D01*
X16984Y194832D01*
X16983Y194538D01*
X135445Y193464D01*
X135445Y193464D01*
G37*
G36*
X246922Y193464D02*
X259272Y194550D01*
X259259Y194833D01*
X135296Y193758D01*
X135298Y193464D01*
X246922Y193464D01*
X246922Y193464D01*
G37*
G36*
X20835Y190771D02*
X135593Y193468D01*
X135591Y193758D01*
X17033Y194833D01*
X16957Y194650D01*
X20835Y190771D01*
X20835Y190771D01*
G37*
G36*
X255395Y190752D02*
X259295Y194653D01*
X259208Y194841D01*
X246782Y193748D01*
X246755Y193508D01*
X255395Y190752D01*
X255395Y190752D01*
G37*
G36*
X110644Y185166D02*
X135612Y193512D01*
X135568Y193762D01*
X20750Y191065D01*
X20745Y190782D01*
X110644Y185166D01*
X110644Y185166D01*
G37*
G36*
X255319Y184999D02*
X255501Y185075D01*
X255501Y191028D01*
X246850Y193788D01*
X246729Y193589D01*
X255319Y184999D01*
X255319Y184999D01*
G37*
G36*
X109357Y185012D02*
X110776Y185185D01*
X110768Y185454D01*
X20757Y191077D01*
X20738Y190783D01*
X109357Y185012D01*
X109357Y185012D01*
G37*
G36*
X111913Y185010D02*
X135632Y193522D01*
X135536Y193798D01*
X110466Y185417D01*
X110490Y185183D01*
X111913Y185010D01*
X111913Y185010D01*
G37*
G36*
X108176Y184556D02*
X109516Y185065D01*
X109481Y185300D01*
X20758Y191077D01*
X20738Y190784D01*
X108176Y184556D01*
X108176Y184556D01*
G37*
G36*
X113096Y184548D02*
X135634Y193528D01*
X135531Y193800D01*
X111750Y185265D01*
X111748Y185059D01*
X113096Y184548D01*
X113096Y184548D01*
G37*
G36*
X107140Y183827D02*
X108324Y184644D01*
X108269Y184846D01*
X20759Y191078D01*
X20737Y190785D01*
X107140Y183827D01*
X107140Y183827D01*
G37*
G36*
X114134Y183809D02*
X135637Y193537D01*
X135524Y193802D01*
X112958Y184810D01*
X112938Y184635D01*
X114134Y183809D01*
X114134Y183809D01*
G37*
G36*
X106311Y182865D02*
X107271Y183949D01*
X107203Y184118D01*
X20761Y191079D01*
X20735Y190787D01*
X106311Y182865D01*
X106311Y182865D01*
G37*
G36*
X114965Y182835D02*
X135640Y193547D01*
X135515Y193805D01*
X113906Y184030D01*
X114965Y182835D01*
X114965Y182835D01*
G37*
G36*
X105739Y181727D02*
X106483Y183146D01*
X20763Y191081D01*
X20734Y190789D01*
X105739Y181727D01*
X105739Y181727D01*
G37*
G36*
X115536Y181678D02*
X135643Y193558D01*
X135504Y193809D01*
X114799Y183082D01*
X115536Y181678D01*
X115536Y181678D01*
G37*
G36*
X20748Y181430D02*
X105795Y181737D01*
X105809Y182016D01*
X20748Y191085D01*
X20748Y181430D01*
X20748Y181430D01*
G37*
G36*
X105463Y180491D02*
X105843Y182033D01*
X20748Y181726D01*
X20747Y181433D01*
X105463Y180491D01*
X105463Y180491D01*
G37*
G36*
X115808Y180401D02*
X135646Y193568D01*
X135493Y193812D01*
X115425Y181956D01*
X115808Y180401D01*
X115808Y180401D01*
G37*
G36*
X105496Y179207D02*
X105496Y180786D01*
X20750Y181728D01*
X20745Y181435D01*
X105496Y179207D01*
X105496Y179207D01*
G37*
G36*
X115915Y179186D02*
X135648Y193578D01*
X135483Y193815D01*
X115753Y180719D01*
X115753Y179268D01*
X115915Y179186D01*
X115915Y179186D01*
G37*
G36*
X105845Y177959D02*
X105464Y179503D01*
X20753Y181730D01*
X20743Y181437D01*
X105845Y177959D01*
X105845Y177959D01*
G37*
G36*
X115602Y177934D02*
X135650Y193585D01*
X135475Y193817D01*
X115771Y179446D01*
X115426Y178048D01*
X115602Y177934D01*
X115602Y177934D01*
G37*
G36*
X106328Y176828D02*
X106421Y176973D01*
X105746Y178259D01*
X20755Y181732D01*
X20741Y181439D01*
X106328Y176828D01*
X106328Y176828D01*
G37*
G36*
X114999Y176790D02*
X135651Y193589D01*
X135469Y193818D01*
X115479Y178211D01*
X114812Y176942D01*
X114999Y176790D01*
X114999Y176790D01*
G37*
G36*
X15822Y176456D02*
X106394Y176833D01*
X106401Y177120D01*
X20837Y181730D01*
X15746Y176638D01*
X15822Y176456D01*
X15822Y176456D01*
G37*
G36*
X107195Y175873D02*
X107274Y176047D01*
X106316Y177128D01*
X15773Y176751D01*
X15773Y176457D01*
X107195Y175873D01*
X107195Y175873D01*
G37*
G36*
X107247Y175872D02*
X107248Y176168D01*
X15921Y176751D01*
X6431Y176751D01*
X6431Y176457D01*
X107247Y175872D01*
X107247Y175872D01*
G37*
G36*
X114138Y175820D02*
X135652Y193592D01*
X135466Y193819D01*
X114896Y177087D01*
X113948Y176017D01*
X114138Y175820D01*
X114138Y175820D01*
G37*
G36*
X108262Y175144D02*
X108328Y175352D01*
X107146Y176168D01*
X6432Y176752D01*
X6430Y176458D01*
X108262Y175144D01*
X108262Y175144D01*
G37*
G36*
X109050Y174850D02*
X109096Y175094D01*
X108182Y175440D01*
X6433Y176753D01*
X6429Y176459D01*
X109050Y174850D01*
X109050Y174850D01*
G37*
G36*
X108180Y174558D02*
X109095Y174905D01*
X109052Y175145D01*
X6434Y176754D01*
X6429Y176459D01*
X108180Y174558D01*
X108180Y174558D01*
G37*
G36*
X113242Y174492D02*
X113242Y175507D01*
X112173Y175101D01*
X112173Y174898D01*
X113242Y174492D01*
X113242Y174492D01*
G37*
G36*
X113144Y174532D02*
X114344Y176028D01*
X114170Y176215D01*
X112947Y175370D01*
X112947Y174601D01*
X113144Y174532D01*
X113144Y174532D01*
G37*
G36*
X113088Y174507D02*
X135652Y193594D01*
X135464Y193819D01*
X114044Y176125D01*
X112896Y174694D01*
X113088Y174507D01*
X113088Y174507D01*
G37*
G36*
X107144Y173829D02*
X108327Y174646D01*
X108265Y174852D01*
X6434Y176754D01*
X6428Y176460D01*
X107144Y173829D01*
X107144Y173829D01*
G37*
G36*
X114163Y173790D02*
X135651Y193601D01*
X135460Y193818D01*
X112852Y174694D01*
X114163Y173790D01*
X114163Y173790D01*
G37*
G36*
X47917Y173060D02*
X107246Y173832D01*
X107248Y174122D01*
X6439Y176755D01*
X6423Y176468D01*
X47917Y173060D01*
X47917Y173060D01*
G37*
G36*
X53328Y173061D02*
X107249Y173833D01*
X107245Y174128D01*
X47774Y173354D01*
X47775Y173061D01*
X53328Y173061D01*
X53328Y173061D01*
G37*
G36*
X77924Y173061D02*
X107250Y173834D01*
X107244Y174128D01*
X53178Y173354D01*
X53180Y173061D01*
X77924Y173061D01*
X77924Y173061D01*
G37*
G36*
X83329Y173061D02*
X107252Y173835D01*
X107243Y174130D01*
X77773Y173352D01*
X77776Y173061D01*
X83329Y173061D01*
X83329Y173061D01*
G37*
G36*
X114923Y172882D02*
X135651Y193610D01*
X135451Y193818D01*
X113943Y173989D01*
X114923Y172882D01*
X114923Y172882D01*
G37*
G36*
X106316Y172871D02*
X107275Y173953D01*
X107192Y174129D01*
X83177Y173351D01*
X83181Y173062D01*
X106316Y172871D01*
X106316Y172871D01*
G37*
G36*
X105741Y171731D02*
X106493Y173165D01*
X83184Y173357D01*
X83174Y173069D01*
X105741Y171731D01*
X105741Y171731D01*
G37*
G36*
X105460Y170478D02*
X105840Y172021D01*
X83192Y173364D01*
X83167Y173078D01*
X105460Y170478D01*
X105460Y170478D01*
G37*
G36*
X44966Y170044D02*
X48093Y173170D01*
X48028Y173348D01*
X6450Y176763D01*
X6415Y176482D01*
X44966Y170044D01*
X44966Y170044D01*
G37*
G36*
X56281Y170045D02*
X78079Y173081D01*
X78060Y173356D01*
X53228Y173356D01*
X53153Y173174D01*
X56281Y170045D01*
X56281Y170045D01*
G37*
G36*
X74977Y170054D02*
X78102Y173179D01*
X78007Y173369D01*
X56176Y170329D01*
X56195Y170054D01*
X74977Y170054D01*
X74977Y170054D01*
G37*
G36*
X86273Y170053D02*
X105489Y170496D01*
X105502Y170771D01*
X83240Y173367D01*
X83148Y173178D01*
X86273Y170053D01*
X86273Y170053D01*
G37*
G36*
X4190Y169742D02*
X45052Y170055D01*
X45074Y170325D01*
X6478Y176770D01*
X4190Y169742D01*
X4190Y169742D01*
G37*
G36*
X4499Y169737D02*
X6747Y176644D01*
X2192Y181199D01*
X1999Y181096D01*
X4271Y169751D01*
X4499Y169737D01*
X4499Y169737D01*
G37*
G36*
X10390Y169744D02*
X45065Y170056D01*
X45062Y170351D01*
X4245Y170038D01*
X4247Y169744D01*
X10390Y169744D01*
X10390Y169744D01*
G37*
G36*
X105496Y169204D02*
X105496Y170791D01*
X86187Y170346D01*
X86184Y170061D01*
X105496Y169204D01*
X105496Y169204D01*
G37*
G36*
X105848Y167945D02*
X105465Y169501D01*
X86197Y170356D01*
X86175Y170070D01*
X105848Y167945D01*
X105848Y167945D01*
G37*
G36*
X2200Y167488D02*
X4554Y169843D01*
X2283Y181178D01*
X2017Y181151D01*
X2017Y167564D01*
X2200Y167488D01*
X2200Y167488D01*
G37*
G36*
X106317Y166820D02*
X106423Y166968D01*
X105749Y168253D01*
X86206Y170364D01*
X86168Y170079D01*
X106317Y166820D01*
X106317Y166820D01*
G37*
G36*
X13637Y166435D02*
X45072Y170071D01*
X45055Y170351D01*
X10289Y170038D01*
X10215Y169856D01*
X13637Y166435D01*
X13637Y166435D01*
G37*
G36*
X107175Y165855D02*
X107281Y166039D01*
X106326Y167117D01*
X86214Y170371D01*
X86162Y170086D01*
X107175Y165855D01*
X107175Y165855D01*
G37*
G36*
X108241Y165122D02*
X108338Y165345D01*
X107159Y166160D01*
X86219Y170375D01*
X86158Y170090D01*
X108241Y165122D01*
X108241Y165122D01*
G37*
G36*
X109029Y164825D02*
X109109Y165089D01*
X108197Y165435D01*
X86222Y170378D01*
X86157Y170091D01*
X109029Y164825D01*
X109029Y164825D01*
G37*
G36*
X45063Y164641D02*
X45063Y170368D01*
X13539Y166721D01*
X13547Y166450D01*
X45063Y164641D01*
X45063Y164641D01*
G37*
G36*
X56186Y164600D02*
X75080Y170096D01*
X75044Y170349D01*
X56186Y170349D01*
X56186Y164600D01*
X56186Y164600D01*
G37*
G36*
X75063Y164650D02*
X75063Y170399D01*
X56169Y164903D01*
X56205Y164650D01*
X75063Y164650D01*
X75063Y164650D01*
G37*
G36*
X86186Y164648D02*
X109061Y164853D01*
X109089Y165114D01*
X86186Y170387D01*
X86186Y164648D01*
X86186Y164648D01*
G37*
G36*
X108181Y164558D02*
X109096Y164905D01*
X109050Y165148D01*
X86185Y164943D01*
X86186Y164650D01*
X108181Y164558D01*
X108181Y164558D01*
G37*
G36*
X107143Y163829D02*
X108327Y164646D01*
X108263Y164853D01*
X86189Y164945D01*
X86182Y164655D01*
X107143Y163829D01*
X107143Y163829D01*
G37*
G36*
X106311Y162865D02*
X107272Y163950D01*
X107199Y164122D01*
X86195Y164950D01*
X86177Y164663D01*
X106311Y162865D01*
X106311Y162865D01*
G37*
G36*
X105736Y161723D02*
X106484Y163146D01*
X86204Y164957D01*
X86170Y164673D01*
X105736Y161723D01*
X105736Y161723D01*
G37*
G36*
X48007Y161630D02*
X48102Y161820D01*
X44980Y164941D01*
X13557Y166745D01*
X13530Y166463D01*
X48007Y161630D01*
X48007Y161630D01*
G37*
G36*
X53242Y161630D02*
X75073Y164670D01*
X75054Y164945D01*
X56272Y164945D01*
X53147Y161820D01*
X53242Y161630D01*
X53242Y161630D01*
G37*
G36*
X78021Y161643D02*
X78096Y161825D01*
X74968Y164954D01*
X53170Y161918D01*
X53189Y161643D01*
X78021Y161643D01*
X78021Y161643D01*
G37*
G36*
X83229Y161643D02*
X105792Y161737D01*
X105812Y162010D01*
X86281Y164954D01*
X83153Y161825D01*
X83229Y161643D01*
X83229Y161643D01*
G37*
G36*
X105462Y160486D02*
X105843Y162033D01*
X83183Y161938D01*
X83176Y161651D01*
X105462Y160486D01*
X105462Y160486D01*
G37*
G36*
X105490Y160490D02*
X105501Y160780D01*
X83331Y161938D01*
X47776Y161938D01*
X47773Y161646D01*
X105490Y160490D01*
X105490Y160490D01*
G37*
G36*
X13543Y160442D02*
X48063Y161648D01*
X48077Y161918D01*
X13543Y166759D01*
X13543Y160442D01*
X13543Y160442D01*
G37*
G36*
X13545Y160447D02*
X105494Y160493D01*
X105497Y160785D01*
X47921Y161939D01*
X13540Y160737D01*
X13545Y160447D01*
X13545Y160447D01*
G37*
G36*
X14175Y159901D02*
X105496Y160494D01*
X105495Y160788D01*
X13592Y160742D01*
X13516Y160560D01*
X14175Y159901D01*
X14175Y159901D01*
G37*
G36*
X20232Y159901D02*
X105497Y160494D01*
X105495Y160789D01*
X14088Y160195D01*
X14089Y159901D01*
X20232Y159901D01*
X20232Y159901D01*
G37*
G36*
X105496Y159210D02*
X105496Y160789D01*
X20084Y160195D01*
X20084Y159902D01*
X105496Y159210D01*
X105496Y159210D01*
G37*
G36*
X105844Y157963D02*
X105464Y159506D01*
X20086Y160198D01*
X20082Y159904D01*
X105844Y157963D01*
X105844Y157963D01*
G37*
G36*
X10364Y157094D02*
X14464Y160030D01*
X13690Y160803D01*
X10188Y157301D01*
X10364Y157094D01*
X10364Y157094D01*
G37*
G36*
X106499Y156823D02*
X105745Y158260D01*
X20088Y160200D01*
X20080Y159906D01*
X106499Y156823D01*
X106499Y156823D01*
G37*
G36*
X10935Y156538D02*
X14437Y160040D01*
X14261Y160248D01*
X10161Y157311D01*
X10935Y156538D01*
X10935Y156538D01*
G37*
G36*
X11025Y156591D02*
X11112Y156779D01*
X10450Y157440D01*
X4252Y157440D01*
X4240Y157157D01*
X11025Y156591D01*
X11025Y156591D01*
G37*
G36*
X23472Y156599D02*
X106395Y156833D01*
X106400Y157122D01*
X20136Y160200D01*
X20056Y160015D01*
X23472Y156599D01*
X23472Y156599D01*
G37*
G36*
X107194Y155872D02*
X107274Y156047D01*
X106316Y157128D01*
X23386Y156894D01*
X23385Y156601D01*
X107194Y155872D01*
X107194Y155872D01*
G37*
G36*
X108261Y155143D02*
X108328Y155352D01*
X107146Y156168D01*
X23387Y156896D01*
X23383Y156602D01*
X108261Y155143D01*
X108261Y155143D01*
G37*
G36*
X109049Y154849D02*
X109097Y155093D01*
X108183Y155440D01*
X23388Y156897D01*
X23383Y156603D01*
X109049Y154849D01*
X109049Y154849D01*
G37*
G36*
X108180Y154558D02*
X109094Y154905D01*
X109053Y155145D01*
X23389Y156898D01*
X23382Y156603D01*
X108180Y154558D01*
X108180Y154558D01*
G37*
G36*
X107144Y153829D02*
X108326Y154645D01*
X108265Y154851D01*
X23390Y156898D01*
X23381Y156604D01*
X107144Y153829D01*
X107144Y153829D01*
G37*
G36*
X106314Y152868D02*
X107272Y153950D01*
X107198Y154123D01*
X23391Y156900D01*
X23380Y156606D01*
X106314Y152868D01*
X106314Y152868D01*
G37*
G36*
X105741Y151731D02*
X106489Y153156D01*
X23393Y156901D01*
X23378Y156608D01*
X105741Y151731D01*
X105741Y151731D01*
G37*
G36*
X23385Y151623D02*
X105798Y151737D01*
X105806Y152023D01*
X23385Y156904D01*
X23385Y151623D01*
X23385Y151623D01*
G37*
G36*
X105742Y151624D02*
X105843Y152032D01*
X23385Y151919D01*
X23385Y151624D01*
X105742Y151624D01*
X105742Y151624D01*
G37*
G36*
X10900Y150578D02*
X11082Y150653D01*
X11082Y156883D01*
X4303Y157449D01*
X4216Y157261D01*
X10900Y150578D01*
X10900Y150578D01*
G37*
G36*
X10935Y150543D02*
X11143Y150752D01*
X4498Y157397D01*
X2165Y159730D01*
X1956Y159521D01*
X10935Y150543D01*
X10935Y150543D01*
G37*
G36*
X4280Y150049D02*
X11041Y150613D01*
X11106Y150790D01*
X2190Y159705D01*
X1995Y159596D01*
X4280Y150049D01*
X4280Y150049D01*
G37*
G36*
X10450Y150059D02*
X11112Y150720D01*
X11025Y150908D01*
X4240Y150342D01*
X4252Y150059D01*
X10450Y150059D01*
X10450Y150059D01*
G37*
G36*
X105843Y147967D02*
X105742Y148375D01*
X20861Y148375D01*
X20861Y148080D01*
X105843Y147967D01*
X105843Y147967D01*
G37*
G36*
X2200Y147803D02*
X4556Y150160D01*
X2278Y159683D01*
X2017Y159653D01*
X2017Y147879D01*
X2200Y147803D01*
X2200Y147803D01*
G37*
G36*
X14261Y147251D02*
X14437Y147459D01*
X10935Y150961D01*
X10161Y150188D01*
X14261Y147251D01*
X14261Y147251D01*
G37*
G36*
X20133Y147302D02*
X105803Y147968D01*
X105802Y148262D01*
X20948Y148376D01*
X20057Y147485D01*
X20133Y147302D01*
X20133Y147302D01*
G37*
G36*
X51159Y147103D02*
X105804Y147969D01*
X105800Y148263D01*
X20084Y147597D01*
X20084Y147304D01*
X51159Y147103D01*
X51159Y147103D01*
G37*
G36*
X51305Y147103D02*
X51307Y147398D01*
X20232Y147598D01*
X14089Y147598D01*
X14088Y147303D01*
X51305Y147103D01*
X51305Y147103D01*
G37*
G36*
X106352Y147103D02*
X105743Y148264D01*
X51010Y147396D01*
X51012Y147103D01*
X106352Y147103D01*
X106352Y147103D01*
G37*
G36*
X13690Y146696D02*
X14464Y147469D01*
X10364Y150405D01*
X10188Y150198D01*
X13690Y146696D01*
X13690Y146696D01*
G37*
G36*
X13593Y146756D02*
X51306Y147105D01*
X51306Y147398D01*
X14175Y147598D01*
X13516Y146939D01*
X13593Y146756D01*
X13593Y146756D01*
G37*
G36*
X13543Y140735D02*
X51318Y147128D01*
X51294Y147400D01*
X13543Y147051D01*
X13543Y140735D01*
X13543Y140735D01*
G37*
G36*
X10314Y137438D02*
X51332Y147140D01*
X51275Y147420D01*
X13619Y141047D01*
X10206Y137633D01*
X10314Y137438D01*
X10314Y137438D01*
G37*
G36*
X8291Y128499D02*
X51341Y147169D01*
X51256Y147426D01*
X10266Y137730D01*
X8151Y128616D01*
X8291Y128499D01*
X8291Y128499D01*
G37*
G36*
X8223Y128514D02*
X8436Y128534D01*
X10575Y137755D01*
X4168Y137755D01*
X8223Y128514D01*
X8223Y128514D01*
G37*
G36*
X8255Y128476D02*
X8508Y128601D01*
X4518Y137693D01*
X2179Y140031D01*
X1974Y139877D01*
X8255Y128476D01*
X8255Y128476D01*
G37*
G36*
X12967Y128523D02*
X51353Y147181D01*
X51232Y147444D01*
X8147Y128758D01*
X8196Y128523D01*
X12967Y128523D01*
X12967Y128523D01*
G37*
G36*
X18355Y128523D02*
X51356Y147193D01*
X51223Y147446D01*
X12763Y128752D01*
X12816Y128523D01*
X18355Y128523D01*
X18355Y128523D01*
G37*
G36*
X22977Y128523D02*
X51359Y147206D01*
X51210Y147450D01*
X18144Y128743D01*
X18202Y128523D01*
X22977Y128523D01*
X22977Y128523D01*
G37*
G36*
X5747Y125893D02*
X8499Y128645D01*
X2231Y140022D01*
X1990Y139926D01*
X5582Y125938D01*
X5747Y125893D01*
X5747Y125893D01*
G37*
G36*
X15543Y125852D02*
X18490Y128632D01*
X18416Y128818D01*
X12834Y128818D01*
X12759Y128636D01*
X15543Y125852D01*
X15543Y125852D01*
G37*
G36*
X15764Y125911D02*
X18523Y128669D01*
X18320Y128878D01*
X15372Y126097D01*
X15446Y125911D01*
X15764Y125911D01*
X15764Y125911D01*
G37*
G36*
X25536Y125859D02*
X51360Y147226D01*
X51194Y147451D01*
X22701Y128694D01*
X25536Y125859D01*
X25536Y125859D01*
G37*
G36*
X25580Y121464D02*
X51363Y147246D01*
X51173Y147455D01*
X25398Y126128D01*
X25398Y121540D01*
X25580Y121464D01*
X25580Y121464D01*
G37*
G36*
X5584Y121281D02*
X5851Y121307D01*
X5851Y126077D01*
X2272Y140012D01*
X1993Y139949D01*
X5584Y121281D01*
X5584Y121281D01*
G37*
G36*
X15688Y121291D02*
X15856Y126206D01*
X15398Y126206D01*
X15398Y121296D01*
X15688Y121291D01*
X15688Y121291D01*
G37*
G36*
X15851Y121293D02*
X15851Y126203D01*
X15561Y126208D01*
X15393Y121293D01*
X15851Y121293D01*
X15851Y121293D01*
G37*
G36*
X6722Y120374D02*
X6797Y120556D01*
X5730Y121623D01*
X5536Y121518D01*
X5784Y120374D01*
X6722Y120374D01*
X6722Y120374D01*
G37*
G36*
X14614Y120317D02*
X15877Y121395D01*
X15806Y121588D01*
X15485Y121588D01*
X14421Y120525D01*
X14614Y120317D01*
X14614Y120317D01*
G37*
G36*
X16722Y120374D02*
X16797Y120556D01*
X15711Y121642D01*
X14452Y120567D01*
X14523Y120374D01*
X16722Y120374D01*
X16722Y120374D01*
G37*
G36*
X2218Y116610D02*
X5861Y121404D01*
X2284Y139996D01*
X2017Y139971D01*
X2017Y116677D01*
X2218Y116610D01*
X2218Y116610D01*
G37*
G36*
X2172Y116581D02*
X6064Y120474D01*
X5827Y121565D01*
X5643Y121605D01*
X1964Y116763D01*
X2172Y116581D01*
X2172Y116581D01*
G37*
G36*
X2199Y116609D02*
X6112Y120521D01*
X5903Y120730D01*
X1905Y116732D01*
X2199Y116609D01*
X2199Y116609D01*
G37*
G36*
X188641Y188308D02*
X245107Y188741D01*
X245106Y189035D01*
X137255Y189035D01*
X137253Y188741D01*
X188641Y188308D01*
X188641Y188308D01*
G37*
G36*
X206359Y188308D02*
X245108Y188741D01*
X245105Y189036D01*
X188493Y188602D01*
X188494Y188308D01*
X206359Y188308D01*
X206359Y188308D01*
G37*
G36*
X228643Y188308D02*
X245109Y188744D01*
X245103Y189037D01*
X206209Y188601D01*
X206211Y188308D01*
X228643Y188308D01*
X228643Y188308D01*
G37*
G36*
X245601Y188195D02*
X245677Y188377D01*
X245018Y189037D01*
X228492Y188599D01*
X228495Y188309D01*
X245601Y188195D01*
X245601Y188195D01*
G37*
G36*
X187412Y188145D02*
X188797Y188327D01*
X188780Y188602D01*
X137255Y189036D01*
X137252Y188741D01*
X187412Y188145D01*
X187412Y188145D01*
G37*
G36*
X189871Y188145D02*
X206506Y188309D01*
X206505Y188603D01*
X188503Y188603D01*
X188485Y188327D01*
X189871Y188145D01*
X189871Y188145D01*
G37*
G36*
X205129Y188145D02*
X206515Y188327D01*
X206495Y188604D01*
X189731Y188439D01*
X189733Y188145D01*
X205129Y188145D01*
X205129Y188145D01*
G37*
G36*
X207587Y188145D02*
X228789Y188309D01*
X228788Y188603D01*
X206219Y188603D01*
X206201Y188327D01*
X207587Y188145D01*
X207587Y188145D01*
G37*
G36*
X227413Y188145D02*
X228798Y188327D01*
X228779Y188604D01*
X207448Y188439D01*
X207449Y188145D01*
X227413Y188145D01*
X227413Y188145D01*
G37*
G36*
X229870Y188145D02*
X245650Y188196D01*
X245651Y188489D01*
X228503Y188604D01*
X228484Y188327D01*
X229870Y188145D01*
X229870Y188145D01*
G37*
G36*
X245129Y188145D02*
X245660Y188215D01*
X245641Y188491D01*
X229732Y188440D01*
X229732Y188145D01*
X245129Y188145D01*
X245129Y188145D01*
G37*
G36*
X186277Y187666D02*
X187571Y188202D01*
X187525Y188439D01*
X137256Y189037D01*
X137251Y188743D01*
X186277Y187666D01*
X186277Y187666D01*
G37*
G36*
X191007Y187666D02*
X205269Y188150D01*
X205265Y188440D01*
X189758Y188440D01*
X189711Y188202D01*
X191007Y187666D01*
X191007Y187666D01*
G37*
G36*
X203995Y187667D02*
X205290Y188203D01*
X205238Y188444D01*
X190883Y187957D01*
X190888Y187667D01*
X203995Y187667D01*
X203995Y187667D01*
G37*
G36*
X208723Y187666D02*
X227552Y188148D01*
X227549Y188440D01*
X207475Y188440D01*
X207428Y188202D01*
X208723Y187666D01*
X208723Y187666D01*
G37*
G36*
X226278Y187667D02*
X227573Y188203D01*
X227522Y188443D01*
X208601Y187958D01*
X208604Y187667D01*
X226278Y187667D01*
X226278Y187667D01*
G37*
G36*
X231007Y187666D02*
X245269Y188150D01*
X245265Y188440D01*
X229758Y188440D01*
X229711Y188202D01*
X231007Y187666D01*
X231007Y187666D01*
G37*
G36*
X243995Y187667D02*
X245290Y188203D01*
X245238Y188444D01*
X230883Y187957D01*
X230888Y187667D01*
X243995Y187667D01*
X243995Y187667D01*
G37*
G36*
X185306Y186904D02*
X186422Y187761D01*
X186357Y187960D01*
X137258Y189038D01*
X137250Y188745D01*
X185306Y186904D01*
X185306Y186904D01*
G37*
G36*
X191979Y186903D02*
X204118Y187676D01*
X204108Y187962D01*
X190928Y187962D01*
X190860Y187762D01*
X191979Y186903D01*
X191979Y186903D01*
G37*
G36*
X203025Y186906D02*
X204142Y187764D01*
X204065Y187969D01*
X191872Y187192D01*
X191881Y186906D01*
X203025Y186906D01*
X203025Y186906D01*
G37*
G36*
X209694Y186904D02*
X226400Y187674D01*
X226393Y187962D01*
X208644Y187962D01*
X208576Y187762D01*
X209694Y186904D01*
X209694Y186904D01*
G37*
G36*
X225308Y186906D02*
X226425Y187763D01*
X226350Y187967D01*
X209590Y187195D01*
X209597Y186906D01*
X225308Y186906D01*
X225308Y186906D01*
G37*
G36*
X231979Y186903D02*
X244118Y187676D01*
X244108Y187962D01*
X230928Y187962D01*
X230860Y187762D01*
X231979Y186903D01*
X231979Y186903D01*
G37*
G36*
X243025Y186906D02*
X244142Y187764D01*
X244065Y187969D01*
X231872Y187192D01*
X231881Y186906D01*
X243025Y186906D01*
X243025Y186906D01*
G37*
G36*
X184567Y185911D02*
X185430Y187035D01*
X185353Y187198D01*
X137261Y189040D01*
X137247Y188749D01*
X184567Y185911D01*
X184567Y185911D01*
G37*
G36*
X192718Y185908D02*
X203129Y186921D01*
X203115Y187202D01*
X191933Y187202D01*
X191851Y187037D01*
X192718Y185908D01*
X192718Y185908D01*
G37*
G36*
X202287Y185915D02*
X203151Y187041D01*
X203057Y187210D01*
X192631Y186196D01*
X192644Y185915D01*
X202287Y185915D01*
X202287Y185915D01*
G37*
G36*
X210432Y185910D02*
X225410Y186916D01*
X225401Y187202D01*
X209649Y187202D01*
X209568Y187037D01*
X210432Y185910D01*
X210432Y185910D01*
G37*
G36*
X224570Y185915D02*
X225433Y187040D01*
X225343Y187208D01*
X210349Y186201D01*
X210359Y185915D01*
X224570Y185915D01*
X224570Y185915D01*
G37*
G36*
X232718Y185908D02*
X243129Y186921D01*
X243115Y187202D01*
X231933Y187202D01*
X231851Y187037D01*
X232718Y185908D01*
X232718Y185908D01*
G37*
G36*
X242287Y185915D02*
X243151Y187041D01*
X243057Y187210D01*
X232631Y186196D01*
X232644Y185915D01*
X242287Y185915D01*
X242287Y185915D01*
G37*
G36*
X220757Y185294D02*
X224656Y185940D01*
X224634Y186211D01*
X210358Y186211D01*
X210349Y185924D01*
X220757Y185294D01*
X220757Y185294D01*
G37*
G36*
X224339Y185295D02*
X224667Y186087D01*
X224559Y186223D01*
X220591Y185566D01*
X220613Y185295D01*
X224339Y185295D01*
X224339Y185295D01*
G37*
G36*
X170621Y185167D02*
X184645Y185923D01*
X184646Y186202D01*
X137266Y189043D01*
X137242Y188756D01*
X170621Y185167D01*
X170621Y185167D01*
G37*
G36*
X169353Y185012D02*
X170773Y185184D01*
X170771Y185448D01*
X137271Y189050D01*
X137238Y188758D01*
X169353Y185012D01*
X169353Y185012D01*
G37*
G36*
X171893Y185012D02*
X184654Y185926D01*
X184636Y186218D01*
X170481Y185455D01*
X170472Y185185D01*
X171893Y185012D01*
X171893Y185012D01*
G37*
G36*
X184117Y184759D02*
X184726Y186227D01*
X171745Y185298D01*
X171753Y185016D01*
X184117Y184759D01*
X184117Y184759D01*
G37*
G36*
X193170Y184748D02*
X202370Y185934D01*
X202353Y186211D01*
X192564Y186211D01*
X193170Y184748D01*
X193170Y184748D01*
G37*
G36*
X201835Y184761D02*
X202448Y186242D01*
X193107Y185038D01*
X193124Y184761D01*
X201835Y184761D01*
X201835Y184761D01*
G37*
G36*
X210883Y184756D02*
X220897Y185303D01*
X220897Y185581D01*
X210275Y186225D01*
X210883Y184756D01*
X210883Y184756D01*
G37*
G36*
X233170Y184748D02*
X242370Y185934D01*
X242353Y186211D01*
X232564Y186211D01*
X233170Y184748D01*
X233170Y184748D01*
G37*
G36*
X241835Y184761D02*
X242448Y186242D01*
X233107Y185038D01*
X233124Y184761D01*
X241835Y184761D01*
X241835Y184761D01*
G37*
G36*
X168172Y184555D02*
X169513Y185063D01*
X169485Y185294D01*
X137273Y189051D01*
X137237Y188761D01*
X168172Y184555D01*
X168172Y184555D01*
G37*
G36*
X173069Y184558D02*
X184167Y184764D01*
X184167Y185054D01*
X171775Y185311D01*
X171728Y185066D01*
X173069Y184558D01*
X173069Y184558D01*
G37*
G36*
X167135Y183823D02*
X168321Y184642D01*
X168274Y184839D01*
X137277Y189053D01*
X137234Y188765D01*
X167135Y183823D01*
X167135Y183823D01*
G37*
G36*
X174110Y183826D02*
X184175Y184775D01*
X184159Y185059D01*
X172984Y184852D01*
X172922Y184646D01*
X174110Y183826D01*
X174110Y183826D01*
G37*
G36*
X183986Y183519D02*
X184190Y185073D01*
X173997Y184112D01*
X174006Y183835D01*
X183986Y183519D01*
X183986Y183519D01*
G37*
G36*
X201700Y183503D02*
X201905Y185057D01*
X193126Y185057D01*
X193105Y184783D01*
X201700Y183503D01*
X201700Y183503D01*
G37*
G36*
X241700Y183503D02*
X241905Y185057D01*
X233126Y185057D01*
X233105Y184783D01*
X241700Y183503D01*
X241700Y183503D01*
G37*
G36*
X193296Y183523D02*
X201710Y183523D01*
X201731Y183797D01*
X193091Y185084D01*
X193296Y183523D01*
X193296Y183523D01*
G37*
G36*
X211016Y183497D02*
X220912Y185322D01*
X220880Y185597D01*
X210812Y185048D01*
X211016Y183497D01*
X211016Y183497D01*
G37*
G36*
X233296Y183523D02*
X241710Y183523D01*
X241731Y183797D01*
X233091Y185084D01*
X233296Y183523D01*
X233296Y183523D01*
G37*
G36*
X166304Y182857D02*
X167268Y183945D01*
X167210Y184110D01*
X137283Y189057D01*
X137230Y188772D01*
X166304Y182857D01*
X166304Y182857D01*
G37*
G36*
X174937Y182866D02*
X184007Y183534D01*
X184001Y183814D01*
X174057Y184129D01*
X173974Y183953D01*
X174937Y182866D01*
X174937Y182866D01*
G37*
G36*
X184189Y182273D02*
X183985Y183828D01*
X174851Y183156D01*
X174852Y182881D01*
X184189Y182273D01*
X184189Y182273D01*
G37*
G36*
X193091Y182258D02*
X201731Y183545D01*
X201710Y183818D01*
X193296Y183818D01*
X193091Y182258D01*
X193091Y182258D01*
G37*
G36*
X201905Y182285D02*
X201700Y183839D01*
X193105Y182558D01*
X193126Y182285D01*
X201905Y182285D01*
X201905Y182285D01*
G37*
G36*
X210803Y182224D02*
X220926Y185342D01*
X220860Y185613D01*
X211010Y183796D01*
X210803Y182224D01*
X210803Y182224D01*
G37*
G36*
X233091Y182258D02*
X241731Y183545D01*
X241710Y183818D01*
X233296Y183818D01*
X233091Y182258D01*
X233091Y182258D01*
G37*
G36*
X241905Y182285D02*
X241700Y183839D01*
X233105Y182558D01*
X233126Y182285D01*
X241905Y182285D01*
X241905Y182285D01*
G37*
G36*
X165731Y181713D02*
X166472Y183124D01*
X137289Y189061D01*
X137226Y188779D01*
X165731Y181713D01*
X165731Y181713D01*
G37*
G36*
X175508Y181731D02*
X184167Y182294D01*
X184167Y182571D01*
X174922Y183172D01*
X174828Y183027D01*
X175508Y181731D01*
X175508Y181731D01*
G37*
G36*
X184725Y181115D02*
X184116Y182587D01*
X175447Y182023D01*
X175447Y181746D01*
X184725Y181115D01*
X184725Y181115D01*
G37*
G36*
X192551Y181099D02*
X201892Y182304D01*
X201875Y182580D01*
X193164Y182580D01*
X192551Y181099D01*
X192551Y181099D01*
G37*
G36*
X202435Y181131D02*
X201829Y182593D01*
X192629Y181407D01*
X192646Y181131D01*
X202435Y181131D01*
X202435Y181131D01*
G37*
G36*
X210466Y181105D02*
X220936Y185359D01*
X220841Y185625D01*
X210870Y182553D01*
X210327Y181244D01*
X210466Y181105D01*
X210466Y181105D01*
G37*
G36*
X224548Y181112D02*
X224669Y181250D01*
X224339Y182047D01*
X222088Y182047D01*
X222054Y181791D01*
X224548Y181112D01*
X224548Y181112D01*
G37*
G36*
X232551Y181099D02*
X241892Y182304D01*
X241875Y182580D01*
X233164Y182580D01*
X232551Y181099D01*
X232551Y181099D01*
G37*
G36*
X242435Y181131D02*
X241829Y182593D01*
X232629Y181407D01*
X232646Y181131D01*
X242435Y181131D01*
X242435Y181131D01*
G37*
G36*
X216528Y181012D02*
X220939Y185423D01*
X220806Y185625D01*
X210334Y181370D01*
X210378Y181133D01*
X216528Y181012D01*
X216528Y181012D01*
G37*
G36*
X165454Y180455D02*
X165833Y181992D01*
X137297Y189065D01*
X137221Y188787D01*
X165454Y180455D01*
X165454Y180455D01*
G37*
G36*
X175788Y180484D02*
X184646Y181141D01*
X184645Y181416D01*
X175403Y182045D01*
X175788Y180484D01*
X175788Y180484D01*
G37*
G36*
X185346Y180136D02*
X185432Y180303D01*
X184566Y181432D01*
X175751Y180777D01*
X175756Y180498D01*
X185346Y180136D01*
X185346Y180136D01*
G37*
G36*
X191942Y180131D02*
X202368Y181145D01*
X202355Y181426D01*
X192712Y181426D01*
X191848Y180301D01*
X191942Y180131D01*
X191942Y180131D01*
G37*
G36*
X203066Y180140D02*
X203148Y180305D01*
X202281Y181433D01*
X191870Y180421D01*
X191884Y180140D01*
X203066Y180140D01*
X203066Y180140D01*
G37*
G36*
X209662Y180128D02*
X216623Y181032D01*
X216608Y181306D01*
X210430Y181428D01*
X209564Y180299D01*
X209662Y180128D01*
X209662Y180128D01*
G37*
G36*
X225294Y180101D02*
X225448Y180283D01*
X224584Y181408D01*
X222128Y182076D01*
X222031Y181831D01*
X225294Y180101D01*
X225294Y180101D01*
G37*
G36*
X231942Y180131D02*
X242368Y181145D01*
X242355Y181426D01*
X232712Y181426D01*
X231848Y180301D01*
X231942Y180131D01*
X231942Y180131D01*
G37*
G36*
X243066Y180140D02*
X243148Y180305D01*
X242281Y181433D01*
X231870Y180421D01*
X231884Y180140D01*
X243066Y180140D01*
X243066Y180140D01*
G37*
G36*
X219924Y179535D02*
X225383Y180153D01*
X225423Y180367D01*
X222190Y182081D01*
X219833Y179724D01*
X219924Y179535D01*
X219924Y179535D01*
G37*
G36*
X186344Y179368D02*
X186428Y179576D01*
X185311Y180433D01*
X175764Y180793D01*
X175744Y180509D01*
X186344Y179368D01*
X186344Y179368D01*
G37*
G36*
X190934Y179373D02*
X203127Y180149D01*
X203118Y180435D01*
X191974Y180435D01*
X190857Y179578D01*
X190934Y179373D01*
X190934Y179373D01*
G37*
G36*
X204071Y179380D02*
X204139Y179580D01*
X203020Y180438D01*
X190881Y179665D01*
X190891Y179380D01*
X204071Y179380D01*
X204071Y179380D01*
G37*
G36*
X208665Y179358D02*
X216638Y181046D01*
X216590Y181326D01*
X209683Y180429D01*
X208567Y179573D01*
X208665Y179358D01*
X208665Y179358D01*
G37*
G36*
X226352Y179377D02*
X226424Y179579D01*
X225301Y180441D01*
X219858Y179825D01*
X219870Y179550D01*
X226352Y179377D01*
X226352Y179377D01*
G37*
G36*
X230934Y179373D02*
X243127Y180149D01*
X243118Y180435D01*
X231974Y180435D01*
X230857Y179578D01*
X230934Y179373D01*
X230934Y179373D01*
G37*
G36*
X244071Y179380D02*
X244139Y179580D01*
X243020Y180438D01*
X230881Y179665D01*
X230891Y179380D01*
X244071Y179380D01*
X244071Y179380D01*
G37*
G36*
X165496Y179152D02*
X165496Y180751D01*
X137305Y189070D01*
X137217Y188794D01*
X165496Y179152D01*
X165496Y179152D01*
G37*
G36*
X175753Y179209D02*
X186390Y179382D01*
X186403Y179659D01*
X175753Y180805D01*
X175753Y179209D01*
X175753Y179209D01*
G37*
G36*
X187522Y178898D02*
X187573Y179139D01*
X186277Y179675D01*
X175754Y179504D01*
X175753Y179215D01*
X187522Y178898D01*
X187522Y178898D01*
G37*
G36*
X189761Y178897D02*
X204116Y179385D01*
X204111Y179675D01*
X191004Y179675D01*
X189709Y179138D01*
X189761Y178897D01*
X189761Y178897D01*
G37*
G36*
X205241Y178902D02*
X205288Y179139D01*
X203992Y179676D01*
X189730Y179192D01*
X189734Y178902D01*
X205241Y178902D01*
X205241Y178902D01*
G37*
G36*
X207498Y178874D02*
X216644Y181051D01*
X216580Y181336D01*
X208706Y179669D01*
X207414Y179133D01*
X207498Y178874D01*
X207498Y178874D01*
G37*
G36*
X227516Y178891D02*
X227576Y179137D01*
X226280Y179674D01*
X219872Y179845D01*
X219856Y179559D01*
X227516Y178891D01*
X227516Y178891D01*
G37*
G36*
X229761Y178897D02*
X244116Y179385D01*
X244111Y179675D01*
X231004Y179675D01*
X229709Y179138D01*
X229761Y178897D01*
X229761Y178897D01*
G37*
G36*
X245241Y178902D02*
X245288Y179139D01*
X243992Y179676D01*
X229730Y179192D01*
X229734Y178902D01*
X245241Y178902D01*
X245241Y178902D01*
G37*
G36*
X188777Y178733D02*
X188800Y179014D01*
X187415Y179197D01*
X175758Y179510D01*
X175749Y179217D01*
X188777Y178733D01*
X188777Y178733D01*
G37*
G36*
X188504Y178737D02*
X205268Y178903D01*
X205266Y179197D01*
X189870Y179197D01*
X188484Y179014D01*
X188504Y178737D01*
X188504Y178737D01*
G37*
G36*
X206496Y178739D02*
X206514Y179014D01*
X205128Y179197D01*
X188493Y179032D01*
X188494Y178739D01*
X206496Y178739D01*
X206496Y178739D01*
G37*
G36*
X228772Y178726D02*
X228804Y179014D01*
X227419Y179196D01*
X219878Y179853D01*
X219851Y179560D01*
X228772Y178726D01*
X228772Y178726D01*
G37*
G36*
X228504Y178737D02*
X245268Y178903D01*
X245266Y179197D01*
X229870Y179197D01*
X228484Y179014D01*
X228504Y178737D01*
X228504Y178737D01*
G37*
G36*
X246496Y178739D02*
X246514Y179014D01*
X245128Y179197D01*
X228493Y179032D01*
X228494Y178739D01*
X246496Y178739D01*
X246496Y178739D01*
G37*
G36*
X183577Y178463D02*
X206506Y178740D01*
X206505Y179034D01*
X188637Y179034D01*
X183568Y178752D01*
X183577Y178463D01*
X183577Y178463D01*
G37*
G36*
X183717Y178465D02*
X188790Y178747D01*
X188788Y179028D01*
X175763Y179512D01*
X175744Y179225D01*
X183717Y178465D01*
X183717Y178465D01*
G37*
G36*
X211305Y178461D02*
X216652Y181087D01*
X216562Y181335D01*
X207442Y179164D01*
X207456Y178917D01*
X211305Y178461D01*
X211305Y178461D01*
G37*
G36*
X211414Y178458D02*
X211439Y178743D01*
X207595Y179198D01*
X206205Y179015D01*
X206215Y178746D01*
X211414Y178458D01*
X211414Y178458D01*
G37*
G36*
X211423Y178465D02*
X211431Y178752D01*
X206361Y179034D01*
X183571Y178759D01*
X183573Y178465D01*
X211423Y178465D01*
X211423Y178465D01*
G37*
G36*
X223577Y178463D02*
X246506Y178740D01*
X246505Y179034D01*
X228637Y179034D01*
X223568Y178752D01*
X223577Y178463D01*
X223577Y178463D01*
G37*
G36*
X223703Y178464D02*
X228786Y178746D01*
X228791Y179020D01*
X219892Y179853D01*
X219841Y179589D01*
X223703Y178464D01*
X223703Y178464D01*
G37*
G36*
X251143Y178456D02*
X251435Y178476D01*
X251169Y182959D01*
X250901Y182968D01*
X250831Y182436D01*
X251143Y178456D01*
X251143Y178456D01*
G37*
G36*
X251175Y178444D02*
X251437Y178492D01*
X251117Y182560D01*
X250888Y182596D01*
X250345Y181287D01*
X251175Y178444D01*
X251175Y178444D01*
G37*
G36*
X251250Y178427D02*
X251454Y178542D01*
X250618Y181407D01*
X250439Y181440D01*
X249548Y180279D01*
X251250Y178427D01*
X251250Y178427D01*
G37*
G36*
X251338Y178435D02*
X251466Y178627D01*
X249758Y180487D01*
X248591Y179591D01*
X248618Y179418D01*
X251338Y178435D01*
X251338Y178435D01*
G37*
G36*
X251392Y178451D02*
X251453Y178707D01*
X248746Y179685D01*
X247434Y179142D01*
X247465Y178916D01*
X251392Y178451D01*
X251392Y178451D01*
G37*
G36*
X251414Y178458D02*
X251439Y178743D01*
X247595Y179198D01*
X246205Y179015D01*
X246215Y178746D01*
X251414Y178458D01*
X251414Y178458D01*
G37*
G36*
X251423Y178465D02*
X251431Y178752D01*
X246361Y179034D01*
X223571Y178759D01*
X223573Y178465D01*
X251423Y178465D01*
X251423Y178465D01*
G37*
G36*
X182481Y178301D02*
X183870Y178484D01*
X183865Y178747D01*
X175771Y179520D01*
X175738Y179232D01*
X182481Y178301D01*
X182481Y178301D01*
G37*
G36*
X184949Y178302D02*
X211427Y178466D01*
X211426Y178760D01*
X183582Y178760D01*
X183564Y178485D01*
X184949Y178302D01*
X184949Y178302D01*
G37*
G36*
X210050Y178302D02*
X211436Y178485D01*
X211417Y178761D01*
X184810Y178597D01*
X184811Y178302D01*
X210050Y178302D01*
X210050Y178302D01*
G37*
G36*
X212554Y178296D02*
X216665Y181117D01*
X216526Y181354D01*
X211116Y178697D01*
X211151Y178481D01*
X212554Y178296D01*
X212554Y178296D01*
G37*
G36*
X222456Y178298D02*
X223858Y178482D01*
X223876Y178721D01*
X219923Y179873D01*
X219825Y179622D01*
X222456Y178298D01*
X222456Y178298D01*
G37*
G36*
X224949Y178302D02*
X251427Y178466D01*
X251426Y178760D01*
X223582Y178760D01*
X223564Y178485D01*
X224949Y178302D01*
X224949Y178302D01*
G37*
G36*
X250050Y178302D02*
X251436Y178485D01*
X251417Y178761D01*
X224810Y178597D01*
X224811Y178302D01*
X250050Y178302D01*
X250050Y178302D01*
G37*
G36*
X252734Y178272D02*
X251128Y182986D01*
X250875Y182936D01*
X251139Y178482D01*
X252734Y178272D01*
X252734Y178272D01*
G37*
G36*
X255547Y178247D02*
X255625Y178430D01*
X251051Y183003D01*
X250852Y182879D01*
X252411Y178304D01*
X255547Y178247D01*
X255547Y178247D01*
G37*
G36*
X165685Y177945D02*
X165819Y178063D01*
X165472Y179473D01*
X137312Y189074D01*
X137213Y188801D01*
X165685Y177945D01*
X165685Y177945D01*
G37*
G36*
X175404Y177958D02*
X182623Y178309D01*
X182635Y178578D01*
X175790Y179523D01*
X175404Y177958D01*
X175404Y177958D01*
G37*
G36*
X181355Y177823D02*
X182653Y178361D01*
X182598Y178603D01*
X175445Y178255D01*
X175449Y177971D01*
X181355Y177823D01*
X181355Y177823D01*
G37*
G36*
X186084Y177824D02*
X210190Y178305D01*
X210187Y178597D01*
X184837Y178597D01*
X184790Y178360D01*
X186084Y177824D01*
X186084Y177824D01*
G37*
G36*
X208916Y177824D02*
X210210Y178360D01*
X210160Y178600D01*
X185963Y178117D01*
X185966Y177824D01*
X208916Y177824D01*
X208916Y177824D01*
G37*
G36*
X213713Y177795D02*
X216665Y181162D01*
X216492Y181357D01*
X212361Y178522D01*
X212380Y178347D01*
X213713Y177795D01*
X213713Y177795D01*
G37*
G36*
X221279Y177792D02*
X222626Y178350D01*
X222633Y178539D01*
X219973Y179878D01*
X219823Y179697D01*
X221279Y177792D01*
X221279Y177792D01*
G37*
G36*
X226084Y177824D02*
X250190Y178305D01*
X250187Y178597D01*
X224837Y178597D01*
X224790Y178360D01*
X226084Y177824D01*
X226084Y177824D01*
G37*
G36*
X248916Y177824D02*
X250210Y178360D01*
X250160Y178600D01*
X225963Y178117D01*
X225966Y177824D01*
X248916Y177824D01*
X248916Y177824D01*
G37*
G36*
X253659Y177817D02*
X255611Y178283D01*
X255583Y178541D01*
X252398Y178600D01*
X252348Y178360D01*
X253659Y177817D01*
X253659Y177817D01*
G37*
G36*
X180374Y177054D02*
X181500Y177918D01*
X181436Y178117D01*
X175462Y178266D01*
X175433Y177995D01*
X180374Y177054D01*
X180374Y177054D01*
G37*
G36*
X187055Y177062D02*
X209037Y177829D01*
X209032Y178119D01*
X186006Y178119D01*
X185938Y177919D01*
X187055Y177062D01*
X187055Y177062D01*
G37*
G36*
X207946Y177064D02*
X209062Y177920D01*
X208989Y178123D01*
X186953Y177354D01*
X186958Y177064D01*
X207946Y177064D01*
X207946Y177064D01*
G37*
G36*
X214719Y176982D02*
X216656Y181216D01*
X216441Y181354D01*
X213456Y177951D01*
X214719Y176982D01*
X214719Y176982D01*
G37*
G36*
X220359Y177042D02*
X221534Y177944D01*
X220060Y179873D01*
X219850Y179787D01*
X220201Y177108D01*
X220359Y177042D01*
X220359Y177042D01*
G37*
G36*
X227055Y177062D02*
X249037Y177829D01*
X249032Y178119D01*
X226006Y178119D01*
X225938Y177919D01*
X227055Y177062D01*
X227055Y177062D01*
G37*
G36*
X247946Y177064D02*
X249062Y177920D01*
X248989Y178123D01*
X226953Y177354D01*
X226958Y177064D01*
X247946Y177064D01*
X247946Y177064D01*
G37*
G36*
X254698Y176998D02*
X255628Y178398D01*
X255513Y178563D01*
X253546Y178094D01*
X253507Y177911D01*
X254698Y176998D01*
X254698Y176998D01*
G37*
G36*
X166289Y176804D02*
X166429Y176957D01*
X165759Y178233D01*
X137318Y189077D01*
X137211Y188806D01*
X166289Y176804D01*
X166289Y176804D01*
G37*
G36*
X174920Y176829D02*
X180474Y177070D01*
X180493Y177332D01*
X175515Y178280D01*
X174829Y176973D01*
X174920Y176829D01*
X174920Y176829D01*
G37*
G36*
X220064Y176614D02*
X220491Y177170D01*
X220140Y179850D01*
X219864Y179832D01*
X219864Y176682D01*
X220064Y176614D01*
X220064Y176614D01*
G37*
G36*
X179640Y176060D02*
X180511Y177196D01*
X180424Y177363D01*
X174860Y177122D01*
X174844Y176856D01*
X179640Y176060D01*
X179640Y176060D01*
G37*
G36*
X187794Y176069D02*
X208047Y177071D01*
X208040Y177359D01*
X187011Y177359D01*
X186930Y177194D01*
X187794Y176069D01*
X187794Y176069D01*
G37*
G36*
X207208Y176073D02*
X208070Y177196D01*
X207983Y177364D01*
X187712Y176361D01*
X187720Y176073D01*
X207208Y176073D01*
X207208Y176073D01*
G37*
G36*
X215363Y176056D02*
X215547Y176097D01*
X216640Y181260D01*
X216389Y181343D01*
X214491Y177192D01*
X215363Y176056D01*
X215363Y176056D01*
G37*
G36*
X227794Y176069D02*
X248047Y177071D01*
X248040Y177359D01*
X227011Y177359D01*
X226930Y177194D01*
X227794Y176069D01*
X227794Y176069D01*
G37*
G36*
X247208Y176073D02*
X248070Y177196D01*
X247983Y177364D01*
X227712Y176361D01*
X227720Y176073D01*
X247208Y176073D01*
X247208Y176073D01*
G37*
G36*
X255369Y176047D02*
X255569Y176114D01*
X255599Y178505D01*
X255388Y178570D01*
X254481Y177205D01*
X255369Y176047D01*
X255369Y176047D01*
G37*
G36*
X255360Y175987D02*
X255597Y176034D01*
X255597Y178543D01*
X255304Y178545D01*
X255275Y176192D01*
X255360Y175987D01*
X255360Y175987D01*
G37*
G36*
X167150Y175838D02*
X167289Y176030D01*
X166338Y177103D01*
X137323Y189080D01*
X137209Y188810D01*
X167150Y175838D01*
X167150Y175838D01*
G37*
G36*
X174057Y175870D02*
X179715Y176078D01*
X179732Y176344D01*
X174943Y177139D01*
X173974Y176046D01*
X174057Y175870D01*
X174057Y175870D01*
G37*
G36*
X168218Y175104D02*
X168349Y175338D01*
X167172Y176151D01*
X137325Y189081D01*
X137207Y188812D01*
X168218Y175104D01*
X168218Y175104D01*
G37*
G36*
X173000Y175130D02*
X179736Y176094D01*
X179711Y176373D01*
X174101Y176167D01*
X172915Y175348D01*
X173000Y175130D01*
X173000Y175130D01*
G37*
G36*
X179195Y174915D02*
X179746Y176243D01*
X179640Y176379D01*
X172940Y175420D01*
X172954Y175151D01*
X179195Y174915D01*
X179195Y174915D01*
G37*
G36*
X188245Y174913D02*
X207287Y176082D01*
X207279Y176368D01*
X187643Y176368D01*
X188245Y174913D01*
X188245Y174913D01*
G37*
G36*
X206756Y174919D02*
X207362Y176382D01*
X188190Y175205D01*
X188198Y174919D01*
X206756Y174919D01*
X206756Y174919D01*
G37*
G36*
X215808Y174903D02*
X216037Y174938D01*
X216628Y181286D01*
X216353Y181328D01*
X215269Y176206D01*
X215808Y174903D01*
X215808Y174903D01*
G37*
G36*
X228245Y174913D02*
X247287Y176082D01*
X247279Y176368D01*
X227643Y176368D01*
X228245Y174913D01*
X228245Y174913D01*
G37*
G36*
X246756Y174919D02*
X247362Y176382D01*
X228190Y175205D01*
X228198Y174919D01*
X246756Y174919D01*
X246756Y174919D01*
G37*
G36*
X172199Y174851D02*
X179244Y174920D01*
X179248Y175209D01*
X173070Y175442D01*
X172153Y175094D01*
X172199Y174851D01*
X172199Y174851D01*
G37*
G36*
X168007Y174492D02*
X169076Y174898D01*
X169076Y175101D01*
X168007Y175507D01*
X168007Y174492D01*
X168007Y174492D01*
G37*
G36*
X168302Y174475D02*
X168302Y175389D01*
X137327Y189082D01*
X137207Y188815D01*
X168302Y174475D01*
X168302Y174475D01*
G37*
G36*
X173072Y174557D02*
X179251Y174928D01*
X179241Y175216D01*
X172197Y175146D01*
X172154Y174905D01*
X173072Y174557D01*
X173072Y174557D01*
G37*
G36*
X167112Y173807D02*
X168309Y174633D01*
X168294Y174804D01*
X137332Y189082D01*
X137206Y188821D01*
X167112Y173807D01*
X167112Y173807D01*
G37*
G36*
X174118Y173820D02*
X179263Y174952D01*
X179226Y175222D01*
X172981Y174847D01*
X172924Y174644D01*
X174118Y173820D01*
X174118Y173820D01*
G37*
G36*
X179064Y173676D02*
X179272Y175256D01*
X173990Y174094D01*
X174014Y173835D01*
X179064Y173676D01*
X179064Y173676D01*
G37*
G36*
X206623Y173672D02*
X206826Y175214D01*
X188199Y175214D01*
X188189Y174929D01*
X206623Y173672D01*
X206623Y173672D01*
G37*
G36*
X246623Y173672D02*
X246826Y175214D01*
X228199Y175214D01*
X228189Y174929D01*
X246623Y173672D01*
X246623Y173672D01*
G37*
G36*
X188375Y173681D02*
X206637Y173681D01*
X206647Y173966D01*
X188172Y175226D01*
X188375Y173681D01*
X188375Y173681D01*
G37*
G36*
X215935Y173676D02*
X216204Y173686D01*
X216624Y181298D01*
X216335Y181319D01*
X215752Y175064D01*
X215935Y173676D01*
X215935Y173676D01*
G37*
G36*
X228375Y173681D02*
X246637Y173681D01*
X246647Y173966D01*
X228172Y175226D01*
X228375Y173681D01*
X228375Y173681D01*
G37*
G36*
X166282Y172833D02*
X167338Y174024D01*
X137338Y189084D01*
X137203Y188828D01*
X166282Y172833D01*
X166282Y172833D01*
G37*
G36*
X174945Y172857D02*
X179094Y173710D01*
X179071Y173972D01*
X174057Y174129D01*
X173974Y173953D01*
X174945Y172857D01*
X174945Y172857D01*
G37*
G36*
X179269Y172424D02*
X179061Y174005D01*
X174845Y173138D01*
X174858Y172885D01*
X179269Y172424D01*
X179269Y172424D01*
G37*
G36*
X188172Y172430D02*
X206647Y173691D01*
X206637Y173976D01*
X188375Y173976D01*
X188172Y172430D01*
X188172Y172430D01*
G37*
G36*
X206826Y172442D02*
X206623Y173985D01*
X188189Y172727D01*
X188199Y172442D01*
X206826Y172442D01*
X206826Y172442D01*
G37*
G36*
X228172Y172430D02*
X246647Y173691D01*
X246637Y173976D01*
X228375Y173976D01*
X228172Y172430D01*
X228172Y172430D01*
G37*
G36*
X246826Y172442D02*
X246623Y173985D01*
X228189Y172727D01*
X228199Y172442D01*
X246826Y172442D01*
X246826Y172442D01*
G37*
G36*
X165713Y171677D02*
X166448Y173079D01*
X137346Y189086D01*
X137201Y188835D01*
X165713Y171677D01*
X165713Y171677D01*
G37*
G36*
X175515Y171718D02*
X179252Y172470D01*
X179240Y172724D01*
X174926Y173175D01*
X174827Y173029D01*
X175515Y171718D01*
X175515Y171718D01*
G37*
G36*
X179809Y171261D02*
X179188Y172759D01*
X175441Y172004D01*
X175452Y171752D01*
X179809Y171261D01*
X179809Y171261D01*
G37*
G36*
X187637Y171274D02*
X206809Y172451D01*
X206801Y172738D01*
X188243Y172738D01*
X187637Y171274D01*
X187637Y171274D01*
G37*
G36*
X207356Y171288D02*
X206754Y172744D01*
X187712Y171575D01*
X187720Y171288D01*
X207356Y171288D01*
X207356Y171288D01*
G37*
G36*
X227637Y171274D02*
X246809Y172451D01*
X246801Y172738D01*
X228243Y172738D01*
X227637Y171274D01*
X227637Y171274D01*
G37*
G36*
X247356Y171288D02*
X246754Y172744D01*
X227712Y171575D01*
X227720Y171288D01*
X247356Y171288D01*
X247356Y171288D01*
G37*
G36*
X165441Y170403D02*
X165824Y171955D01*
X137354Y189089D01*
X137199Y188843D01*
X165441Y170403D01*
X165441Y170403D01*
G37*
G36*
X175792Y170466D02*
X179730Y171318D01*
X179717Y171569D01*
X175400Y172055D01*
X175792Y170466D01*
X175792Y170466D01*
G37*
G36*
X180424Y170293D02*
X180511Y170460D01*
X179637Y171600D01*
X175743Y170757D01*
X175765Y170498D01*
X180424Y170293D01*
X180424Y170293D01*
G37*
G36*
X187016Y170293D02*
X207287Y171296D01*
X207279Y171584D01*
X187791Y171584D01*
X186929Y170460D01*
X187016Y170293D01*
X187016Y170293D01*
G37*
G36*
X207988Y170297D02*
X208069Y170462D01*
X207205Y171587D01*
X186952Y170585D01*
X186959Y170297D01*
X207988Y170297D01*
X207988Y170297D01*
G37*
G36*
X227016Y170293D02*
X247287Y171296D01*
X247279Y171584D01*
X227791Y171584D01*
X226929Y170460D01*
X227016Y170293D01*
X227016Y170293D01*
G37*
G36*
X247988Y170297D02*
X248069Y170462D01*
X247205Y171587D01*
X226952Y170585D01*
X226959Y170297D01*
X247988Y170297D01*
X247988Y170297D01*
G37*
G36*
X216337Y170042D02*
X216616Y170058D01*
X216616Y181305D01*
X216329Y181313D01*
X215916Y173824D01*
X216337Y170042D01*
X216337Y170042D01*
G37*
G36*
X216357Y170028D02*
X216630Y170076D01*
X216196Y173975D01*
X215934Y173977D01*
X215751Y172582D01*
X216357Y170028D01*
X216357Y170028D01*
G37*
G36*
X216431Y170013D02*
X216639Y170118D01*
X216019Y172728D01*
X215805Y172746D01*
X215252Y171409D01*
X216431Y170013D01*
X216431Y170013D01*
G37*
G36*
X216549Y170037D02*
X216646Y170215D01*
X215417Y171671D01*
X214390Y170333D01*
X216549Y170037D01*
X216549Y170037D01*
G37*
G36*
X181416Y169519D02*
X181509Y169731D01*
X180390Y170590D01*
X175769Y170794D01*
X175739Y170519D01*
X181416Y169519D01*
X181416Y169519D01*
G37*
G36*
X186010Y169533D02*
X208046Y170303D01*
X208041Y170593D01*
X187053Y170593D01*
X185937Y169736D01*
X186010Y169533D01*
X186010Y169533D01*
G37*
G36*
X208993Y169537D02*
X209061Y169737D01*
X207944Y170594D01*
X185962Y169827D01*
X185967Y169537D01*
X208993Y169537D01*
X208993Y169537D01*
G37*
G36*
X213584Y169518D02*
X216619Y170075D01*
X216613Y170327D01*
X214621Y170600D01*
X213489Y169731D01*
X213584Y169518D01*
X213584Y169518D01*
G37*
G36*
X226010Y169533D02*
X248046Y170303D01*
X248041Y170593D01*
X227053Y170593D01*
X225937Y169736D01*
X226010Y169533D01*
X226010Y169533D01*
G37*
G36*
X248993Y169537D02*
X249061Y169737D01*
X247944Y170594D01*
X225962Y169827D01*
X225967Y169537D01*
X248993Y169537D01*
X248993Y169537D01*
G37*
G36*
X118000Y169432D02*
X165460Y170495D01*
X165520Y170704D01*
X137382Y189076D01*
X117921Y169616D01*
X118000Y169432D01*
X118000Y169432D01*
G37*
G36*
X225321Y169258D02*
X249035Y169539D01*
X249033Y169832D01*
X226083Y169832D01*
X225272Y169496D01*
X225321Y169258D01*
X225321Y169258D01*
G37*
G36*
X231624Y169259D02*
X249036Y169539D01*
X249032Y169834D01*
X225293Y169552D01*
X225294Y169259D01*
X231624Y169259D01*
X231624Y169259D01*
G37*
G36*
X165496Y169210D02*
X165496Y170791D01*
X117947Y169726D01*
X117950Y169435D01*
X165496Y169210D01*
X165496Y169210D01*
G37*
G36*
X175753Y169202D02*
X181468Y169545D01*
X181483Y169807D01*
X175753Y170816D01*
X175753Y169202D01*
X175753Y169202D01*
G37*
G36*
X182601Y169056D02*
X182651Y169296D01*
X181353Y169834D01*
X175751Y169498D01*
X175756Y169214D01*
X182601Y169056D01*
X182601Y169056D01*
G37*
G36*
X184839Y169057D02*
X209036Y169540D01*
X209033Y169832D01*
X186083Y169832D01*
X184789Y169296D01*
X184839Y169057D01*
X184839Y169057D01*
G37*
G36*
X210162Y169059D02*
X210209Y169297D01*
X208915Y169833D01*
X184809Y169351D01*
X184812Y169059D01*
X210162Y169059D01*
X210162Y169059D01*
G37*
G36*
X212420Y169030D02*
X216643Y170089D01*
X216582Y170368D01*
X213629Y169827D01*
X212334Y169291D01*
X212420Y169030D01*
X212420Y169030D01*
G37*
G36*
X250161Y169058D02*
X250210Y169296D01*
X248915Y169833D01*
X231475Y169552D01*
X231475Y169261D01*
X250161Y169058D01*
X250161Y169058D01*
G37*
G36*
X183855Y168890D02*
X183879Y169172D01*
X182493Y169354D01*
X175758Y169510D01*
X175749Y169217D01*
X183855Y168890D01*
X183855Y168890D01*
G37*
G36*
X183582Y168895D02*
X210189Y169060D01*
X210188Y169354D01*
X184949Y169354D01*
X183563Y169172D01*
X183582Y168895D01*
X183582Y168895D01*
G37*
G36*
X211417Y168896D02*
X211435Y169172D01*
X210050Y169354D01*
X183572Y169190D01*
X183573Y168896D01*
X211417Y168896D01*
X211417Y168896D01*
G37*
G36*
X251416Y168893D02*
X251437Y169172D01*
X250051Y169354D01*
X231477Y169556D01*
X231473Y169262D01*
X251416Y168893D01*
X251416Y168893D01*
G37*
G36*
X118898Y168571D02*
X165496Y169213D01*
X165495Y169506D01*
X117998Y169730D01*
X117922Y169547D01*
X118898Y168571D01*
X118898Y168571D01*
G37*
G36*
X165844Y167965D02*
X165463Y169508D01*
X118811Y168865D01*
X118811Y168574D01*
X165844Y167965D01*
X165844Y167965D01*
G37*
G36*
X175400Y167944D02*
X183873Y168912D01*
X183862Y169186D01*
X175787Y169511D01*
X175400Y167944D01*
X175400Y167944D01*
G37*
G36*
X175457Y167963D02*
X211429Y168900D01*
X211425Y169191D01*
X183712Y169191D01*
X175437Y168245D01*
X175457Y167963D01*
X175457Y167963D01*
G37*
G36*
X166499Y166823D02*
X165744Y168261D01*
X118815Y168869D01*
X118807Y168577D01*
X166499Y166823D01*
X166499Y166823D01*
G37*
G36*
X174921Y166828D02*
X211433Y168904D01*
X211421Y169195D01*
X175504Y168260D01*
X174828Y166972D01*
X174921Y166828D01*
X174921Y166828D01*
G37*
G36*
X134612Y166354D02*
X166396Y166835D01*
X166399Y167122D01*
X118824Y168872D01*
X118799Y168593D01*
X134612Y166354D01*
X134612Y166354D01*
G37*
G36*
X166769Y166354D02*
X166848Y166528D01*
X166316Y167129D01*
X134472Y166647D01*
X134475Y166354D01*
X166769Y166354D01*
X166769Y166354D01*
G37*
G36*
X174486Y166347D02*
X211436Y168906D01*
X211417Y169199D01*
X174929Y167124D01*
X174399Y166525D01*
X174486Y166347D01*
X174486Y166347D01*
G37*
G36*
X220292Y166354D02*
X220328Y166608D01*
X211295Y169193D01*
X174423Y166639D01*
X174432Y166354D01*
X220292Y166354D01*
X220292Y166354D01*
G37*
G36*
X220261Y166320D02*
X220348Y166593D01*
X212533Y169358D01*
X211141Y169174D01*
X211123Y168935D01*
X220261Y166320D01*
X220261Y166320D01*
G37*
G36*
X220226Y166323D02*
X220352Y166522D01*
X216513Y170361D01*
X212375Y169323D01*
X212365Y169104D01*
X220226Y166323D01*
X220226Y166323D01*
G37*
G36*
X240021Y160800D02*
X251452Y168986D01*
X251388Y169189D01*
X231526Y169556D01*
X231448Y169373D01*
X240021Y160800D01*
X240021Y160800D01*
G37*
G36*
X239997Y160790D02*
X252697Y169148D01*
X252615Y169368D01*
X251223Y169185D01*
X239833Y161028D01*
X239997Y160790D01*
X239997Y160790D01*
G37*
G36*
X239992Y160789D02*
X253865Y169633D01*
X253740Y169873D01*
X252448Y169338D01*
X239833Y161035D01*
X239992Y160789D01*
X239992Y160789D01*
G37*
G36*
X255303Y160205D02*
X255597Y160205D01*
X255597Y171622D01*
X255360Y171670D01*
X255275Y171465D01*
X255303Y160205D01*
X255303Y160205D01*
G37*
G36*
X255314Y160200D02*
X255598Y160211D01*
X255570Y171542D01*
X255370Y171610D01*
X254511Y170490D01*
X255314Y160200D01*
X255314Y160200D01*
G37*
G36*
X255331Y160188D02*
X255608Y160225D01*
X254803Y170544D01*
X254642Y170616D01*
X253509Y169746D01*
X255331Y160188D01*
X255331Y160188D01*
G37*
G36*
X255630Y160198D02*
X253776Y169926D01*
X239866Y161059D01*
X239922Y160850D01*
X255630Y160198D01*
X255630Y160198D01*
G37*
G36*
X260321Y158248D02*
X260477Y176664D01*
X260209Y176932D01*
X260027Y176857D01*
X260027Y158249D01*
X260321Y158248D01*
X260321Y158248D01*
G37*
G36*
X260251Y158225D02*
X269914Y176751D01*
X260182Y176751D01*
X260026Y158281D01*
X260251Y158225D01*
X260251Y158225D01*
G37*
G36*
X260227Y158197D02*
X273619Y180394D01*
X273413Y180555D01*
X269550Y176692D01*
X259977Y158337D01*
X260227Y158197D01*
X260227Y158197D01*
G37*
G36*
X118993Y150665D02*
X134790Y166462D01*
X134732Y166635D01*
X118811Y168889D01*
X118811Y150740D01*
X118993Y150665D01*
X118993Y150665D01*
G37*
G36*
X240045Y149861D02*
X255621Y160290D01*
X255563Y160496D01*
X239889Y161146D01*
X239889Y149944D01*
X240045Y149861D01*
X240045Y149861D01*
G37*
G36*
X231519Y138933D02*
X255651Y160334D01*
X255482Y160552D01*
X239935Y150143D01*
X231323Y139118D01*
X231519Y138933D01*
X231519Y138933D01*
G37*
G36*
X234291Y138986D02*
X255656Y160350D01*
X255459Y160558D01*
X231348Y139176D01*
X231420Y138986D01*
X234291Y138986D01*
X234291Y138986D01*
G37*
G36*
X229308Y136711D02*
X231633Y139035D01*
X240243Y150057D01*
X240015Y150239D01*
X229100Y136899D01*
X229308Y136711D01*
X229308Y136711D01*
G37*
G36*
X226078Y135978D02*
X229386Y136783D01*
X240240Y150048D01*
X240032Y150237D01*
X225968Y136173D01*
X226078Y135978D01*
X226078Y135978D01*
G37*
G36*
X226806Y135649D02*
X229486Y136834D01*
X229399Y137090D01*
X226017Y136267D01*
X225993Y136063D01*
X226806Y135649D01*
X226806Y135649D01*
G37*
G36*
X227518Y134896D02*
X229494Y136898D01*
X229355Y137099D01*
X226553Y135860D01*
X227518Y134896D01*
X227518Y134896D01*
G37*
G36*
X227881Y134066D02*
X228063Y134067D01*
X229491Y136962D01*
X229286Y137108D01*
X227337Y135133D01*
X227881Y134066D01*
X227881Y134066D01*
G37*
G36*
X228233Y133070D02*
X229485Y137000D01*
X229231Y137103D01*
X227818Y134237D01*
X228000Y133088D01*
X228233Y133070D01*
X228233Y133070D01*
G37*
G36*
X229451Y132918D02*
X229451Y137041D01*
X229201Y137080D01*
X227933Y133101D01*
X229451Y132918D01*
X229451Y132918D01*
G37*
G36*
X237613Y132910D02*
X260380Y158405D01*
X260171Y158602D01*
X237423Y135854D01*
X237423Y132983D01*
X237613Y132910D01*
X237613Y132910D01*
G37*
G36*
X227970Y132063D02*
X229470Y133016D01*
X229424Y133219D01*
X228004Y133390D01*
X227811Y132167D01*
X227970Y132063D01*
X227970Y132063D01*
G37*
G36*
X227530Y131154D02*
X229502Y133072D01*
X229336Y133281D01*
X227858Y132342D01*
X227329Y131303D01*
X227530Y131154D01*
X227530Y131154D01*
G37*
G36*
X231173Y131164D02*
X231249Y131347D01*
X229305Y133292D01*
X227343Y131384D01*
X227417Y131201D01*
X231173Y131164D01*
X231173Y131164D01*
G37*
G36*
X226727Y130478D02*
X231232Y131188D01*
X231212Y131459D01*
X227457Y131496D01*
X226630Y130669D01*
X226727Y130478D01*
X226727Y130478D01*
G37*
G36*
X226309Y130267D02*
X231245Y131195D01*
X231196Y131481D01*
X226764Y130783D01*
X226227Y130509D01*
X226309Y130267D01*
X226309Y130267D01*
G37*
G36*
X226452Y125807D02*
X231255Y131295D01*
X231151Y131477D01*
X226260Y130558D01*
X226260Y125879D01*
X226452Y125807D01*
X226452Y125807D01*
G37*
G36*
X226717Y125463D02*
X231279Y131336D01*
X231058Y131518D01*
X226206Y125975D01*
X226717Y125463D01*
X226717Y125463D01*
G37*
G36*
X226770Y124046D02*
X231274Y131355D01*
X231044Y131514D01*
X226555Y125737D01*
X226555Y124107D01*
X226770Y124046D01*
X226770Y124046D01*
G37*
G36*
X230990Y114558D02*
X231222Y114609D01*
X231222Y131425D01*
X231008Y131485D01*
X226536Y124229D01*
X230990Y114558D01*
X230990Y114558D01*
G37*
G36*
X257611Y114377D02*
X273598Y180446D01*
X273364Y180543D01*
X260029Y158441D01*
X257344Y114417D01*
X257611Y114377D01*
X257611Y114377D01*
G37*
G36*
X257467Y114371D02*
X257641Y114441D01*
X260328Y158492D01*
X260134Y158573D01*
X237364Y133075D01*
X257467Y114371D01*
X257467Y114371D01*
G37*
G36*
X257521Y114340D02*
X257703Y114555D01*
X237567Y133290D01*
X235576Y131299D01*
X257521Y114340D01*
X257521Y114340D01*
G37*
G36*
X256390Y114234D02*
X257617Y114411D01*
X257667Y114600D01*
X235774Y131519D01*
X235593Y131291D01*
X256390Y114234D01*
X256390Y114234D01*
G37*
G36*
X258680Y114224D02*
X273601Y180469D01*
X273316Y180535D01*
X257318Y114420D01*
X258680Y114224D01*
X258680Y114224D01*
G37*
G36*
X216422Y113879D02*
X231300Y114591D01*
X226748Y124473D01*
X216340Y114064D01*
X216422Y113879D01*
X216422Y113879D01*
G37*
G36*
X255427Y113768D02*
X256710Y114354D01*
X235781Y131519D01*
X235593Y131298D01*
X255427Y113768D01*
X255427Y113768D01*
G37*
G36*
X259653Y113731D02*
X273599Y180471D01*
X273313Y180533D01*
X258396Y114305D01*
X259653Y113731D01*
X259653Y113731D01*
G37*
G36*
X254633Y113037D02*
X255677Y113941D01*
X235789Y131519D01*
X235593Y131307D01*
X254633Y113037D01*
X254633Y113037D01*
G37*
G36*
X260457Y112958D02*
X273598Y180474D01*
X273310Y180532D01*
X259384Y113887D01*
X260457Y112958D01*
X260457Y112958D01*
G37*
G36*
X235652Y112620D02*
X254741Y113091D01*
X254812Y113275D01*
X235831Y131487D01*
X235652Y131410D01*
X235652Y112620D01*
X235652Y112620D01*
G37*
G36*
X254135Y112180D02*
X254811Y113231D01*
X254724Y113386D01*
X235652Y112915D01*
X235652Y112627D01*
X254135Y112180D01*
X254135Y112180D01*
G37*
G36*
X260873Y112166D02*
X261070Y112205D01*
X273596Y180476D01*
X273308Y180530D01*
X260204Y113206D01*
X260873Y112166D01*
X260873Y112166D01*
G37*
G36*
X175507Y111734D02*
X213123Y112850D01*
X213118Y113141D01*
X174768Y113141D01*
X175507Y111734D01*
X175507Y111734D01*
G37*
G36*
X175508Y111620D02*
X213125Y112851D01*
X213116Y113146D01*
X175407Y112026D01*
X175508Y111620D01*
X175508Y111620D01*
G37*
G36*
X194176Y111624D02*
X213127Y112856D01*
X213113Y113146D01*
X175472Y111914D01*
X175477Y111624D01*
X194176Y111624D01*
X194176Y111624D01*
G37*
G36*
X253860Y111139D02*
X254252Y112473D01*
X235659Y112922D01*
X235644Y112636D01*
X253860Y111139D01*
X253860Y111139D01*
G37*
G36*
X261138Y111142D02*
X261372Y111155D01*
X273596Y180477D01*
X273306Y180529D01*
X260791Y112322D01*
X261138Y111142D01*
X261138Y111142D01*
G37*
G36*
X253900Y110049D02*
X253900Y111432D01*
X235668Y112930D01*
X235637Y112645D01*
X253900Y110049D01*
X253900Y110049D01*
G37*
G36*
X261369Y110060D02*
X273595Y180478D01*
X273305Y180529D01*
X261099Y111309D01*
X261099Y110083D01*
X261369Y110060D01*
X261369Y110060D01*
G37*
G36*
X225792Y109236D02*
X231251Y114695D01*
X231169Y114880D01*
X216395Y114173D01*
X216348Y113950D01*
X225792Y109236D01*
X225792Y109236D01*
G37*
G36*
X254266Y108993D02*
X253867Y110351D01*
X235678Y112937D01*
X235630Y112654D01*
X254266Y108993D01*
X254266Y108993D01*
G37*
G36*
X254701Y108112D02*
X254817Y108274D01*
X254146Y109318D01*
X235686Y112944D01*
X235624Y112661D01*
X254701Y108112D01*
X254701Y108112D01*
G37*
G36*
X175406Y107966D02*
X192851Y108081D01*
X192850Y108375D01*
X175507Y108375D01*
X175406Y107966D01*
X175406Y107966D01*
G37*
G36*
X255529Y107400D02*
X255638Y107607D01*
X254708Y108414D01*
X235692Y112948D01*
X235620Y112666D01*
X255529Y107400D01*
X255529Y107400D01*
G37*
G36*
X230388Y107310D02*
X255583Y107426D01*
X255616Y107682D01*
X235755Y112935D01*
X230312Y107493D01*
X230388Y107310D01*
X230388Y107310D01*
G37*
G36*
X256551Y106976D02*
X256603Y107210D01*
X255485Y107721D01*
X230340Y107606D01*
X230338Y107313D01*
X256551Y106976D01*
X256551Y106976D01*
G37*
G36*
X174923Y106827D02*
X192856Y108091D01*
X192845Y108376D01*
X175505Y108262D01*
X174828Y106972D01*
X174923Y106827D01*
X174923Y106827D01*
G37*
G36*
X257636Y106822D02*
X257658Y107098D01*
X256444Y107273D01*
X230341Y107608D01*
X230337Y107314D01*
X257636Y106822D01*
X257636Y106822D01*
G37*
G36*
X180687Y106488D02*
X192864Y108100D01*
X192836Y108385D01*
X174851Y107118D01*
X174852Y106841D01*
X180687Y106488D01*
X180687Y106488D01*
G37*
G36*
X179636Y106321D02*
X180835Y106511D01*
X180822Y106775D01*
X174864Y107136D01*
X174840Y106849D01*
X179636Y106321D01*
X179636Y106321D01*
G37*
G36*
X181730Y106320D02*
X192870Y108105D01*
X192828Y108393D01*
X180535Y106766D01*
X180532Y106510D01*
X181730Y106320D01*
X181730Y106320D01*
G37*
G36*
X174062Y105866D02*
X179779Y106334D01*
X179782Y106602D01*
X174939Y107135D01*
X173973Y106044D01*
X174062Y105866D01*
X174062Y105866D01*
G37*
G36*
X178722Y105840D02*
X179808Y106393D01*
X179742Y106627D01*
X173996Y106157D01*
X174007Y105874D01*
X178722Y105840D01*
X178722Y105840D01*
G37*
G36*
X182656Y105832D02*
X192875Y108115D01*
X192821Y108396D01*
X181601Y106599D01*
X181567Y106387D01*
X182656Y105832D01*
X182656Y105832D01*
G37*
G36*
X172998Y105132D02*
X178842Y105858D01*
X178826Y106135D01*
X174104Y106169D01*
X172915Y105349D01*
X172998Y105132D01*
X172998Y105132D01*
G37*
G36*
X177997Y105089D02*
X178866Y105958D01*
X178773Y106147D01*
X172940Y105422D01*
X172955Y105147D01*
X177997Y105089D01*
X177997Y105089D01*
G37*
G36*
X183386Y105069D02*
X192883Y108131D01*
X192809Y108403D01*
X182558Y106113D01*
X182510Y105945D01*
X183386Y105069D01*
X183386Y105069D01*
G37*
G36*
X172202Y104847D02*
X178086Y105096D01*
X178082Y105383D01*
X173068Y105441D01*
X172151Y105093D01*
X172202Y104847D01*
X172202Y104847D01*
G37*
G36*
X173075Y104555D02*
X178094Y105106D01*
X178073Y105391D01*
X172194Y105142D01*
X172156Y104904D01*
X173075Y104555D01*
X173075Y104555D01*
G37*
G36*
X177540Y104135D02*
X178108Y105249D01*
X178008Y105394D01*
X172946Y104838D01*
X172948Y104572D01*
X177540Y104135D01*
X177540Y104135D01*
G37*
G36*
X183841Y104099D02*
X192891Y108150D01*
X192791Y108411D01*
X183216Y105325D01*
X183841Y104099D01*
X183841Y104099D01*
G37*
G36*
X174110Y103826D02*
X177602Y104157D01*
X177602Y104426D01*
X172995Y104864D01*
X172917Y104649D01*
X174110Y103826D01*
X174110Y103826D01*
G37*
G36*
X177409Y103063D02*
X177630Y104456D01*
X174010Y104113D01*
X173993Y103863D01*
X177409Y103063D01*
X177409Y103063D01*
G37*
G36*
X183962Y103007D02*
X192898Y108170D01*
X192771Y108420D01*
X183745Y104380D01*
X183962Y103007D01*
X183962Y103007D01*
G37*
G36*
X174938Y102865D02*
X177427Y103108D01*
X177444Y103358D01*
X174078Y104146D01*
X173967Y103961D01*
X174938Y102865D01*
X174938Y102865D01*
G37*
G36*
X183954Y102300D02*
X192904Y108183D01*
X192754Y108427D01*
X183940Y103335D01*
X183792Y102405D01*
X183954Y102300D01*
X183954Y102300D01*
G37*
G36*
X177638Y101977D02*
X177412Y103403D01*
X174866Y103154D01*
X174839Y102917D01*
X177638Y101977D01*
X177638Y101977D01*
G37*
G36*
X175513Y101721D02*
X177592Y102068D01*
X177611Y102297D01*
X174951Y103191D01*
X174822Y103039D01*
X175513Y101721D01*
X175513Y101721D01*
G37*
G36*
X177990Y101081D02*
X178111Y101230D01*
X177537Y102358D01*
X175453Y102010D01*
X175441Y101773D01*
X177990Y101081D01*
X177990Y101081D01*
G37*
G36*
X175795Y100454D02*
X178085Y101139D01*
X178082Y101362D01*
X175391Y102093D01*
X175795Y100454D01*
X175795Y100454D01*
G37*
G36*
X225702Y100388D02*
X225910Y100452D01*
X225910Y109507D01*
X216480Y114215D01*
X216330Y114042D01*
X225702Y100388D01*
X225702Y100388D01*
G37*
G36*
X230339Y100374D02*
X257660Y106858D01*
X257632Y107117D01*
X230339Y107609D01*
X230339Y100374D01*
X230339Y100374D01*
G37*
G36*
X230377Y100384D02*
X258737Y107014D01*
X258685Y107291D01*
X257472Y107117D01*
X230309Y100671D01*
X230377Y100384D01*
X230377Y100384D01*
G37*
G36*
X178781Y100345D02*
X178863Y100530D01*
X177978Y101415D01*
X175740Y100746D01*
X175769Y100499D01*
X178781Y100345D01*
X178781Y100345D01*
G37*
G36*
X179733Y99849D02*
X179813Y100090D01*
X178726Y100644D01*
X175769Y100795D01*
X175739Y100518D01*
X179733Y99849D01*
X179733Y99849D01*
G37*
G36*
X175753Y99183D02*
X179781Y99892D01*
X179780Y100141D01*
X175753Y100815D01*
X175753Y99183D01*
X175753Y99183D01*
G37*
G36*
X175775Y99197D02*
X180825Y99716D01*
X180833Y99975D01*
X179632Y100165D01*
X175735Y99480D01*
X175775Y99197D01*
X175775Y99197D01*
G37*
G36*
X223949Y98539D02*
X225953Y100543D01*
X216560Y114228D01*
X216323Y114090D01*
X223949Y98539D01*
X223949Y98539D01*
G37*
G36*
X232217Y98622D02*
X258746Y107027D01*
X258671Y107301D01*
X230369Y100685D01*
X230321Y100518D01*
X232217Y98622D01*
X232217Y98622D01*
G37*
G36*
X175559Y97947D02*
X180854Y99752D01*
X180797Y100010D01*
X175783Y99495D01*
X175430Y98065D01*
X175559Y97947D01*
X175559Y97947D01*
G37*
G36*
X175500Y97930D02*
X181623Y99872D01*
X181560Y100138D01*
X180646Y99993D01*
X175409Y98207D01*
X175500Y97930D01*
X175500Y97930D01*
G37*
G36*
X175351Y97561D02*
X181634Y99882D01*
X181541Y100155D01*
X175492Y98237D01*
X175217Y97713D01*
X175351Y97561D01*
X175351Y97561D01*
G37*
G36*
X209910Y95823D02*
X210081Y95877D01*
X213151Y113153D01*
X194066Y111912D01*
X193999Y111734D01*
X209910Y95823D01*
X209910Y95823D01*
G37*
G36*
X223898Y94792D02*
X224138Y94837D01*
X224138Y98824D01*
X216586Y114224D01*
X216327Y114109D01*
X223898Y94792D01*
X223898Y94792D01*
G37*
G36*
X232111Y94729D02*
X258754Y107049D01*
X258654Y107308D01*
X232111Y98898D01*
X232111Y94729D01*
X232111Y94729D01*
G37*
G36*
X232186Y94764D02*
X259742Y107501D01*
X259619Y107768D01*
X258504Y107259D01*
X232062Y95032D01*
X232186Y94764D01*
X232186Y94764D01*
G37*
G36*
X206470Y94345D02*
X206596Y94544D01*
X192723Y108417D01*
X183796Y102550D01*
X183818Y102368D01*
X206470Y94345D01*
X206470Y94345D01*
G37*
G36*
X180285Y92636D02*
X180457Y92692D01*
X181632Y100197D01*
X175128Y97793D01*
X180285Y92636D01*
X180285Y92636D01*
G37*
G36*
X229993Y92552D02*
X259742Y107506D01*
X259616Y107768D01*
X232173Y95083D01*
X229846Y92756D01*
X229993Y92552D01*
X229993Y92552D01*
G37*
G36*
X216544Y87998D02*
X224165Y94919D01*
X216609Y114199D01*
X216368Y114154D01*
X216368Y88076D01*
X216544Y87998D01*
X216544Y87998D01*
G37*
G36*
X216464Y87984D02*
X226462Y92697D01*
X223996Y95163D01*
X216323Y88196D01*
X216464Y87984D01*
X216464Y87984D01*
G37*
G36*
X216431Y87987D02*
X230205Y92641D01*
X230165Y92888D01*
X226177Y92888D01*
X216327Y88246D01*
X216431Y87987D01*
X216431Y87987D01*
G37*
G36*
X200302Y86813D02*
X206655Y94592D01*
X183890Y102656D01*
X183765Y102451D01*
X200302Y86813D01*
X200302Y86813D01*
G37*
G36*
X199471Y86750D02*
X200402Y86898D01*
X200456Y87073D01*
X183949Y102684D01*
X183746Y102475D01*
X199471Y86750D01*
X199471Y86750D01*
G37*
G36*
X201407Y86703D02*
X206608Y94559D01*
X206382Y94725D01*
X200120Y87057D01*
X200181Y86897D01*
X201407Y86703D01*
X201407Y86703D01*
G37*
G36*
X212871Y86539D02*
X213120Y86578D01*
X213120Y113129D01*
X212851Y113153D01*
X209799Y95980D01*
X212871Y86539D01*
X212871Y86539D01*
G37*
G36*
X202347Y86183D02*
X206603Y94581D01*
X206362Y94721D01*
X201122Y86807D01*
X202347Y86183D01*
X202347Y86183D01*
G37*
G36*
X15505Y85890D02*
X15676Y85945D01*
X15878Y87125D01*
X14527Y87125D01*
X14452Y86943D01*
X15505Y85890D01*
X15505Y85890D01*
G37*
G36*
X203090Y85365D02*
X206596Y94602D01*
X206339Y94715D01*
X202102Y86353D01*
X203090Y85365D01*
X203090Y85365D01*
G37*
G36*
X220515Y84821D02*
X259744Y107517D01*
X259608Y107769D01*
X229959Y92865D01*
X220360Y85045D01*
X220515Y84821D01*
X220515Y84821D01*
G37*
G36*
X220561Y84828D02*
X230228Y92704D01*
X230109Y92920D01*
X216385Y88284D01*
X216356Y88110D01*
X220561Y84828D01*
X220561Y84828D01*
G37*
G36*
X219741Y84738D02*
X220678Y84886D01*
X220726Y85074D01*
X216497Y88374D01*
X216313Y88166D01*
X219741Y84738D01*
X219741Y84738D01*
G37*
G36*
X221637Y84696D02*
X259748Y107521D01*
X259599Y107774D01*
X220395Y85092D01*
X220433Y84887D01*
X221637Y84696D01*
X221637Y84696D01*
G37*
G36*
X203429Y84528D02*
X203629Y84547D01*
X206590Y94618D01*
X206320Y94708D01*
X202872Y85622D01*
X203429Y84528D01*
X203429Y84528D01*
G37*
G36*
X197062Y84214D02*
X197210Y84418D01*
X181488Y100139D01*
X181316Y100083D01*
X180163Y92721D01*
X197062Y84214D01*
X197062Y84214D01*
G37*
G36*
X222561Y84199D02*
X259748Y107525D01*
X259596Y107774D01*
X221457Y84933D01*
X221463Y84759D01*
X222561Y84199D01*
X222561Y84199D01*
G37*
G36*
X197008Y83405D02*
X197179Y84486D01*
X180263Y93001D01*
X180127Y92745D01*
X197008Y83405D01*
X197008Y83405D01*
G37*
G36*
X203795Y83483D02*
X206586Y94628D01*
X206307Y94704D01*
X203364Y84694D01*
X203554Y83494D01*
X203795Y83483D01*
X203795Y83483D01*
G37*
G36*
X223285Y83428D02*
X259749Y107530D01*
X259591Y107775D01*
X222318Y84395D01*
X223285Y83428D01*
X223285Y83428D01*
G37*
G36*
X257622Y82684D02*
X273594Y180479D01*
X273304Y180528D01*
X261101Y110241D01*
X257333Y82727D01*
X257622Y82684D01*
X257622Y82684D01*
G37*
G36*
X257626Y82685D02*
X261411Y110334D01*
X261144Y110392D01*
X260798Y109215D01*
X257334Y82725D01*
X257626Y82685D01*
X257626Y82685D01*
G37*
G36*
X257627Y82687D02*
X261105Y109283D01*
X260883Y109364D01*
X260218Y108329D01*
X257336Y82722D01*
X257627Y82687D01*
X257627Y82687D01*
G37*
G36*
X257630Y82690D02*
X260518Y108362D01*
X260340Y108456D01*
X259404Y107645D01*
X257340Y82719D01*
X257630Y82690D01*
X257630Y82690D01*
G37*
G36*
X257635Y82701D02*
X259701Y107653D01*
X259542Y107747D01*
X223132Y83681D01*
X223192Y83473D01*
X257635Y82701D01*
X257635Y82701D01*
G37*
G36*
X256400Y82528D02*
X257656Y82727D01*
X257638Y82996D01*
X223160Y83769D01*
X223153Y83475D01*
X256400Y82528D01*
X256400Y82528D01*
G37*
G36*
X258733Y82507D02*
X273593Y180481D01*
X273303Y180527D01*
X257330Y82729D01*
X258733Y82507D01*
X258733Y82507D01*
G37*
G36*
X223696Y82524D02*
X256536Y82528D01*
X256540Y82819D01*
X223060Y83773D01*
X223696Y82524D01*
X223696Y82524D01*
G37*
G36*
X197065Y82412D02*
X197222Y82517D01*
X197029Y83730D01*
X180270Y93003D01*
X180125Y92754D01*
X197065Y82412D01*
X197065Y82412D01*
G37*
G36*
X203625Y82415D02*
X206586Y94631D01*
X206300Y94702D01*
X203536Y83666D01*
X203347Y82471D01*
X203625Y82415D01*
X203625Y82415D01*
G37*
G36*
X255424Y82017D02*
X256561Y82597D01*
X256507Y82823D01*
X223640Y82820D01*
X223637Y82527D01*
X255424Y82017D01*
X255424Y82017D01*
G37*
G36*
X259727Y81940D02*
X273591Y180483D01*
X273301Y180525D01*
X258447Y82592D01*
X259727Y81940D01*
X259727Y81940D01*
G37*
G36*
X197558Y81456D02*
X197726Y81608D01*
X197174Y82692D01*
X180278Y93006D01*
X180123Y92760D01*
X197558Y81456D01*
X197558Y81456D01*
G37*
G36*
X217113Y81456D02*
X217297Y81506D01*
X217445Y82441D01*
X212978Y86908D01*
X212769Y86719D01*
X217113Y81456D01*
X217113Y81456D01*
G37*
G36*
X223826Y81474D02*
X255537Y82021D01*
X255537Y82311D01*
X223613Y82822D01*
X223826Y81474D01*
X223826Y81474D01*
G37*
G36*
X5695Y81269D02*
X5851Y81353D01*
X5851Y82125D01*
X4781Y82125D01*
X4718Y81915D01*
X5695Y81269D01*
X5695Y81269D01*
G37*
G36*
X15689Y81291D02*
X15855Y87111D01*
X15581Y87138D01*
X15398Y86071D01*
X15398Y81295D01*
X15689Y81291D01*
X15689Y81291D01*
G37*
G36*
X254656Y81223D02*
X255564Y82132D01*
X255486Y82315D01*
X223804Y81769D01*
X223805Y81477D01*
X254656Y81223D01*
X254656Y81223D01*
G37*
G36*
X260364Y81202D02*
X260538Y81261D01*
X273590Y180485D01*
X273299Y180524D01*
X259453Y82113D01*
X260364Y81202D01*
X260364Y81202D01*
G37*
G36*
X198323Y80694D02*
X198492Y80901D01*
X197636Y81757D01*
X180283Y93008D01*
X180121Y92762D01*
X198323Y80694D01*
X198323Y80694D01*
G37*
G36*
X217279Y80394D02*
X217496Y80483D01*
X217305Y81686D01*
X212996Y86908D01*
X212770Y86735D01*
X217279Y80394D01*
X217279Y80394D01*
G37*
G36*
X223612Y80423D02*
X254744Y81228D01*
X254741Y81518D01*
X223826Y81772D01*
X223612Y80423D01*
X223612Y80423D01*
G37*
G36*
X254175Y80222D02*
X254839Y81525D01*
X223637Y80719D01*
X223640Y80428D01*
X254175Y80222D01*
X254175Y80222D01*
G37*
G36*
X260832Y80206D02*
X261047Y80244D01*
X273589Y180486D01*
X273297Y180523D01*
X260252Y81345D01*
X260832Y80206D01*
X260832Y80206D01*
G37*
G36*
X15570Y79712D02*
X15851Y79726D01*
X15851Y87123D01*
X15560Y87128D01*
X15398Y81436D01*
X15570Y79712D01*
X15570Y79712D01*
G37*
G36*
X217770Y79431D02*
X218008Y79573D01*
X217458Y80652D01*
X213008Y86909D01*
X212768Y86742D01*
X217770Y79431D01*
X217770Y79431D01*
G37*
G36*
X223060Y79475D02*
X254234Y80227D01*
X254232Y80517D01*
X223696Y80723D01*
X223060Y79475D01*
X223060Y79475D01*
G37*
G36*
X254035Y79112D02*
X254259Y80523D01*
X223156Y79773D01*
X223157Y79483D01*
X254035Y79112D01*
X254035Y79112D01*
G37*
G36*
X260964Y79111D02*
X261221Y79116D01*
X273589Y180487D01*
X273296Y180523D01*
X260765Y80368D01*
X260964Y79111D01*
X260964Y79111D01*
G37*
G36*
X222456Y78730D02*
X254057Y79115D01*
X254057Y79407D01*
X223244Y79777D01*
X222379Y78913D01*
X222456Y78730D01*
X222456Y78730D01*
G37*
G36*
X8322Y78622D02*
X8522Y78830D01*
X5797Y81556D01*
X4858Y82176D01*
X4690Y81961D01*
X8322Y78622D01*
X8322Y78622D01*
G37*
G36*
X12873Y78648D02*
X15861Y79768D01*
X15683Y81548D01*
X15507Y81611D01*
X12745Y78848D01*
X12873Y78648D01*
X12873Y78648D01*
G37*
G36*
X16840Y78681D02*
X16915Y78863D01*
X15740Y80038D01*
X12766Y78923D01*
X12810Y78681D01*
X16840Y78681D01*
X16840Y78681D01*
G37*
G36*
X221493Y78246D02*
X254060Y79118D01*
X254054Y79411D01*
X222517Y79026D01*
X221435Y78474D01*
X221493Y78246D01*
X221493Y78246D01*
G37*
G36*
X220425Y78078D02*
X254061Y79118D01*
X254053Y79413D01*
X221594Y78544D01*
X220399Y78354D01*
X220425Y78078D01*
X220425Y78078D01*
G37*
G36*
X254258Y78004D02*
X254035Y79413D01*
X220409Y78373D01*
X220413Y78083D01*
X254258Y78004D01*
X254258Y78004D01*
G37*
G36*
X254840Y76996D02*
X254176Y78299D01*
X220414Y78378D01*
X220409Y78087D01*
X254840Y76996D01*
X254840Y76996D01*
G37*
G36*
X255483Y76204D02*
X255566Y76390D01*
X254658Y77297D01*
X220418Y78383D01*
X220405Y78091D01*
X255483Y76204D01*
X255483Y76204D01*
G37*
G36*
X256500Y75692D02*
X256564Y75924D01*
X255428Y76503D01*
X220420Y78386D01*
X220403Y78093D01*
X256500Y75692D01*
X256500Y75692D01*
G37*
G36*
X257630Y75514D02*
X257662Y75795D01*
X256407Y75994D01*
X220422Y78387D01*
X220402Y78093D01*
X257630Y75514D01*
X257630Y75514D01*
G37*
G36*
X180178Y73615D02*
X198431Y80786D01*
X198450Y80965D01*
X180333Y92976D01*
X180178Y92893D01*
X180178Y73615D01*
X180178Y73615D01*
G37*
G36*
X180237Y73645D02*
X199380Y80302D01*
X199393Y80496D01*
X198301Y81053D01*
X180137Y73917D01*
X180237Y73645D01*
X180237Y73645D01*
G37*
G36*
X180232Y73647D02*
X200444Y80138D01*
X200426Y80371D01*
X199226Y80561D01*
X180139Y73924D01*
X180232Y73647D01*
X180232Y73647D01*
G37*
G36*
X180229Y73647D02*
X201512Y80309D01*
X201449Y80576D01*
X200254Y80387D01*
X180140Y73928D01*
X180229Y73647D01*
X180229Y73647D01*
G37*
G36*
X180419Y73618D02*
X201522Y80313D01*
X201433Y80594D01*
X180187Y73943D01*
X180170Y73746D01*
X180419Y73618D01*
X180419Y73618D01*
G37*
G36*
X181102Y72899D02*
X201523Y80320D01*
X201430Y80593D01*
X180156Y73845D01*
X181102Y72899D01*
X181102Y72899D01*
G37*
G36*
X181524Y71990D02*
X201527Y80328D01*
X201422Y80597D01*
X180932Y73152D01*
X181524Y71990D01*
X181524Y71990D01*
G37*
G36*
X181635Y70974D02*
X201530Y80337D01*
X201413Y80601D01*
X181430Y72271D01*
X181635Y70974D01*
X181635Y70974D01*
G37*
G36*
X206296Y70811D02*
X206556Y70842D01*
X206556Y94654D01*
X206295Y94685D01*
X203363Y82587D01*
X206296Y70811D01*
X206296Y70811D01*
G37*
G36*
X206310Y70792D02*
X206586Y70870D01*
X203634Y82723D01*
X203430Y82746D01*
X202874Y81655D01*
X206310Y70792D01*
X206310Y70792D01*
G37*
G36*
X206326Y70786D02*
X206591Y70883D01*
X203101Y81918D01*
X202108Y80926D01*
X206326Y70786D01*
X206326Y70786D01*
G37*
G36*
X206344Y70779D02*
X206598Y70900D01*
X202358Y81095D01*
X201135Y80472D01*
X206344Y70779D01*
X206344Y70779D01*
G37*
G36*
X206656Y70823D02*
X201400Y80602D01*
X181581Y71275D01*
X181631Y71045D01*
X206656Y70823D01*
X206656Y70823D01*
G37*
G36*
X210071Y70813D02*
X213125Y86714D01*
X210053Y96156D01*
X209804Y96117D01*
X209804Y70839D01*
X210071Y70813D01*
X210071Y70813D01*
G37*
G36*
X209985Y70791D02*
X218002Y79616D01*
X213039Y86869D01*
X212846Y86829D01*
X209785Y70891D01*
X209985Y70791D01*
X209985Y70791D01*
G37*
G36*
X209947Y70769D02*
X218778Y78874D01*
X217809Y79843D01*
X209747Y70968D01*
X209947Y70769D01*
X209947Y70769D01*
G37*
G36*
X209930Y70770D02*
X219785Y78422D01*
X218540Y79056D01*
X209747Y70986D01*
X209930Y70770D01*
X209930Y70770D01*
G37*
G36*
X209916Y70770D02*
X220725Y78165D01*
X220681Y78360D01*
X219470Y78552D01*
X209747Y71002D01*
X209916Y70770D01*
X209916Y70770D01*
G37*
G36*
X209852Y70815D02*
X257649Y75538D01*
X257645Y75809D01*
X220518Y78381D01*
X209773Y71030D01*
X209852Y70815D01*
X209852Y70815D01*
G37*
G36*
X206702Y70627D02*
X206780Y70810D01*
X206470Y71120D01*
X181604Y71341D01*
X181601Y71046D01*
X206702Y70627D01*
X206702Y70627D01*
G37*
G36*
X209666Y70619D02*
X257661Y75539D01*
X257632Y75833D01*
X209884Y71115D01*
X209576Y70807D01*
X209666Y70619D01*
X209666Y70619D01*
G37*
G36*
X181420Y70052D02*
X206753Y70632D01*
X206752Y70921D01*
X181624Y71341D01*
X181420Y70052D01*
X181420Y70052D01*
G37*
G36*
X175979Y69126D02*
X176152Y69278D01*
X175980Y69615D01*
X175753Y69560D01*
X175753Y69281D01*
X175979Y69126D01*
X175979Y69126D01*
G37*
G36*
X181063Y69161D02*
X206758Y70637D01*
X206746Y70927D01*
X181502Y70349D01*
X180969Y69304D01*
X181063Y69161D01*
X181063Y69161D01*
G37*
G36*
X176677Y68398D02*
X176883Y68606D01*
X176063Y69427D01*
X175873Y69557D01*
X175701Y69348D01*
X176677Y68398D01*
X176677Y68398D01*
G37*
G36*
X180342Y68450D02*
X206762Y70641D01*
X206742Y70932D01*
X181075Y69457D01*
X180255Y68637D01*
X180342Y68450D01*
X180342Y68450D01*
G37*
G36*
X28773Y68031D02*
X29048Y68097D01*
X25665Y85418D01*
X25398Y85392D01*
X25398Y79845D01*
X28773Y68031D01*
X28773Y68031D01*
G37*
G36*
X28793Y68022D02*
X29057Y68114D01*
X25619Y80148D01*
X24334Y78863D01*
X28793Y68022D01*
X28793Y68022D01*
G37*
G36*
X28900Y68029D02*
X29052Y68168D01*
X24607Y78976D01*
X8200Y78976D01*
X8145Y78750D01*
X28900Y68029D01*
X28900Y68029D01*
G37*
G36*
X179434Y67993D02*
X206765Y70643D01*
X206739Y70935D01*
X180391Y68750D01*
X179366Y68228D01*
X179434Y67993D01*
X179434Y67993D01*
G37*
G36*
X175571Y67942D02*
X176933Y68561D01*
X175943Y69524D01*
X175778Y69477D01*
X175429Y68060D01*
X175571Y67942D01*
X175571Y67942D01*
G37*
G36*
X175477Y67965D02*
X177684Y68006D01*
X177736Y68231D01*
X176679Y68770D01*
X175424Y68199D01*
X175477Y67965D01*
X175477Y67965D01*
G37*
G36*
X27862Y67897D02*
X29005Y68079D01*
X29039Y68290D01*
X8254Y79026D01*
X8117Y78769D01*
X27862Y67897D01*
X27862Y67897D01*
G37*
G36*
X30062Y67870D02*
X25654Y85433D01*
X25373Y85371D01*
X28751Y68078D01*
X30062Y67870D01*
X30062Y67870D01*
G37*
G36*
X178687Y67842D02*
X178714Y68119D01*
X177576Y68300D01*
X175448Y68260D01*
X175445Y67973D01*
X178687Y67842D01*
X178687Y67842D01*
G37*
G36*
X178426Y67834D02*
X206766Y70644D01*
X206737Y70937D01*
X179523Y68298D01*
X178389Y68119D01*
X178426Y67834D01*
X178426Y67834D01*
G37*
G36*
X26992Y67428D02*
X28035Y67960D01*
X28038Y68138D01*
X8260Y79027D01*
X8116Y78776D01*
X26992Y67428D01*
X26992Y67428D01*
G37*
G36*
X30775Y67422D02*
X30924Y67546D01*
X25646Y85438D01*
X25367Y85362D01*
X29737Y67950D01*
X30775Y67422D01*
X30775Y67422D01*
G37*
G36*
X174946Y66811D02*
X178715Y67888D01*
X178685Y68138D01*
X175507Y68266D01*
X174823Y66962D01*
X174946Y66811D01*
X174946Y66811D01*
G37*
G36*
X174881Y66817D02*
X206767Y70647D01*
X206736Y70938D01*
X178526Y68141D01*
X174827Y67085D01*
X174881Y66817D01*
X174881Y66817D01*
G37*
G36*
X26309Y66700D02*
X27235Y67626D01*
X8268Y79029D01*
X8114Y78785D01*
X26309Y66700D01*
X26309Y66700D01*
G37*
G36*
X31440Y66703D02*
X31638Y66825D01*
X25642Y85442D01*
X25363Y85356D01*
X30624Y67519D01*
X31440Y66703D01*
X31440Y66703D01*
G37*
G36*
X174068Y65860D02*
X206770Y70651D01*
X206732Y70940D01*
X174926Y67120D01*
X173970Y66042D01*
X174068Y65860D01*
X174068Y65860D01*
G37*
G36*
X25889Y65777D02*
X26482Y66940D01*
X8277Y79031D01*
X8112Y78794D01*
X25889Y65777D01*
X25889Y65777D01*
G37*
G36*
X31847Y65810D02*
X32099Y65915D01*
X25640Y85444D01*
X25360Y85353D01*
X31325Y66834D01*
X31847Y65810D01*
X31847Y65810D01*
G37*
G36*
X173002Y65128D02*
X206773Y70654D01*
X206728Y70943D01*
X174094Y66162D01*
X172914Y65347D01*
X173002Y65128D01*
X173002Y65128D01*
G37*
G36*
X25786Y64738D02*
X25996Y66065D01*
X8286Y79033D01*
X8111Y78803D01*
X25786Y64738D01*
X25786Y64738D01*
G37*
G36*
X172213Y64832D02*
X206774Y70655D01*
X206726Y70946D01*
X173056Y65436D01*
X172143Y65090D01*
X172213Y64832D01*
X172213Y64832D01*
G37*
G36*
X173081Y64553D02*
X206775Y70657D01*
X206725Y70946D01*
X172185Y65126D01*
X172163Y64902D01*
X173081Y64553D01*
X173081Y64553D01*
G37*
G36*
X25819Y63845D02*
X25998Y63945D01*
X25817Y65091D01*
X8294Y79034D01*
X8109Y78809D01*
X25819Y63845D01*
X25819Y63845D01*
G37*
G36*
X174118Y63821D02*
X206778Y70662D01*
X206722Y70947D01*
X172971Y64834D01*
X172930Y64641D01*
X174118Y63821D01*
X174118Y63821D01*
G37*
G36*
X26285Y62941D02*
X26477Y63091D01*
X25954Y64117D01*
X8299Y79036D01*
X8108Y78813D01*
X26285Y62941D01*
X26285Y62941D01*
G37*
G36*
X174948Y62854D02*
X206781Y70667D01*
X206717Y70950D01*
X173870Y64070D01*
X174948Y62854D01*
X174948Y62854D01*
G37*
G36*
X26524Y62704D02*
X26719Y62912D01*
X26391Y63240D01*
X8302Y79037D01*
X8108Y78814D01*
X26524Y62704D01*
X26524Y62704D01*
G37*
G36*
X175520Y61709D02*
X206785Y70674D01*
X206710Y70954D01*
X174781Y63117D01*
X175520Y61709D01*
X175520Y61709D01*
G37*
G36*
X175796Y60450D02*
X206788Y70681D01*
X206703Y70958D01*
X175417Y61987D01*
X175796Y60450D01*
X175796Y60450D01*
G37*
G36*
X14699Y60187D02*
X26634Y62784D01*
X26680Y62960D01*
X8327Y79014D01*
X8139Y78887D01*
X14699Y60187D01*
X14699Y60187D01*
G37*
G36*
X14719Y60169D02*
X14981Y60275D01*
X8443Y78912D01*
X4902Y82168D01*
X4706Y82026D01*
X14719Y60169D01*
X14719Y60169D01*
G37*
G36*
X14730Y60163D02*
X14989Y60289D01*
X5014Y82063D01*
X2180Y84897D01*
X1976Y84748D01*
X14730Y60163D01*
X14730Y60163D01*
G37*
G36*
X16473Y60211D02*
X26691Y62801D01*
X26625Y63084D01*
X14634Y60475D01*
X14662Y60211D01*
X16473Y60211D01*
X16473Y60211D01*
G37*
G36*
X34727Y60168D02*
X34982Y60280D01*
X25634Y85445D01*
X25360Y85349D01*
X31780Y65942D01*
X34727Y60168D01*
X34727Y60168D01*
G37*
G36*
X34740Y60160D02*
X34992Y60298D01*
X31990Y66178D01*
X31751Y66100D01*
X31931Y64961D01*
X34740Y60160D01*
X34740Y60160D01*
G37*
G36*
X34764Y60159D02*
X34992Y60314D01*
X32148Y65176D01*
X31943Y65137D01*
X31760Y63983D01*
X34764Y60159D01*
X34764Y60159D01*
G37*
G36*
X34803Y60160D02*
X34993Y60345D01*
X31890Y64297D01*
X31277Y63095D01*
X34803Y60160D01*
X34803Y60160D01*
G37*
G36*
X34825Y60156D02*
X34999Y60381D01*
X31453Y63332D01*
X31011Y62890D01*
X34825Y60156D01*
X34825Y60156D01*
G37*
G36*
X36680Y60211D02*
X25623Y85449D01*
X25357Y85341D01*
X34692Y60211D01*
X36680Y60211D01*
X36680Y60211D01*
G37*
G36*
X13572Y60034D02*
X15022Y60242D01*
X2229Y84900D01*
X1970Y84772D01*
X13572Y60034D01*
X13572Y60034D01*
G37*
G36*
X17601Y60045D02*
X26695Y62810D01*
X26618Y63087D01*
X16300Y60472D01*
X16313Y60230D01*
X17601Y60045D01*
X17601Y60045D01*
G37*
G36*
X33602Y60038D02*
X34915Y60227D01*
X34962Y60421D01*
X31217Y63106D01*
X31040Y62909D01*
X33602Y60038D01*
X33602Y60038D01*
G37*
G36*
X37656Y60037D02*
X37761Y60180D01*
X25616Y85453D01*
X25352Y85332D01*
X36352Y60224D01*
X37656Y60037D01*
X37656Y60037D01*
G37*
G36*
X12500Y59504D02*
X13857Y60123D01*
X2237Y84897D01*
X1973Y84780D01*
X12500Y59504D01*
X12500Y59504D01*
G37*
G36*
X18668Y59541D02*
X26700Y62826D01*
X26606Y63091D01*
X17449Y60307D01*
X17435Y60104D01*
X18668Y59541D01*
X18668Y59541D01*
G37*
G36*
X32500Y59504D02*
X33903Y60144D01*
X31265Y63100D01*
X31054Y62967D01*
X32500Y59504D01*
X32500Y59504D01*
G37*
G36*
X38706Y59523D02*
X38851Y59675D01*
X25611Y85455D01*
X25350Y85325D01*
X37479Y60083D01*
X38706Y59523D01*
X38706Y59523D01*
G37*
G36*
X175753Y59146D02*
X206792Y70688D01*
X206696Y70962D01*
X175753Y60747D01*
X175753Y59146D01*
X175753Y59146D01*
G37*
G36*
X250084Y58795D02*
X260596Y77190D01*
X260391Y77347D01*
X259491Y76447D01*
X249828Y58939D01*
X250084Y58795D01*
X250084Y58795D01*
G37*
G36*
X250088Y58797D02*
X259792Y76381D01*
X259640Y76538D01*
X258499Y75957D01*
X249831Y58933D01*
X250088Y58797D01*
X250088Y58797D01*
G37*
G36*
X250095Y58800D02*
X258781Y75861D01*
X258675Y76007D01*
X257397Y75805D01*
X249835Y58925D01*
X250095Y58800D01*
X250095Y58800D01*
G37*
G36*
X250111Y58818D02*
X257739Y75844D01*
X209618Y70911D01*
X209596Y70669D01*
X250111Y58818D01*
X250111Y58818D01*
G37*
G36*
X256338Y58848D02*
X260576Y77242D01*
X260339Y77335D01*
X249774Y58848D01*
X256338Y58848D01*
X256338Y58848D01*
G37*
G36*
X256329Y58818D02*
X261089Y78245D01*
X260842Y78336D01*
X260264Y77202D01*
X256044Y58886D01*
X256329Y58818D01*
X256329Y58818D01*
G37*
G36*
X11614Y58671D02*
X12755Y59660D01*
X2246Y84894D01*
X1976Y84788D01*
X11614Y58671D01*
X11614Y58671D01*
G37*
G36*
X19553Y58742D02*
X26707Y62850D01*
X26586Y63098D01*
X18393Y59747D01*
X19553Y58742D01*
X19553Y58742D01*
G37*
G36*
X31708Y58752D02*
X32755Y59660D01*
X31325Y63084D01*
X31078Y63020D01*
X31542Y58817D01*
X31708Y58752D01*
X31708Y58752D01*
G37*
G36*
X39566Y58730D02*
X39758Y58883D01*
X25607Y85457D01*
X25348Y85321D01*
X38553Y59609D01*
X39566Y58730D01*
X39566Y58730D01*
G37*
G36*
X31303Y58065D02*
X31831Y58887D01*
X31370Y63064D01*
X31091Y63049D01*
X31091Y58127D01*
X31303Y58065D01*
X31303Y58065D01*
G37*
G36*
X175566Y57944D02*
X206795Y70694D01*
X206689Y70965D01*
X175776Y59470D01*
X175429Y58062D01*
X175566Y57944D01*
X175566Y57944D01*
G37*
G36*
X11109Y57764D02*
X11843Y58904D01*
X2253Y84891D01*
X1979Y84795D01*
X10925Y57787D01*
X11109Y57764D01*
X11109Y57764D01*
G37*
G36*
X20177Y57705D02*
X26713Y62878D01*
X26559Y63105D01*
X19362Y58973D01*
X20177Y57705D01*
X20177Y57705D01*
G37*
G36*
X40166Y57722D02*
X40411Y57866D01*
X25606Y85458D01*
X25346Y85319D01*
X39443Y58848D01*
X40166Y57722D01*
X40166Y57722D01*
G37*
G36*
X201142Y57522D02*
X206779Y70810D01*
X206640Y70950D01*
X175427Y58206D01*
X175471Y57969D01*
X201142Y57522D01*
X201142Y57522D01*
G37*
G36*
X202814Y57524D02*
X206786Y70868D01*
X206523Y70962D01*
X200822Y57524D01*
X202814Y57524D01*
X202814Y57524D01*
G37*
G36*
X199918Y57361D02*
X201201Y57545D01*
X201184Y57817D01*
X175450Y58265D01*
X175444Y57971D01*
X199918Y57361D01*
X199918Y57361D01*
G37*
G36*
X203956Y57343D02*
X206778Y70885D01*
X206504Y70954D01*
X202514Y57550D01*
X203956Y57343D01*
X203956Y57343D01*
G37*
G36*
X198856Y56865D02*
X200078Y57423D01*
X200031Y57653D01*
X175452Y58266D01*
X175442Y57974D01*
X198856Y56865D01*
X198856Y56865D01*
G37*
G36*
X205043Y56796D02*
X206768Y70899D01*
X206489Y70945D01*
X203671Y57423D01*
X205043Y56796D01*
X205043Y56796D01*
G37*
G36*
X174755Y56832D02*
X198972Y56867D01*
X198979Y57155D01*
X175507Y58267D01*
X174755Y56832D01*
X174755Y56832D01*
G37*
G36*
X10591Y56632D02*
X10811Y56633D01*
X11190Y57924D01*
X2259Y84889D01*
X1981Y84800D01*
X10591Y56632D01*
X10591Y56632D01*
G37*
G36*
X20478Y56496D02*
X26716Y62905D01*
X26531Y63111D01*
X20044Y57976D01*
X20478Y56496D01*
X20478Y56496D01*
G37*
G36*
X197982Y56086D02*
X199002Y56970D01*
X198930Y57162D01*
X174854Y57127D01*
X174849Y56837D01*
X197982Y56086D01*
X197982Y56086D01*
G37*
G36*
X205793Y56063D02*
X205963Y56135D01*
X206760Y70911D01*
X206476Y70936D01*
X204765Y56954D01*
X205793Y56063D01*
X205793Y56063D01*
G37*
G36*
X174055Y55872D02*
X198075Y56089D01*
X198078Y56378D01*
X174934Y57130D01*
X173975Y56047D01*
X174055Y55872D01*
X174055Y55872D01*
G37*
G36*
X246663Y55422D02*
X250309Y59067D01*
X209661Y70957D01*
X209569Y70693D01*
X246663Y55422D01*
X246663Y55422D01*
G37*
G36*
X259584Y55424D02*
X259762Y55492D01*
X261069Y78278D01*
X260802Y78318D01*
X256057Y58950D01*
X259584Y55424D01*
X259584Y55424D01*
G37*
G36*
X259759Y55439D02*
X261246Y79393D01*
X260966Y79423D01*
X260767Y78168D01*
X259465Y55457D01*
X259759Y55439D01*
X259759Y55439D01*
G37*
G36*
X259751Y55436D02*
X273588Y180488D01*
X273296Y180522D01*
X260942Y79275D01*
X259464Y55461D01*
X259751Y55436D01*
X259751Y55436D01*
G37*
G36*
X10595Y55426D02*
X10848Y55463D01*
X10848Y56802D01*
X2263Y84887D01*
X1982Y84803D01*
X10595Y55426D01*
X10595Y55426D01*
G37*
G36*
X20597Y55417D02*
X26718Y62925D01*
X26507Y63113D01*
X20401Y56840D01*
X20401Y55487D01*
X20597Y55417D01*
X20597Y55417D01*
G37*
G36*
X172990Y55141D02*
X198080Y56093D01*
X198073Y56384D01*
X174103Y56168D01*
X172920Y55352D01*
X172990Y55141D01*
X172990Y55141D01*
G37*
G36*
X197366Y55087D02*
X198101Y56231D01*
X198012Y56386D01*
X172944Y55435D01*
X172950Y55146D01*
X197366Y55087D01*
X197366Y55087D01*
G37*
G36*
X206399Y55062D02*
X206610Y55123D01*
X206754Y70919D01*
X206465Y70928D01*
X205670Y56196D01*
X206399Y55062D01*
X206399Y55062D01*
G37*
G36*
X172199Y54851D02*
X197434Y55088D01*
X197433Y55382D01*
X173068Y55441D01*
X172153Y55094D01*
X172199Y54851D01*
X172199Y54851D01*
G37*
G36*
X206499Y54590D02*
X206752Y54626D01*
X206752Y70923D01*
X206458Y70925D01*
X206316Y55214D01*
X206499Y54590D01*
X206499Y54590D01*
G37*
G36*
X173069Y54558D02*
X197435Y55090D01*
X197431Y55384D01*
X172197Y55146D01*
X172154Y54905D01*
X173069Y54558D01*
X173069Y54558D01*
G37*
G36*
X20258Y54262D02*
X26719Y62937D01*
X26491Y63114D01*
X20415Y55661D01*
X20037Y54372D01*
X20258Y54262D01*
X20258Y54262D01*
G37*
G36*
X197060Y53943D02*
X197484Y55387D01*
X172947Y54850D01*
X172947Y54562D01*
X197060Y53943D01*
X197060Y53943D01*
G37*
G36*
X174104Y53830D02*
X197096Y53946D01*
X197099Y54237D01*
X172988Y54856D01*
X172920Y54647D01*
X174104Y53830D01*
X174104Y53830D01*
G37*
G36*
X19605Y53246D02*
X26720Y62940D01*
X26484Y63115D01*
X20092Y54533D01*
X19369Y53408D01*
X19605Y53246D01*
X19605Y53246D01*
G37*
G36*
X174935Y52868D02*
X197102Y53953D01*
X197094Y54242D01*
X174053Y54125D01*
X173976Y53951D01*
X174935Y52868D01*
X174935Y52868D01*
G37*
G36*
X197098Y52755D02*
X197098Y54248D01*
X174848Y53159D01*
X174854Y52872D01*
X197098Y52755D01*
X197098Y52755D01*
G37*
G36*
X175507Y51732D02*
X197101Y52763D01*
X197095Y53051D01*
X174754Y53168D01*
X175507Y51732D01*
X175507Y51732D01*
G37*
G36*
X12430Y51598D02*
X13647Y52154D01*
X13647Y52343D01*
X12430Y52899D01*
X12430Y51598D01*
X12430Y51598D01*
G37*
G36*
X12504Y51656D02*
X12725Y51713D01*
X12725Y52737D01*
X11682Y53641D01*
X11489Y53485D01*
X12504Y51656D01*
X12504Y51656D01*
G37*
G36*
X12524Y51627D02*
X12777Y51771D01*
X11805Y53524D01*
X11081Y54651D01*
X10835Y54499D01*
X12524Y51627D01*
X12524Y51627D01*
G37*
G36*
X18819Y51598D02*
X18819Y52899D01*
X17602Y52343D01*
X17602Y52154D01*
X18819Y51598D01*
X18819Y51598D01*
G37*
G36*
X18745Y51656D02*
X19760Y53485D01*
X19567Y53641D01*
X18524Y52737D01*
X18524Y51713D01*
X18745Y51656D01*
X18745Y51656D01*
G37*
G36*
X18711Y51628D02*
X26719Y62943D01*
X26482Y63114D01*
X19446Y53528D01*
X18475Y51777D01*
X18711Y51628D01*
X18711Y51628D01*
G37*
G36*
X38819Y51598D02*
X38819Y52899D01*
X37602Y52343D01*
X37602Y52154D01*
X38819Y51598D01*
X38819Y51598D01*
G37*
G36*
X38745Y51656D02*
X39760Y53485D01*
X39567Y53641D01*
X38524Y52737D01*
X38524Y51713D01*
X38745Y51656D01*
X38745Y51656D01*
G37*
G36*
X38725Y51627D02*
X40414Y54499D01*
X40168Y54651D01*
X39444Y53524D01*
X38472Y51771D01*
X38725Y51627D01*
X38725Y51627D01*
G37*
G36*
X197483Y51614D02*
X197059Y53057D01*
X175444Y52025D01*
X175450Y51738D01*
X197483Y51614D01*
X197483Y51614D01*
G37*
G36*
X11711Y50881D02*
X12767Y51796D01*
X11100Y54631D01*
X10867Y54544D01*
X11549Y50937D01*
X11711Y50881D01*
X11711Y50881D01*
G37*
G36*
X11565Y50875D02*
X11851Y50933D01*
X11179Y54484D01*
X10802Y55769D01*
X10526Y55699D01*
X11565Y50875D01*
X11565Y50875D01*
G37*
G36*
X11575Y50871D02*
X11853Y50940D01*
X10844Y55627D01*
X2265Y84886D01*
X1983Y84805D01*
X11575Y50871D01*
X11575Y50871D01*
G37*
G36*
X19608Y50820D02*
X26713Y62956D01*
X26475Y63110D01*
X18474Y51803D01*
X19608Y50820D01*
X19608Y50820D01*
G37*
G36*
X39538Y50881D02*
X39700Y50937D01*
X40382Y54544D01*
X40149Y54631D01*
X38482Y51796D01*
X39538Y50881D01*
X39538Y50881D01*
G37*
G36*
X39684Y50875D02*
X40723Y55699D01*
X40447Y55769D01*
X40070Y54484D01*
X39398Y50933D01*
X39684Y50875D01*
X39684Y50875D01*
G37*
G36*
X198011Y50610D02*
X198102Y50766D01*
X197366Y51910D01*
X175451Y52033D01*
X175443Y51744D01*
X198011Y50610D01*
X198011Y50610D01*
G37*
G36*
X175786Y50492D02*
X198073Y50615D01*
X198079Y50902D01*
X175404Y52042D01*
X175786Y50492D01*
X175786Y50492D01*
G37*
G36*
X11107Y49886D02*
X11839Y51025D01*
X2267Y84884D01*
X1986Y84808D01*
X10916Y49917D01*
X11107Y49886D01*
X11107Y49886D01*
G37*
G36*
X20136Y49895D02*
X20308Y49905D01*
X26709Y62972D01*
X26459Y63106D01*
X19397Y51045D01*
X20136Y49895D01*
X20136Y49895D01*
G37*
G36*
X40147Y49878D02*
X40354Y49932D01*
X40704Y55718D01*
X40433Y55756D01*
X39413Y51020D01*
X40147Y49878D01*
X40147Y49878D01*
G37*
G36*
X198927Y49832D02*
X199003Y50026D01*
X197983Y50910D01*
X175755Y50787D01*
X175752Y50497D01*
X198927Y49832D01*
X198927Y49832D01*
G37*
G36*
X199865Y49408D02*
X199922Y49645D01*
X198862Y50129D01*
X175759Y50792D01*
X175748Y50499D01*
X199865Y49408D01*
X199865Y49408D01*
G37*
G36*
X246628Y49233D02*
X246776Y49318D01*
X246776Y55694D01*
X209683Y70965D01*
X209561Y70718D01*
X246628Y49233D01*
X246628Y49233D01*
G37*
G36*
X259753Y49249D02*
X273587Y180489D01*
X273294Y180521D01*
X259473Y55604D01*
X259473Y49263D01*
X259753Y49249D01*
X259753Y49249D01*
G37*
G36*
X175753Y49210D02*
X199895Y49415D01*
X199900Y49702D01*
X175753Y50795D01*
X175753Y49210D01*
X175753Y49210D01*
G37*
G36*
X198859Y48992D02*
X199920Y49477D01*
X199868Y49710D01*
X175754Y49505D01*
X175753Y49213D01*
X198859Y48992D01*
X198859Y48992D01*
G37*
G36*
X10810Y48756D02*
X11189Y50045D01*
X2272Y84882D01*
X1987Y84812D01*
X10583Y48762D01*
X10810Y48756D01*
X10810Y48756D01*
G37*
G36*
X20644Y48753D02*
X26706Y62983D01*
X26445Y63103D01*
X20056Y50061D01*
X20436Y48765D01*
X20644Y48753D01*
X20644Y48753D01*
G37*
G36*
X40443Y48742D02*
X40696Y48778D01*
X40696Y55734D01*
X40410Y55743D01*
X40065Y50031D01*
X40443Y48742D01*
X40443Y48742D01*
G37*
G36*
X197981Y48211D02*
X199001Y49096D01*
X198931Y49287D01*
X175757Y49508D01*
X175750Y49218D01*
X197981Y48211D01*
X197981Y48211D01*
G37*
G36*
X175405Y47965D02*
X198074Y48215D01*
X198079Y48502D01*
X175787Y49512D01*
X175405Y47965D01*
X175405Y47965D01*
G37*
G36*
X10586Y47555D02*
X10848Y47585D01*
X10848Y48924D01*
X2274Y84881D01*
X1988Y84814D01*
X10586Y47555D01*
X10586Y47555D01*
G37*
G36*
X20641Y47549D02*
X26705Y62990D01*
X26435Y63101D01*
X20401Y48936D01*
X20401Y47594D01*
X20641Y47549D01*
X20641Y47549D01*
G37*
G36*
X197364Y47210D02*
X198100Y48356D01*
X198015Y48510D01*
X175449Y48261D01*
X175445Y47972D01*
X197364Y47210D01*
X197364Y47210D01*
G37*
G36*
X174753Y46828D02*
X197432Y47215D01*
X197434Y47503D01*
X175507Y48265D01*
X174753Y46828D01*
X174753Y46828D01*
G37*
G36*
X20300Y46390D02*
X26705Y62993D01*
X26430Y63100D01*
X20409Y47765D01*
X20032Y46481D01*
X20300Y46390D01*
X20300Y46390D01*
G37*
G36*
X197060Y46068D02*
X197484Y47512D01*
X174853Y47125D01*
X174850Y46837D01*
X197060Y46068D01*
X197060Y46068D01*
G37*
G36*
X174055Y45872D02*
X197096Y46073D01*
X197100Y46362D01*
X174935Y47130D01*
X173975Y46047D01*
X174055Y45872D01*
X174055Y45872D01*
G37*
G36*
X250063Y45809D02*
X250226Y46015D01*
X246719Y49522D01*
X209702Y70977D01*
X209553Y70727D01*
X250063Y45809D01*
X250063Y45809D01*
G37*
G36*
X172990Y45141D02*
X197101Y46077D01*
X197094Y46368D01*
X174103Y46168D01*
X172920Y45352D01*
X172990Y45141D01*
X172990Y45141D01*
G37*
G36*
X172918Y45119D02*
X197104Y46078D01*
X197092Y46373D01*
X173065Y45440D01*
X172868Y45365D01*
X172918Y45119D01*
X172918Y45119D01*
G37*
G36*
X174862Y45124D02*
X197104Y46078D01*
X197092Y46373D01*
X172887Y45413D01*
X172893Y45124D01*
X174862Y45124D01*
X174862Y45124D01*
G37*
G36*
X197098Y44880D02*
X197098Y46373D01*
X174708Y45412D01*
X174713Y45125D01*
X197098Y44880D01*
X197098Y44880D01*
G37*
G36*
X175837Y44083D02*
X197100Y44888D01*
X197096Y45176D01*
X174761Y45420D01*
X174684Y45237D01*
X175837Y44083D01*
X175837Y44083D01*
G37*
G36*
X12430Y43724D02*
X13647Y44280D01*
X13647Y44469D01*
X12430Y45025D01*
X12430Y43724D01*
X12430Y43724D01*
G37*
G36*
X12504Y43782D02*
X12725Y43839D01*
X12725Y44863D01*
X11682Y45767D01*
X11489Y45611D01*
X12504Y43782D01*
X12504Y43782D01*
G37*
G36*
X12524Y43753D02*
X12777Y43897D01*
X11805Y45650D01*
X11081Y46777D01*
X10835Y46625D01*
X12524Y43753D01*
X12524Y43753D01*
G37*
G36*
X18819Y43724D02*
X18819Y45025D01*
X17602Y44469D01*
X17602Y44280D01*
X18819Y43724D01*
X18819Y43724D01*
G37*
G36*
X18745Y43782D02*
X19760Y45611D01*
X19567Y45767D01*
X18524Y44863D01*
X18524Y43839D01*
X18745Y43782D01*
X18745Y43782D01*
G37*
G36*
X18725Y43753D02*
X20414Y46625D01*
X20168Y46777D01*
X19444Y45650D01*
X18472Y43897D01*
X18725Y43753D01*
X18725Y43753D01*
G37*
G36*
X197484Y43737D02*
X197060Y45182D01*
X175747Y44375D01*
X175750Y44088D01*
X197484Y43737D01*
X197484Y43737D01*
G37*
G36*
X209607Y43479D02*
X250145Y45862D01*
X250198Y46072D01*
X209758Y70947D01*
X209607Y70863D01*
X209607Y43479D01*
X209607Y43479D01*
G37*
G36*
X209615Y43480D02*
X256372Y45863D01*
X256364Y46151D01*
X250024Y46151D01*
X209599Y43774D01*
X209615Y43480D01*
X209615Y43480D01*
G37*
G36*
X196599Y43112D02*
X197459Y43842D01*
X197390Y44034D01*
X175753Y44383D01*
X175744Y44093D01*
X196599Y43112D01*
X196599Y43112D01*
G37*
G36*
X197775Y43115D02*
X197859Y43269D01*
X197319Y44110D01*
X196374Y43308D01*
X196445Y43115D01*
X197775Y43115D01*
X197775Y43115D01*
G37*
G36*
X11711Y43007D02*
X12767Y43922D01*
X11100Y46757D01*
X10867Y46670D01*
X11549Y43063D01*
X11711Y43007D01*
X11711Y43007D01*
G37*
G36*
X11565Y43001D02*
X11851Y43059D01*
X11179Y46610D01*
X10802Y47895D01*
X10526Y47825D01*
X11565Y43001D01*
X11565Y43001D01*
G37*
G36*
X11567Y42998D02*
X11854Y43062D01*
X10844Y47749D01*
X2276Y84881D01*
X1988Y84814D01*
X11567Y42998D01*
X11567Y42998D01*
G37*
G36*
X19538Y43007D02*
X19700Y43063D01*
X20382Y46670D01*
X20149Y46757D01*
X18482Y43922D01*
X19538Y43007D01*
X19538Y43007D01*
G37*
G36*
X19664Y42996D02*
X26702Y62997D01*
X26429Y63098D01*
X20071Y46616D01*
X19400Y43067D01*
X19664Y42996D01*
X19664Y42996D01*
G37*
G36*
X19737Y42642D02*
X19922Y42665D01*
X26700Y63001D01*
X26423Y63096D01*
X19407Y43155D01*
X19737Y42642D01*
X19737Y42642D01*
G37*
G36*
X26662Y42652D02*
X26662Y63034D01*
X26414Y63075D01*
X19606Y42652D01*
X26662Y42652D01*
X26662Y42652D01*
G37*
G36*
X11106Y42010D02*
X11836Y43147D01*
X2276Y84879D01*
X1990Y84817D01*
X10911Y42046D01*
X11106Y42010D01*
X11106Y42010D01*
G37*
G36*
X194791Y41296D02*
X196721Y43226D01*
X196651Y43405D01*
X175763Y44387D01*
X175736Y44108D01*
X194791Y41296D01*
X194791Y41296D01*
G37*
G36*
X10809Y40879D02*
X11188Y42168D01*
X2279Y84877D01*
X1992Y84819D01*
X10578Y40890D01*
X10809Y40879D01*
X10809Y40879D01*
G37*
G36*
X206145Y39954D02*
X256380Y45874D01*
X256356Y46158D01*
X209690Y43780D01*
X206053Y40143D01*
X206145Y39954D01*
X206145Y39954D01*
G37*
G36*
X10580Y39683D02*
X10848Y39708D01*
X10848Y41047D01*
X2282Y84876D01*
X1992Y84821D01*
X10580Y39683D01*
X10580Y39683D01*
G37*
G36*
X206411Y39295D02*
X206648Y39414D01*
X206335Y40261D01*
X205973Y40260D01*
X205890Y40107D01*
X206411Y39295D01*
X206411Y39295D01*
G37*
G36*
X206366Y39325D02*
X256385Y45876D01*
X256349Y46167D01*
X206028Y40238D01*
X206366Y39325D01*
X206366Y39325D01*
G37*
G36*
X250038Y38788D02*
X259827Y49410D01*
X259618Y49610D01*
X256113Y46105D01*
X249821Y38984D01*
X250038Y38788D01*
X250038Y38788D01*
G37*
G36*
X250094Y38847D02*
X256399Y45982D01*
X256303Y46163D01*
X206308Y39615D01*
X206324Y39341D01*
X250094Y38847D01*
X250094Y38847D01*
G37*
G36*
X256328Y38848D02*
X259798Y49471D01*
X259593Y49591D01*
X249855Y39025D01*
X249932Y38848D01*
X256328Y38848D01*
X256328Y38848D01*
G37*
G36*
X206689Y38196D02*
X250176Y38850D01*
X250176Y39142D01*
X206266Y39637D01*
X206689Y38196D01*
X206689Y38196D01*
G37*
G36*
X206651Y37002D02*
X250180Y38854D01*
X250172Y39145D01*
X206651Y38491D01*
X206651Y37002D01*
X206651Y37002D01*
G37*
G36*
X206500Y36664D02*
X250183Y38855D01*
X250169Y39149D01*
X206687Y37299D01*
X206500Y36664D01*
X206500Y36664D01*
G37*
G36*
X12430Y35850D02*
X13647Y36406D01*
X13647Y36595D01*
X12430Y37151D01*
X12430Y35850D01*
X12430Y35850D01*
G37*
G36*
X12504Y35908D02*
X12725Y35965D01*
X12725Y36989D01*
X11682Y37893D01*
X11489Y37737D01*
X12504Y35908D01*
X12504Y35908D01*
G37*
G36*
X12524Y35879D02*
X12777Y36023D01*
X11805Y37776D01*
X11081Y38903D01*
X10835Y38751D01*
X12524Y35879D01*
X12524Y35879D01*
G37*
G36*
X38819Y35850D02*
X38819Y37151D01*
X37602Y36595D01*
X37602Y36406D01*
X38819Y35850D01*
X38819Y35850D01*
G37*
G36*
X38745Y35908D02*
X39760Y37737D01*
X39567Y37893D01*
X38524Y36989D01*
X38524Y35965D01*
X38745Y35908D01*
X38745Y35908D01*
G37*
G36*
X38725Y35879D02*
X40414Y38751D01*
X40168Y38903D01*
X39444Y37776D01*
X38472Y36023D01*
X38725Y35879D01*
X38725Y35879D01*
G37*
G36*
X175749Y35567D02*
X194895Y41346D01*
X194877Y41582D01*
X175749Y44404D01*
X175749Y35567D01*
X175749Y35567D01*
G37*
G36*
X246688Y35446D02*
X250205Y38963D01*
X250122Y39148D01*
X206552Y36962D01*
X206554Y36679D01*
X246688Y35446D01*
X246688Y35446D01*
G37*
G36*
X259586Y35421D02*
X259768Y35497D01*
X259768Y49529D01*
X259519Y49569D01*
X256052Y38955D01*
X259586Y35421D01*
X259586Y35421D01*
G37*
G36*
X259754Y35441D02*
X273586Y180490D01*
X273293Y180520D01*
X259473Y49411D01*
X259473Y35455D01*
X259754Y35441D01*
X259754Y35441D01*
G37*
G36*
X11711Y35133D02*
X12767Y36048D01*
X11100Y38883D01*
X10867Y38796D01*
X11549Y35189D01*
X11711Y35133D01*
X11711Y35133D01*
G37*
G36*
X11565Y35127D02*
X11851Y35185D01*
X11179Y38736D01*
X10802Y40021D01*
X10526Y39951D01*
X11565Y35127D01*
X11565Y35127D01*
G37*
G36*
X39538Y35133D02*
X39700Y35189D01*
X40382Y38796D01*
X40149Y38883D01*
X38482Y36048D01*
X39538Y35133D01*
X39538Y35133D01*
G37*
G36*
X39684Y35127D02*
X40723Y39951D01*
X40447Y40021D01*
X40070Y38736D01*
X39398Y35185D01*
X39684Y35127D01*
X39684Y35127D01*
G37*
G36*
X174795Y34550D02*
X194924Y41360D01*
X194835Y41636D01*
X175818Y35896D01*
X174671Y34749D01*
X174795Y34550D01*
X174795Y34550D01*
G37*
G36*
X11102Y34130D02*
X11836Y35272D01*
X10816Y40008D01*
X10545Y39970D01*
X10895Y34184D01*
X11102Y34130D01*
X11102Y34130D01*
G37*
G36*
X10914Y34137D02*
X11191Y34169D01*
X10847Y39861D01*
X2283Y84875D01*
X1994Y84822D01*
X10914Y34137D01*
X10914Y34137D01*
G37*
G36*
X40147Y34130D02*
X40354Y34184D01*
X40704Y39970D01*
X40433Y40008D01*
X39413Y35272D01*
X40147Y34130D01*
X40147Y34130D01*
G37*
G36*
X77445Y33192D02*
X77614Y33399D01*
X25560Y85452D01*
X25355Y85300D01*
X40101Y57819D01*
X77445Y33192D01*
X77445Y33192D01*
G37*
G36*
X77459Y33186D02*
X77618Y33432D01*
X40209Y58102D01*
X40043Y57979D01*
X40423Y56685D01*
X77459Y33186D01*
X77459Y33186D01*
G37*
G36*
X77486Y33203D02*
X77607Y33442D01*
X40554Y56952D01*
X40401Y56868D01*
X40401Y47616D01*
X77486Y33203D01*
X77486Y33203D01*
G37*
G36*
X77503Y33201D02*
X77604Y33474D01*
X40452Y47913D01*
X40033Y46483D01*
X77503Y33201D01*
X77503Y33201D01*
G37*
G36*
X77505Y33201D02*
X77603Y33479D01*
X40153Y46754D01*
X39852Y46286D01*
X77505Y33201D01*
X77505Y33201D01*
G37*
G36*
X166437Y33226D02*
X175016Y34604D01*
X174995Y34875D01*
X167797Y34875D01*
X166339Y33417D01*
X166437Y33226D01*
X166437Y33226D01*
G37*
G36*
X10809Y33004D02*
X11187Y34291D01*
X2285Y84874D01*
X1995Y84824D01*
X10574Y33018D01*
X10809Y33004D01*
X10809Y33004D01*
G37*
G36*
X40443Y32994D02*
X40696Y33030D01*
X40696Y39986D01*
X40410Y39995D01*
X40065Y34283D01*
X40443Y32994D01*
X40443Y32994D01*
G37*
G36*
X40696Y33011D02*
X40696Y41030D01*
X40401Y41030D01*
X40401Y39843D01*
X40401Y33011D01*
X40696Y33011D01*
X40696Y33011D01*
G37*
G36*
X10576Y31811D02*
X10848Y31832D01*
X10848Y33170D01*
X2286Y84873D01*
X1996Y84825D01*
X10576Y31811D01*
X10576Y31811D01*
G37*
G36*
X40696Y31821D02*
X40696Y41030D01*
X40401Y41030D01*
X40401Y33158D01*
X40401Y31821D01*
X40696Y31821D01*
X40696Y31821D01*
G37*
G36*
X19486Y29676D02*
X31588Y30058D01*
X31583Y30349D01*
X19731Y30349D01*
X19398Y29831D01*
X19486Y29676D01*
X19486Y29676D01*
G37*
G36*
X31766Y29679D02*
X31850Y29833D01*
X31517Y30352D01*
X19421Y29970D01*
X19425Y29679D01*
X31766Y29679D01*
X31766Y29679D01*
G37*
G36*
X246776Y29226D02*
X246776Y35739D01*
X206568Y36974D01*
X206539Y36702D01*
X246776Y29226D01*
X246776Y29226D01*
G37*
G36*
X259755Y29250D02*
X273585Y180491D01*
X273292Y180519D01*
X259473Y35603D01*
X259473Y29262D01*
X259755Y29250D01*
X259755Y29250D01*
G37*
G36*
X18575Y28894D02*
X31830Y29688D01*
X31822Y29974D01*
X19515Y29974D01*
X18495Y29090D01*
X18575Y28894D01*
X18575Y28894D01*
G37*
G36*
X32680Y28900D02*
X32752Y29092D01*
X31730Y29978D01*
X18520Y29186D01*
X18528Y28900D01*
X32680Y28900D01*
X32680Y28900D01*
G37*
G36*
X214758Y28556D02*
X246765Y29259D01*
X246786Y29524D01*
X206621Y36987D01*
X206519Y36794D01*
X214758Y28556D01*
X214758Y28556D01*
G37*
G36*
X17473Y28402D02*
X32728Y28905D01*
X32723Y29195D01*
X18639Y29195D01*
X17418Y28638D01*
X17473Y28402D01*
X17473Y28402D01*
G37*
G36*
X33779Y28406D02*
X33829Y28638D01*
X32607Y29196D01*
X17439Y28696D01*
X17444Y28406D01*
X33779Y28406D01*
X33779Y28406D01*
G37*
G36*
X16317Y28241D02*
X33808Y28407D01*
X33807Y28701D01*
X17579Y28701D01*
X16296Y28517D01*
X16317Y28241D01*
X16317Y28241D01*
G37*
G36*
X34932Y28243D02*
X34952Y28517D01*
X33670Y28701D01*
X16306Y28536D01*
X16307Y28243D01*
X34932Y28243D01*
X34932Y28243D01*
G37*
G36*
X250120Y25848D02*
X250206Y26035D01*
X246688Y29552D01*
X214674Y28850D01*
X214666Y28569D01*
X250120Y25848D01*
X250120Y25848D01*
G37*
G36*
X6471Y20717D02*
X37761Y28444D01*
X37707Y28720D01*
X36426Y28535D01*
X6400Y21003D01*
X6471Y20717D01*
X6471Y20717D01*
G37*
G36*
X6503Y20724D02*
X36617Y28279D01*
X36585Y28538D01*
X14738Y28538D01*
X6394Y20927D01*
X6503Y20724D01*
X6503Y20724D01*
G37*
G36*
X6574Y20691D02*
X14963Y28344D01*
X14908Y28523D01*
X13604Y28711D01*
X6374Y20892D01*
X6574Y20691D01*
X6574Y20691D01*
G37*
G36*
X6592Y20692D02*
X13907Y28603D01*
X12530Y29232D01*
X6377Y20870D01*
X6592Y20692D01*
X6592Y20692D01*
G37*
G36*
X6615Y20695D02*
X12777Y29070D01*
X11639Y30056D01*
X6381Y20847D01*
X6615Y20695D01*
X6615Y20695D01*
G37*
G36*
X6637Y20700D02*
X11851Y29831D01*
X11112Y30981D01*
X10937Y30968D01*
X6386Y20827D01*
X6637Y20700D01*
X6637Y20700D01*
G37*
G36*
X6655Y20704D02*
X11192Y30817D01*
X10812Y32112D01*
X10599Y32120D01*
X6390Y20813D01*
X6655Y20704D01*
X6655Y20704D01*
G37*
G36*
X6675Y20732D02*
X10852Y31954D01*
X2288Y84866D01*
X2008Y84834D01*
X6440Y20766D01*
X6675Y20732D01*
X6675Y20732D01*
G37*
G36*
X15946Y20748D02*
X37771Y28461D01*
X37690Y28731D01*
X6416Y21007D01*
X6448Y20748D01*
X15946Y20748D01*
X15946Y20748D01*
G37*
G36*
X260193Y20747D02*
X260465Y20748D01*
X273584Y180492D01*
X273291Y180518D01*
X259472Y29404D01*
X260193Y20747D01*
X260193Y20747D01*
G37*
G36*
X260282Y20718D02*
X260485Y20799D01*
X259760Y29510D01*
X259583Y29575D01*
X256022Y26014D01*
X260282Y20718D01*
X260282Y20718D01*
G37*
G36*
X260369Y20710D02*
X260518Y20895D01*
X256291Y26151D01*
X249911Y26151D01*
X249858Y25923D01*
X260369Y20710D01*
X260369Y20710D01*
G37*
G36*
X260429Y20728D02*
X260509Y20971D01*
X250068Y26148D01*
X214688Y28863D01*
X214654Y28583D01*
X260429Y20728D01*
X260429Y20728D01*
G37*
G36*
X269815Y20748D02*
X273576Y180498D01*
X273289Y180513D01*
X260168Y20748D01*
X269815Y20748D01*
X269815Y20748D01*
G37*
G36*
X273390Y16967D02*
X273572Y17042D01*
X273572Y180504D01*
X273281Y180507D01*
X269521Y20835D01*
X273390Y16967D01*
X273390Y16967D01*
G37*
G36*
X2200Y16307D02*
X6731Y20838D01*
X2302Y84856D01*
X2017Y84846D01*
X2017Y16383D01*
X2200Y16307D01*
X2200Y16307D01*
G37*
G36*
X20882Y15725D02*
X37779Y28512D01*
X37659Y28735D01*
X15650Y20956D01*
X20882Y15725D01*
X20882Y15725D01*
G37*
G36*
X20865Y15714D02*
X38866Y29008D01*
X38731Y29237D01*
X37513Y28681D01*
X20689Y15950D01*
X20865Y15714D01*
X20865Y15714D01*
G37*
G36*
X255395Y15753D02*
X260497Y20854D01*
X260442Y21025D01*
X214706Y28874D01*
X214641Y28606D01*
X255395Y15753D01*
X255395Y15753D01*
G37*
G36*
X219236Y15400D02*
X255481Y15774D01*
X255518Y16023D01*
X214775Y28873D01*
X214648Y28743D01*
X219236Y15400D01*
X219236Y15400D01*
G37*
G36*
X220531Y15401D02*
X255503Y15774D01*
X255500Y16070D01*
X219192Y15695D01*
X219194Y15401D01*
X220531Y15401D01*
X220531Y15401D01*
G37*
G36*
X194706Y15087D02*
X194887Y15163D01*
X194887Y41659D01*
X174583Y34791D01*
X194706Y15087D01*
X194706Y15087D01*
G37*
G36*
X194771Y15065D02*
X194937Y15273D01*
X174908Y34885D01*
X166396Y33519D01*
X166354Y33320D01*
X194771Y15065D01*
X194771Y15065D01*
G37*
G36*
X194835Y15097D02*
X194919Y15321D01*
X166563Y33537D01*
X77278Y33537D01*
X77257Y33264D01*
X194835Y15097D01*
X194835Y15097D01*
G37*
G36*
X194587Y15063D02*
X194894Y15153D01*
X194878Y15389D01*
X77292Y33557D01*
X77246Y33266D01*
X194587Y15063D01*
X194587Y15063D01*
G37*
G36*
X218094Y15029D02*
X219531Y15451D01*
X214911Y28887D01*
X214640Y28806D01*
X218094Y15029D01*
X218094Y15029D01*
G37*
G36*
X221652Y15065D02*
X255504Y15776D01*
X255499Y16070D01*
X220401Y15695D01*
X220367Y15443D01*
X221652Y15065D01*
X221652Y15065D01*
G37*
G36*
X214670Y14697D02*
X218384Y15084D01*
X214929Y28868D01*
X214670Y28836D01*
X214670Y14697D01*
X214670Y14697D01*
G37*
G36*
X193609Y14416D02*
X194743Y15144D01*
X194701Y15344D01*
X77292Y33557D01*
X77246Y33267D01*
X193609Y14416D01*
X193609Y14416D01*
G37*
G36*
X217234Y14417D02*
X218377Y15152D01*
X218300Y15372D01*
X214671Y14994D01*
X214669Y14730D01*
X217234Y14417D01*
X217234Y14417D01*
G37*
G36*
X222632Y14421D02*
X255506Y15779D01*
X255497Y16071D01*
X221559Y15359D01*
X221500Y15148D01*
X222632Y14421D01*
X222632Y14421D01*
G37*
G36*
X215532Y13811D02*
X217358Y14471D01*
X217332Y14703D01*
X214735Y15020D01*
X214639Y14841D01*
X215532Y13811D01*
X215532Y13811D01*
G37*
G36*
X192855Y13512D02*
X193745Y14539D01*
X193686Y14702D01*
X77293Y33558D01*
X77245Y33268D01*
X192855Y13512D01*
X192855Y13512D01*
G37*
G36*
X216464Y13497D02*
X217385Y14560D01*
X217256Y14748D01*
X215430Y14088D01*
X215429Y13881D01*
X216464Y13497D01*
X216464Y13497D01*
G37*
G36*
X223388Y13519D02*
X255509Y15783D01*
X255493Y16074D01*
X222574Y14714D01*
X222500Y14544D01*
X223388Y13519D01*
X223388Y13519D01*
G37*
G36*
X216165Y12758D02*
X216620Y13755D01*
X215536Y14157D01*
X215402Y14012D01*
X215975Y12758D01*
X216165Y12758D01*
X216165Y12758D01*
G37*
G36*
X192390Y12424D02*
X193012Y13785D01*
X77295Y33559D01*
X77244Y33270D01*
X192390Y12424D01*
X192390Y12424D01*
G37*
G36*
X223855Y12431D02*
X255514Y15789D01*
X255488Y16078D01*
X223229Y13804D01*
X223855Y12431D01*
X223855Y12431D01*
G37*
G36*
X192264Y11280D02*
X192470Y12709D01*
X77297Y33560D01*
X77243Y33271D01*
X192264Y11280D01*
X192264Y11280D01*
G37*
G36*
X223984Y11287D02*
X255518Y15795D01*
X255482Y16082D01*
X223778Y12720D01*
X223984Y11287D01*
X223984Y11287D01*
G37*
G36*
X192288Y9614D02*
X192288Y11576D01*
X77299Y33561D01*
X77242Y33274D01*
X192288Y9614D01*
X192288Y9614D01*
G37*
G36*
X223961Y9615D02*
X255523Y15803D01*
X255475Y16087D01*
X223961Y11582D01*
X223961Y9615D01*
X223961Y9615D01*
G37*
G36*
X192480Y8471D02*
X192272Y9919D01*
X77301Y33563D01*
X77240Y33275D01*
X192480Y8471D01*
X192480Y8471D01*
G37*
G36*
X223769Y8467D02*
X255529Y15809D01*
X255468Y16093D01*
X223978Y9920D01*
X223769Y8467D01*
X223769Y8467D01*
G37*
G36*
X192855Y7414D02*
X192970Y7556D01*
X192407Y8788D01*
X77302Y33564D01*
X77239Y33277D01*
X192855Y7414D01*
X192855Y7414D01*
G37*
G36*
X216461Y7405D02*
X216595Y7549D01*
X216022Y8804D01*
X215832Y8804D01*
X215377Y7807D01*
X216461Y7405D01*
X216461Y7405D01*
G37*
G36*
X223398Y7411D02*
X255532Y15814D01*
X255462Y16097D01*
X223841Y8787D01*
X223278Y7554D01*
X223398Y7411D01*
X223398Y7411D01*
G37*
G36*
X214741Y6813D02*
X216567Y7474D01*
X216568Y7680D01*
X215533Y8064D01*
X214612Y7002D01*
X214741Y6813D01*
X214741Y6813D01*
G37*
G36*
X193648Y6511D02*
X193758Y6694D01*
X192877Y7711D01*
X77303Y33565D01*
X77238Y33278D01*
X193648Y6511D01*
X193648Y6511D01*
G37*
G36*
X217281Y6519D02*
X217377Y6698D01*
X216465Y7751D01*
X214639Y7090D01*
X214664Y6860D01*
X217281Y6519D01*
X217281Y6519D01*
G37*
G36*
X222607Y6507D02*
X255535Y15818D01*
X255458Y16100D01*
X223370Y7709D01*
X222489Y6692D01*
X222607Y6507D01*
X222607Y6507D01*
G37*
G36*
X20946Y6405D02*
X38867Y29057D01*
X38688Y29243D01*
X20748Y15995D01*
X20748Y6474D01*
X20946Y6405D01*
X20946Y6405D01*
G37*
G36*
X20918Y6372D02*
X39770Y29839D01*
X39576Y30027D01*
X38564Y29150D01*
X20688Y6555D01*
X20918Y6372D01*
X20918Y6372D01*
G37*
G36*
X255501Y6431D02*
X255501Y16116D01*
X222509Y6786D01*
X222544Y6531D01*
X255501Y6431D01*
X255501Y6431D01*
G37*
G36*
X213696Y6190D02*
X217344Y6544D01*
X217348Y6808D01*
X214764Y7144D01*
X213620Y6409D01*
X213696Y6190D01*
X213696Y6190D01*
G37*
G36*
X194665Y5863D02*
X194762Y6092D01*
X193635Y6817D01*
X77304Y33566D01*
X77238Y33279D01*
X194665Y5863D01*
X194665Y5863D01*
G37*
G36*
X218303Y5880D02*
X218376Y6098D01*
X217235Y6830D01*
X213648Y6482D01*
X213652Y6210D01*
X218303Y5880D01*
X218303Y5880D01*
G37*
G36*
X221563Y5886D02*
X255502Y6433D01*
X255501Y6726D01*
X222629Y6826D01*
X221498Y6099D01*
X221563Y5886D01*
X221563Y5886D01*
G37*
G36*
X212529Y5865D02*
X218342Y5888D01*
X218352Y6173D01*
X213782Y6497D01*
X212492Y6118D01*
X212529Y5865D01*
X212529Y5865D01*
G37*
G36*
X80613Y5620D02*
X80802Y5711D01*
X77551Y33498D01*
X40015Y46542D01*
X39890Y46343D01*
X80613Y5620D01*
X80613Y5620D01*
G37*
G36*
X80512Y5650D02*
X194709Y5888D01*
X194739Y6149D01*
X77244Y33580D01*
X80512Y5650D01*
X80512Y5650D01*
G37*
G36*
X195513Y5651D02*
X195549Y5904D01*
X194598Y6183D01*
X80496Y5946D01*
X80496Y5651D01*
X195513Y5651D01*
X195513Y5651D01*
G37*
G36*
X219465Y5547D02*
X219508Y5805D01*
X218220Y6183D01*
X212512Y6160D01*
X212506Y5872D01*
X219465Y5547D01*
X219465Y5547D01*
G37*
G36*
X219482Y5547D02*
X219495Y5841D01*
X212660Y6160D01*
X211322Y6160D01*
X211316Y5871D01*
X219482Y5547D01*
X219482Y5547D01*
G37*
G36*
X220404Y5549D02*
X255504Y6435D01*
X255498Y6729D01*
X221649Y6183D01*
X220364Y5805D01*
X220404Y5549D01*
X220404Y5549D01*
G37*
G36*
X79196Y2054D02*
X79378Y2262D01*
X40583Y41056D01*
X40401Y40981D01*
X40401Y31896D01*
X79196Y2054D01*
X79196Y2054D01*
G37*
G36*
X79206Y2050D02*
X79382Y2283D01*
X40468Y32217D01*
X40043Y30770D01*
X79206Y2050D01*
X79206Y2050D01*
G37*
G36*
X79211Y2051D02*
X79381Y2288D01*
X40174Y31039D01*
X39369Y29787D01*
X79211Y2051D01*
X79211Y2051D01*
G37*
G36*
X79277Y2099D02*
X79353Y2312D01*
X39542Y30027D01*
X20724Y6602D01*
X20795Y6438D01*
X79277Y2099D01*
X79277Y2099D01*
G37*
G36*
X206197Y2046D02*
X210560Y6373D01*
X210284Y6550D01*
X205989Y2255D01*
X206197Y2046D01*
X206197Y2046D01*
G37*
G36*
X206172Y2056D02*
X211628Y5946D01*
X211597Y6128D01*
X210283Y6514D01*
X205997Y2264D01*
X206172Y2056D01*
X206172Y2056D01*
G37*
G36*
X206116Y2081D02*
X219501Y5590D01*
X219474Y5843D01*
X211422Y6162D01*
X206012Y2304D01*
X206116Y2081D01*
X206116Y2081D01*
G37*
G36*
X206090Y2077D02*
X220692Y5587D01*
X220661Y5848D01*
X219322Y5848D01*
X206019Y2361D01*
X206090Y2077D01*
X206090Y2077D01*
G37*
G36*
X206074Y2096D02*
X255509Y6444D01*
X255493Y6730D01*
X220511Y5848D01*
X206030Y2367D01*
X206074Y2096D01*
X206074Y2096D01*
G37*
G36*
X16383Y2017D02*
X79318Y2108D01*
X79329Y2392D01*
X20839Y6731D01*
X16307Y2199D01*
X16383Y2017D01*
X16383Y2017D01*
G37*
G36*
X16334Y2017D02*
X206345Y2107D01*
X206345Y2403D01*
X79176Y2403D01*
X16334Y2312D01*
X16334Y2017D01*
X16334Y2017D01*
G37*
G36*
X259915Y2017D02*
X259915Y2312D01*
X206198Y2403D01*
X16334Y2312D01*
X16334Y2017D01*
X259915Y2017D01*
X259915Y2017D01*
G37*
G36*
X259866Y2017D02*
X259942Y2199D01*
X255410Y6732D01*
X206044Y2390D01*
X206056Y2108D01*
X259866Y2017D01*
X259866Y2017D01*
G37*
G36*
X168007Y104492D02*
X169076Y104898D01*
X169076Y105101D01*
X168007Y105507D01*
X168007Y104492D01*
X168007Y104492D01*
G37*
G36*
X168105Y104532D02*
X168302Y104601D01*
X168302Y105370D01*
X167079Y106215D01*
X166905Y106028D01*
X168105Y104532D01*
X168105Y104532D01*
G37*
G36*
X168135Y104499D02*
X168361Y104684D01*
X167213Y106116D01*
X166264Y107187D01*
X166043Y106997D01*
X168135Y104499D01*
X168135Y104499D01*
G37*
G36*
X167014Y103739D02*
X168372Y104677D01*
X166287Y107166D01*
X166075Y107055D01*
X167014Y103739D01*
X167014Y103739D01*
G37*
G36*
X167008Y103794D02*
X167281Y103880D01*
X166388Y107035D01*
X165722Y108305D01*
X165470Y108195D01*
X167008Y103794D01*
X167008Y103794D01*
G37*
G36*
X166297Y102849D02*
X167268Y103945D01*
X165750Y108288D01*
X165493Y108229D01*
X166115Y102907D01*
X166297Y102849D01*
X166297Y102849D01*
G37*
G36*
X166124Y102854D02*
X166414Y102891D01*
X165800Y108141D01*
X165458Y109530D01*
X165182Y109477D01*
X166124Y102854D01*
X166124Y102854D01*
G37*
G36*
X165733Y101715D02*
X166403Y102993D01*
X165474Y109519D01*
X165195Y109493D01*
X165512Y101765D01*
X165733Y101715D01*
X165733Y101715D01*
G37*
G36*
X165460Y100478D02*
X165803Y101869D01*
X165489Y109509D01*
X165200Y109503D01*
X165200Y100509D01*
X165460Y100478D01*
X165460Y100478D01*
G37*
G36*
X168007Y94492D02*
X169076Y94898D01*
X169076Y95101D01*
X168007Y95507D01*
X168007Y94492D01*
X168007Y94492D01*
G37*
G36*
X168105Y94532D02*
X168302Y94601D01*
X168302Y95370D01*
X167079Y96215D01*
X166905Y96028D01*
X168105Y94532D01*
X168105Y94532D01*
G37*
G36*
X168135Y94499D02*
X168361Y94684D01*
X167213Y96116D01*
X166264Y97187D01*
X166043Y96997D01*
X168135Y94499D01*
X168135Y94499D01*
G37*
G36*
X167014Y93739D02*
X168372Y94677D01*
X166287Y97166D01*
X166075Y97055D01*
X167014Y93739D01*
X167014Y93739D01*
G37*
G36*
X167008Y93794D02*
X167281Y93880D01*
X166388Y97035D01*
X165722Y98305D01*
X165470Y98195D01*
X167008Y93794D01*
X167008Y93794D01*
G37*
G36*
X166297Y92849D02*
X167268Y93945D01*
X165750Y98288D01*
X165493Y98229D01*
X166115Y92907D01*
X166297Y92849D01*
X166297Y92849D01*
G37*
G36*
X166124Y92854D02*
X166414Y92891D01*
X165800Y98141D01*
X165458Y99530D01*
X165182Y99477D01*
X166124Y92854D01*
X166124Y92854D01*
G37*
G36*
X165733Y91715D02*
X166403Y92993D01*
X165474Y99519D01*
X165195Y99493D01*
X165512Y91765D01*
X165733Y91715D01*
X165733Y91715D01*
G37*
G36*
X165460Y90478D02*
X165803Y91869D01*
X165489Y99509D01*
X165200Y99503D01*
X165200Y90509D01*
X165460Y90478D01*
X165460Y90478D01*
G37*
G36*
X168007Y84492D02*
X169076Y84898D01*
X169076Y85101D01*
X168007Y85507D01*
X168007Y84492D01*
X168007Y84492D01*
G37*
G36*
X168105Y84532D02*
X168302Y84601D01*
X168302Y85370D01*
X167079Y86215D01*
X166905Y86028D01*
X168105Y84532D01*
X168105Y84532D01*
G37*
G36*
X168135Y84499D02*
X168361Y84684D01*
X167213Y86116D01*
X166264Y87187D01*
X166043Y86997D01*
X168135Y84499D01*
X168135Y84499D01*
G37*
G36*
X167014Y83739D02*
X168372Y84677D01*
X166287Y87166D01*
X166075Y87055D01*
X167014Y83739D01*
X167014Y83739D01*
G37*
G36*
X167008Y83794D02*
X167281Y83880D01*
X166388Y87035D01*
X165722Y88305D01*
X165470Y88195D01*
X167008Y83794D01*
X167008Y83794D01*
G37*
G36*
X136676Y83019D02*
X165775Y111795D01*
X166199Y112604D01*
X165995Y112755D01*
X136468Y83228D01*
X136676Y83019D01*
X136676Y83019D01*
G37*
G36*
X136673Y83020D02*
X165481Y110563D01*
X165825Y111958D01*
X165630Y112068D01*
X136469Y83230D01*
X136673Y83020D01*
X136673Y83020D01*
G37*
G36*
X136598Y83060D02*
X165496Y89239D01*
X165496Y110738D01*
X165316Y110814D01*
X136494Y83257D01*
X136598Y83060D01*
X136598Y83060D01*
G37*
G36*
X136559Y83058D02*
X165836Y87996D01*
X165457Y89533D01*
X136505Y83342D01*
X136559Y83058D01*
X136559Y83058D01*
G37*
G36*
X136543Y83077D02*
X167306Y83836D01*
X165753Y88281D01*
X136517Y83351D01*
X136543Y83077D01*
X136543Y83077D01*
G37*
G36*
X114933Y82871D02*
X136825Y83082D01*
X136824Y83375D01*
X114719Y83375D01*
X114640Y83201D01*
X114933Y82871D01*
X114933Y82871D01*
G37*
G36*
X166316Y82871D02*
X167274Y83953D01*
X167193Y84128D01*
X136528Y83372D01*
X136530Y83081D01*
X166316Y82871D01*
X166316Y82871D01*
G37*
G36*
X166397Y82871D02*
X166398Y83166D01*
X136676Y83375D01*
X114851Y83165D01*
X114852Y82871D01*
X166397Y82871D01*
X166397Y82871D01*
G37*
G36*
X115506Y81735D02*
X166399Y82875D01*
X166396Y83167D01*
X114755Y83167D01*
X115506Y81735D01*
X115506Y81735D01*
G37*
G36*
X165744Y81737D02*
X166497Y83172D01*
X115445Y82029D01*
X115448Y81737D01*
X165744Y81737D01*
X165744Y81737D01*
G37*
G36*
X115786Y80490D02*
X165804Y81740D01*
X165800Y82032D01*
X115406Y82032D01*
X115786Y80490D01*
X115786Y80490D01*
G37*
G36*
X165464Y80493D02*
X165844Y82037D01*
X115752Y80784D01*
X115755Y80493D01*
X165464Y80493D01*
X165464Y80493D01*
G37*
G36*
X165496Y79207D02*
X165496Y80788D01*
X115755Y80788D01*
X115752Y80496D01*
X165496Y79207D01*
X165496Y79207D01*
G37*
G36*
X115753Y79211D02*
X165494Y79211D01*
X165497Y79503D01*
X115753Y80792D01*
X115753Y79211D01*
X115753Y79211D01*
G37*
G36*
X115405Y77962D02*
X165497Y79215D01*
X165494Y79506D01*
X115785Y79506D01*
X115405Y77962D01*
X115405Y77962D01*
G37*
G36*
X165843Y77967D02*
X165463Y79509D01*
X115445Y78259D01*
X115449Y77967D01*
X165843Y77967D01*
X165843Y77967D01*
G37*
G36*
X114752Y76827D02*
X165804Y77970D01*
X165801Y78262D01*
X115505Y78262D01*
X114752Y76827D01*
X114752Y76827D01*
G37*
G36*
X166494Y76832D02*
X165743Y78264D01*
X114850Y77124D01*
X114853Y76832D01*
X166494Y76832D01*
X166494Y76832D01*
G37*
G36*
X167193Y75872D02*
X167274Y76047D01*
X166316Y77128D01*
X114853Y77128D01*
X114850Y76835D01*
X167193Y75872D01*
X167193Y75872D01*
G37*
G36*
X114054Y75873D02*
X167246Y75873D01*
X167249Y76166D01*
X114934Y77129D01*
X113975Y76047D01*
X114054Y75873D01*
X114054Y75873D01*
G37*
G36*
X112987Y75144D02*
X167248Y75875D01*
X167246Y76169D01*
X114103Y76169D01*
X112921Y75352D01*
X112987Y75144D01*
X112987Y75144D01*
G37*
G36*
X168263Y75145D02*
X168328Y75353D01*
X167145Y76169D01*
X112946Y75439D01*
X112948Y75145D01*
X168263Y75145D01*
X168263Y75145D01*
G37*
G36*
X112198Y74851D02*
X168302Y75146D01*
X168302Y75441D01*
X113068Y75441D01*
X112153Y75094D01*
X112198Y74851D01*
X112198Y74851D01*
G37*
G36*
X169051Y74852D02*
X169096Y75094D01*
X168181Y75441D01*
X112173Y75146D01*
X112174Y74852D01*
X169051Y74852D01*
X169051Y74852D01*
G37*
G36*
X113068Y74558D02*
X169076Y74853D01*
X169075Y75147D01*
X112198Y75147D01*
X112153Y74905D01*
X113068Y74558D01*
X113068Y74558D01*
G37*
G36*
X168181Y74558D02*
X169096Y74905D01*
X169051Y75148D01*
X112947Y74853D01*
X112947Y74558D01*
X168181Y74558D01*
X168181Y74558D01*
G37*
G36*
X114104Y73830D02*
X168303Y74560D01*
X168301Y74854D01*
X112986Y74854D01*
X112921Y74646D01*
X114104Y73830D01*
X114104Y73830D01*
G37*
G36*
X167146Y73830D02*
X168328Y74647D01*
X168262Y74855D01*
X114001Y74124D01*
X114003Y73830D01*
X167146Y73830D01*
X167146Y73830D01*
G37*
G36*
X114934Y72870D02*
X167249Y73833D01*
X167246Y74126D01*
X114054Y74126D01*
X113975Y73952D01*
X114934Y72870D01*
X114934Y72870D01*
G37*
G36*
X166316Y72871D02*
X167274Y73952D01*
X167193Y74127D01*
X114850Y73164D01*
X114853Y72871D01*
X166316Y72871D01*
X166316Y72871D01*
G37*
G36*
X115506Y71735D02*
X166399Y72875D01*
X166396Y73167D01*
X114755Y73167D01*
X115506Y71735D01*
X115506Y71735D01*
G37*
G36*
X165744Y71737D02*
X166497Y73172D01*
X115445Y72029D01*
X115448Y71737D01*
X165744Y71737D01*
X165744Y71737D01*
G37*
G36*
X115786Y70490D02*
X165804Y71740D01*
X165800Y72032D01*
X115406Y72032D01*
X115786Y70490D01*
X115786Y70490D01*
G37*
G36*
X165464Y70493D02*
X165844Y72037D01*
X115752Y70784D01*
X115755Y70493D01*
X165464Y70493D01*
X165464Y70493D01*
G37*
G36*
X165496Y69207D02*
X165496Y70788D01*
X115755Y70788D01*
X115752Y70496D01*
X165496Y69207D01*
X165496Y69207D01*
G37*
G36*
X115753Y69211D02*
X165494Y69211D01*
X165497Y69503D01*
X115753Y70792D01*
X115753Y69211D01*
X115753Y69211D01*
G37*
G36*
X115405Y67962D02*
X165497Y69215D01*
X165494Y69506D01*
X115785Y69506D01*
X115405Y67962D01*
X115405Y67962D01*
G37*
G36*
X165843Y67967D02*
X165463Y69509D01*
X115445Y68259D01*
X115449Y67967D01*
X165843Y67967D01*
X165843Y67967D01*
G37*
G36*
X114752Y66827D02*
X165804Y67970D01*
X165801Y68262D01*
X115505Y68262D01*
X114752Y66827D01*
X114752Y66827D01*
G37*
G36*
X166494Y66832D02*
X165743Y68264D01*
X114850Y67124D01*
X114853Y66832D01*
X166494Y66832D01*
X166494Y66832D01*
G37*
G36*
X167193Y65872D02*
X167274Y66047D01*
X166316Y67128D01*
X114853Y67128D01*
X114850Y66835D01*
X167193Y65872D01*
X167193Y65872D01*
G37*
G36*
X114054Y65873D02*
X167246Y65873D01*
X167249Y66166D01*
X114934Y67129D01*
X113975Y66047D01*
X114054Y65873D01*
X114054Y65873D01*
G37*
G36*
X112987Y65144D02*
X167248Y65875D01*
X167246Y66169D01*
X114103Y66169D01*
X112921Y65352D01*
X112987Y65144D01*
X112987Y65144D01*
G37*
G36*
X168263Y65145D02*
X168328Y65353D01*
X167145Y66169D01*
X112946Y65439D01*
X112948Y65145D01*
X168263Y65145D01*
X168263Y65145D01*
G37*
G36*
X112198Y64851D02*
X168302Y65146D01*
X168302Y65441D01*
X113068Y65441D01*
X112153Y65094D01*
X112198Y64851D01*
X112198Y64851D01*
G37*
G36*
X169051Y64852D02*
X169096Y65094D01*
X168181Y65441D01*
X112173Y65146D01*
X112174Y64852D01*
X169051Y64852D01*
X169051Y64852D01*
G37*
G36*
X113068Y64558D02*
X169076Y64853D01*
X169075Y65147D01*
X112198Y65147D01*
X112153Y64905D01*
X113068Y64558D01*
X113068Y64558D01*
G37*
G36*
X168181Y64558D02*
X169096Y64905D01*
X169051Y65148D01*
X112947Y64853D01*
X112947Y64558D01*
X168181Y64558D01*
X168181Y64558D01*
G37*
G36*
X114104Y63830D02*
X168303Y64560D01*
X168301Y64854D01*
X112986Y64854D01*
X112921Y64646D01*
X114104Y63830D01*
X114104Y63830D01*
G37*
G36*
X167146Y63830D02*
X168328Y64647D01*
X168262Y64855D01*
X114001Y64124D01*
X114003Y63830D01*
X167146Y63830D01*
X167146Y63830D01*
G37*
G36*
X114934Y62870D02*
X167249Y63833D01*
X167246Y64126D01*
X114054Y64126D01*
X113975Y63952D01*
X114934Y62870D01*
X114934Y62870D01*
G37*
G36*
X166316Y62871D02*
X167274Y63952D01*
X167193Y64127D01*
X114850Y63164D01*
X114853Y62871D01*
X166316Y62871D01*
X166316Y62871D01*
G37*
G36*
X115506Y61735D02*
X166399Y62875D01*
X166396Y63167D01*
X114755Y63167D01*
X115506Y61735D01*
X115506Y61735D01*
G37*
G36*
X165744Y61737D02*
X166497Y63172D01*
X115445Y62029D01*
X115448Y61737D01*
X165744Y61737D01*
X165744Y61737D01*
G37*
G36*
X115786Y60490D02*
X165804Y61740D01*
X165800Y62032D01*
X115406Y62032D01*
X115786Y60490D01*
X115786Y60490D01*
G37*
G36*
X165464Y60493D02*
X165844Y62037D01*
X115752Y60784D01*
X115755Y60493D01*
X165464Y60493D01*
X165464Y60493D01*
G37*
G36*
X165496Y59207D02*
X165496Y60788D01*
X115755Y60788D01*
X115752Y60496D01*
X165496Y59207D01*
X165496Y59207D01*
G37*
G36*
X115753Y59211D02*
X165494Y59211D01*
X165497Y59503D01*
X115753Y60792D01*
X115753Y59211D01*
X115753Y59211D01*
G37*
G36*
X115405Y57962D02*
X165497Y59215D01*
X165494Y59506D01*
X115785Y59506D01*
X115405Y57962D01*
X115405Y57962D01*
G37*
G36*
X165843Y57967D02*
X165463Y59509D01*
X115445Y58259D01*
X115449Y57967D01*
X165843Y57967D01*
X165843Y57967D01*
G37*
G36*
X114752Y56827D02*
X165804Y57970D01*
X165801Y58262D01*
X115505Y58262D01*
X114752Y56827D01*
X114752Y56827D01*
G37*
G36*
X166494Y56832D02*
X165743Y58264D01*
X114850Y57124D01*
X114853Y56832D01*
X166494Y56832D01*
X166494Y56832D01*
G37*
G36*
X167193Y55872D02*
X167274Y56047D01*
X166316Y57128D01*
X114853Y57128D01*
X114850Y56835D01*
X167193Y55872D01*
X167193Y55872D01*
G37*
G36*
X114054Y55873D02*
X167246Y55873D01*
X167249Y56166D01*
X114934Y57129D01*
X113975Y56047D01*
X114054Y55873D01*
X114054Y55873D01*
G37*
G36*
X112987Y55144D02*
X167248Y55875D01*
X167246Y56169D01*
X114103Y56169D01*
X112921Y55352D01*
X112987Y55144D01*
X112987Y55144D01*
G37*
G36*
X168263Y55145D02*
X168328Y55353D01*
X167145Y56169D01*
X112946Y55439D01*
X112948Y55145D01*
X168263Y55145D01*
X168263Y55145D01*
G37*
G36*
X112198Y54851D02*
X168302Y55146D01*
X168302Y55441D01*
X113068Y55441D01*
X112153Y55094D01*
X112198Y54851D01*
X112198Y54851D01*
G37*
G36*
X169051Y54852D02*
X169096Y55094D01*
X168181Y55441D01*
X112173Y55146D01*
X112174Y54852D01*
X169051Y54852D01*
X169051Y54852D01*
G37*
G36*
X113068Y54558D02*
X169076Y54853D01*
X169075Y55147D01*
X112198Y55147D01*
X112153Y54905D01*
X113068Y54558D01*
X113068Y54558D01*
G37*
G36*
X168181Y54558D02*
X169096Y54905D01*
X169051Y55148D01*
X112947Y54853D01*
X112947Y54558D01*
X168181Y54558D01*
X168181Y54558D01*
G37*
G36*
X114104Y53830D02*
X168303Y54560D01*
X168301Y54854D01*
X112986Y54854D01*
X112921Y54646D01*
X114104Y53830D01*
X114104Y53830D01*
G37*
G36*
X167146Y53830D02*
X168328Y54647D01*
X168262Y54855D01*
X114001Y54124D01*
X114003Y53830D01*
X167146Y53830D01*
X167146Y53830D01*
G37*
G36*
X114934Y52870D02*
X167249Y53833D01*
X167246Y54126D01*
X114054Y54126D01*
X113975Y53952D01*
X114934Y52870D01*
X114934Y52870D01*
G37*
G36*
X166316Y52871D02*
X167274Y53952D01*
X167193Y54127D01*
X114850Y53164D01*
X114853Y52871D01*
X166316Y52871D01*
X166316Y52871D01*
G37*
G36*
X115506Y51735D02*
X166399Y52875D01*
X166396Y53167D01*
X114755Y53167D01*
X115506Y51735D01*
X115506Y51735D01*
G37*
G36*
X165744Y51737D02*
X166497Y53172D01*
X115445Y52029D01*
X115448Y51737D01*
X165744Y51737D01*
X165744Y51737D01*
G37*
G36*
X115786Y50490D02*
X165804Y51740D01*
X165800Y52032D01*
X115406Y52032D01*
X115786Y50490D01*
X115786Y50490D01*
G37*
G36*
X165464Y50493D02*
X165844Y52037D01*
X115752Y50784D01*
X115755Y50493D01*
X165464Y50493D01*
X165464Y50493D01*
G37*
G36*
X165496Y49207D02*
X165496Y50788D01*
X115755Y50788D01*
X115752Y50496D01*
X165496Y49207D01*
X165496Y49207D01*
G37*
G36*
X115753Y49211D02*
X165494Y49211D01*
X165497Y49503D01*
X115753Y50792D01*
X115753Y49211D01*
X115753Y49211D01*
G37*
G36*
X115405Y47962D02*
X165497Y49215D01*
X165494Y49506D01*
X115785Y49506D01*
X115405Y47962D01*
X115405Y47962D01*
G37*
G36*
X165843Y47967D02*
X165463Y49509D01*
X115445Y48259D01*
X115449Y47967D01*
X165843Y47967D01*
X165843Y47967D01*
G37*
G36*
X166099Y47585D02*
X165744Y48262D01*
X115447Y48262D01*
X115446Y47968D01*
X166099Y47585D01*
X166099Y47585D01*
G37*
G36*
X114766Y46855D02*
X166002Y47589D01*
X166001Y47881D01*
X115506Y48263D01*
X114766Y46855D01*
X114766Y46855D01*
G37*
G36*
X165187Y46858D02*
X166029Y47700D01*
X165951Y47883D01*
X114864Y47151D01*
X114866Y46858D01*
X165187Y46858D01*
X165187Y46858D01*
G37*
G36*
X42286Y83002D02*
X42495Y83207D01*
X28486Y97850D01*
X27779Y97738D01*
X27723Y97566D01*
X42286Y83002D01*
X42286Y83002D01*
G37*
G36*
X46622Y79311D02*
X46815Y79519D01*
X28434Y97900D01*
X28226Y97695D01*
X42186Y83103D01*
X46622Y79311D01*
X46622Y79311D01*
G37*
G36*
X46703Y79358D02*
X46788Y79557D01*
X42311Y83384D01*
X42140Y83305D01*
X42140Y79803D01*
X46703Y79358D01*
X46703Y79358D01*
G37*
G36*
X47155Y74860D02*
X47344Y74953D01*
X46741Y79651D01*
X42198Y80094D01*
X42109Y79906D01*
X47155Y74860D01*
X47155Y74860D01*
G37*
G36*
X47056Y74883D02*
X47332Y74901D01*
X47332Y79663D01*
X46442Y79663D01*
X47056Y74883D01*
X47056Y74883D01*
G37*
G36*
X99827Y74272D02*
X105496Y79292D01*
X105496Y80088D01*
X105313Y80163D01*
X99631Y74481D01*
X99827Y74272D01*
X99827Y74272D01*
G37*
G36*
X99800Y74281D02*
X105823Y78046D01*
X105433Y79631D01*
X99637Y74498D01*
X99800Y74281D01*
X99800Y74281D01*
G37*
G36*
X99781Y74280D02*
X106053Y77674D01*
X105711Y78324D01*
X99637Y74527D01*
X99781Y74280D01*
X99781Y74280D01*
G37*
G36*
X87667Y73587D02*
X99988Y74339D01*
X99980Y74625D01*
X87667Y74625D01*
X87667Y73587D01*
X87667Y73587D01*
G37*
G36*
X84931Y70765D02*
X100002Y74366D01*
X99963Y74633D01*
X87750Y73888D01*
X84822Y70960D01*
X84931Y70765D01*
X84931Y70765D01*
G37*
G36*
X79271Y70345D02*
X80234Y70903D01*
X79306Y71831D01*
X79124Y71756D01*
X79124Y70430D01*
X79271Y70345D01*
X79271Y70345D01*
G37*
G36*
X79165Y70360D02*
X85158Y70798D01*
X85147Y71082D01*
X79954Y71082D01*
X79095Y70584D01*
X79165Y70360D01*
X79165Y70360D01*
G37*
G36*
X55913Y70207D02*
X55913Y71082D01*
X51151Y71082D01*
X51133Y70805D01*
X55913Y70207D01*
X55913Y70207D01*
G37*
G36*
X58533Y67472D02*
X58673Y67675D01*
X55834Y70514D01*
X51182Y71097D01*
X51113Y70853D01*
X58533Y67472D01*
X58533Y67472D01*
G37*
G36*
X76354Y67477D02*
X85177Y70842D01*
X85121Y71091D01*
X79206Y70659D01*
X76224Y67678D01*
X76354Y67477D01*
X76354Y67477D01*
G37*
G36*
X76318Y67476D02*
X100016Y74376D01*
X99942Y74655D01*
X84961Y71076D01*
X76228Y67745D01*
X76318Y67476D01*
X76318Y67476D01*
G37*
G36*
X62685Y59330D02*
X62889Y59479D01*
X58589Y67771D01*
X51238Y71120D01*
X51098Y70917D01*
X62685Y59330D01*
X62685Y59330D01*
G37*
G36*
X62641Y59317D02*
X76585Y67588D01*
X76526Y67805D01*
X58239Y67805D01*
X62641Y59317D01*
X62641Y59317D01*
G37*
G36*
X62628Y59336D02*
X100022Y74393D01*
X99930Y74659D01*
X76354Y67794D01*
X62507Y59581D01*
X62628Y59336D01*
X62628Y59336D01*
G37*
G36*
X87714Y59376D02*
X100023Y74473D01*
X99888Y74658D01*
X62532Y59615D01*
X62578Y59376D01*
X87714Y59376D01*
X87714Y59376D01*
G37*
G36*
X87649Y59320D02*
X106049Y77720D01*
X105896Y77925D01*
X99741Y74594D01*
X87440Y59508D01*
X87649Y59320D01*
X87649Y59320D01*
G37*
M02*
